<?xml version="1.0" encoding="utf-8"?>
<!-- Generator: Adobe Illustrator 27.4.1, SVG Export Plug-In . SVG Version: 6.00 Build 0)  -->
<svg version="1.1" id="Layer_1" xmlns="http://www.w3.org/2000/svg" xmlns:xlink="http://www.w3.org/1999/xlink" x="0px" y="0px"
	 viewBox="0 0 1000 1000" style="enable-background:new 0 0 1000 1000;" xml:space="preserve">
<g>
	<path d="M243.3,576.8c89.7,0,163.1-73.5,163.1-163.1c0-32.9-9.8-63.5-26.6-89.1c-1.3-2-1.1-4.5,0.6-6.2l49.8-49.8
		c1.9-1.9,1.9-5,0-7l-34.9-34.9c-1.9-1.9-5-1.9-7,0l-49.8,49.8c-1.7,1.7-4.2,1.9-6.2,0.6c-25.6-16.8-56.2-26.6-89.1-26.6
		c-89.7,0-163.1,73.5-163.1,163.2c0,32.8,9.8,63.4,26.6,89.1c1.3,2,1.1,4.5-0.6,6.2l-50.9,50.9c-1.9,1.9-1.9,5,0,7l34.9,34.9
		c1.9,1.9,5,1.9,7,0l50.9-50.9c1.7-1.7,4.2-1.9,6.2-0.6C179.9,567,210.5,576.8,243.3,576.8z M346.8,423.4
		c-4.5,49.3-44.4,89.3-93.8,93.8c-18.9,1.7-37-1.7-52.9-8.9c-3.2-1.4-4-5.6-1.5-8L329.8,369c2.5-2.5,6.6-1.7,8,1.5
		C345.1,386.4,348.5,404.4,346.8,423.4z M139.9,403.9c4.5-49.3,44.4-89.3,93.8-93.8c18.9-1.7,37,1.7,52.9,8.9c3.2,1.4,4,5.6,1.5,8
		L156.8,458.3c-2.5,2.5-6.6,1.7-8-1.5C141.5,440.9,138.1,422.9,139.9,403.9z"/>
	<path d="M701.3,334.9l-34.8-35c-1.9-1.9-5-1.9-7,0l-91.7,91.2c-1.9,1.9-5,1.9-7,0l-88.5-88.5c-1.9-1.9-5-1.9-7,0l-34.9,34.9
		c-1.9,1.9-1.9,5,0,7l88.3,88.3c1.9,1.9,1.9,5.1,0,7L226.7,730.5c-1.9,1.9-1.9,5,0,7l34.8,35c1.9,1.9,5,1.9,7,0l295.8-294.2l0.3,0.3
		l41.9-41.9l-0.2-0.2l95.1-94.6C703.2,339.9,703.2,336.8,701.3,334.9z"/>
</g>
<g>
	<path d="M456.7,773.7l-53.7-53.7c-0.2-0.2-0.2-0.5,0-0.7l37.2-37.2c0.2-0.2,0.5-0.2,0.7,0l10.5,10.5c0.2,0.2,0.2,0.5,0,0.7
		l-25.4,25.4c-0.2,0.2-0.2,0.5,0,0.7l8.9,8.9c0.2,0.2,0.5,0.2,0.7,0l15.7-15.7c0.2-0.2,0.5-0.2,0.7,0l10.5,10.5
		c0.2,0.2,0.2,0.5,0,0.7l-15.7,15.7c-0.2,0.2-0.2,0.5,0,0.7l21.7,21.7c0.2,0.2,0.2,0.5,0,0.7l-11.1,11.1
		C457.2,773.9,456.9,773.9,456.7,773.7z"/>
	<path d="M505.7,724.7l-53.7-53.7c-0.2-0.2-0.2-0.5,0-0.7l38.4-38.4c0.2-0.2,0.5-0.2,0.7,0l10.5,10.5c0.2,0.2,0.2,0.5,0,0.7
		l-26.6,26.6c-0.2,0.2-0.2,0.5,0,0.7l8.9,8.9c0.2,0.2,0.5,0.2,0.7,0l14.5-14.5c0.2-0.2,0.5-0.2,0.7,0l10.5,10.5
		c0.2,0.2,0.2,0.5,0,0.7l-14.5,14.5c-0.2,0.2-0.2,0.5,0,0.7l10.5,10.5c0.2,0.2,0.5,0.2,0.7,0l28.1-28.1c0.2-0.2,0.5-0.2,0.7,0
		l10.6,10.6c0.2,0.2,0.2,0.5,0,0.7l-39.9,39.9C506.2,724.9,505.9,724.9,505.7,724.7z"/>
	<path d="M579.1,654c-5.3,5.3-11.2,8.4-17.9,9.4c-6.5,1-13-0.1-19.4-3.3c-0.2-0.1-0.4-0.4-0.2-0.7l6.2-13.7c0.1-0.2,0.4-0.3,0.6-0.2
		c3.7,1.3,7.3,1.7,10.8,1.3c3.6-0.4,6.6-1.9,9-4.3c2.5-2.5,4-5,4.5-7.4c0.5-2.4-0.2-4.5-2-6.3c-1.2-1.2-2.8-1.7-4.8-1.6
		c-2,0.1-3.8,0.6-5.4,1.3c-1.6,0.7-4,1.9-7.2,3.6c-2.1,1.1-3.7,1.9-4.8,2.4c-1.1,0.5-2.7,1.2-4.8,2.1c-2.1,0.9-3.8,1.4-5.1,1.7
		c-1.3,0.3-2.9,0.5-4.9,0.7c-2,0.2-3.7,0.1-5.2-0.3c-1.5-0.4-3.1-1.1-4.9-2.1c-1.8-1-3.5-2.2-5-3.8c-4.4-4.4-6.3-9.7-5.8-16.1
		c0.5-6.4,3.6-12.5,9.5-18.3c4.9-4.9,10.2-7.7,16.1-8.5c5.7-0.7,11,0.2,15.9,2.9c0.2,0.1,0.3,0.4,0.2,0.7l-6.7,13.2
		c-0.1,0.2-0.4,0.3-0.6,0.2c-5.4-2-10.2-0.9-14.3,3.3c-4.4,4.4-5.1,8.1-2.2,11c0.7,0.7,1.5,1.1,2.4,1.2c0.9,0.1,2.2-0.1,3.8-0.7
		c1.6-0.6,2.9-1.1,3.8-1.5c1-0.4,2.6-1.2,5-2.4c2.5-1.2,4.4-2.2,5.8-2.8c1.4-0.7,3.3-1.5,5.8-2.5c2.5-1,4.7-1.6,6.6-1.7
		c1.9-0.2,3.9-0.2,6.2-0.1c2.3,0.1,4.5,0.7,6.6,1.8c2.1,1.1,4.1,2.6,6,4.5c5.1,5.1,7.3,11.1,6.4,17.9
		C588.3,641.8,584.9,648.1,579.1,654z"/>
	<path d="M592.8,553l42.3,42.3c0.2,0.2,0.2,0.5,0,0.7L624,607.2c-0.2,0.2-0.5,0.2-0.7,0L581,564.8c-0.2-0.2-0.5-0.2-0.7,0
		l-14.9,14.9c-0.2,0.2-0.5,0.2-0.7,0L554,569.1c-0.2-0.2-0.2-0.5,0-0.7l42.3-42.3c0.2-0.2,0.5-0.2,0.7,0l10.6,10.6
		c0.2,0.2,0.2,0.5,0,0.7l-14.9,14.9C592.6,552.5,592.6,552.8,592.8,553z"/>
	<path d="M663.1,567.4l-53.7-53.7c-0.2-0.2-0.2-0.5,0-0.7l11.1-11.1c0.2-0.2,0.5-0.2,0.7,0l53.7,53.7c0.2,0.2,0.2,0.5,0,0.7
		l-11.1,11.1C663.6,567.6,663.3,567.6,663.1,567.4z"/>
	<path d="M704.3,526.5l-73-34.3c-0.3-0.1-0.4-0.6-0.1-0.8l12.1-12.1c0.1-0.1,0.4-0.2,0.6-0.1l45.7,22.4c0.5,0.2,1.2,0.5,1.9,1
		l1.1,0.6c-0.4-0.6-0.9-1.6-1.6-3l-22.4-45.7c-0.1-0.2-0.1-0.4,0.1-0.6l11.9-11.9c0.2-0.2,0.6-0.2,0.8,0.1l34.4,72.9
		c0.1,0.2,0,0.4-0.1,0.6l-10.8,10.8C704.7,526.5,704.5,526.5,704.3,526.5z"/>
	<path d="M775.7,455l-14-6.3c-0.2-0.1-0.4,0-0.5,0.1l-19.9,19.9c-0.1,0.1-0.2,0.4-0.1,0.5l6.3,14c0.1,0.2,0,0.4-0.1,0.5L735.1,496
		c-0.2,0.2-0.7,0.2-0.8-0.2l-32.5-74.8c-0.1-0.2,0-0.4,0.1-0.5l10.9-10.9c0.1-0.1,0.4-0.2,0.5-0.1l74.9,32.4
		c0.3,0.1,0.4,0.6,0.2,0.8l-12.1,12.1C776.1,455.1,775.9,455.1,775.7,455z M746.1,442.2c0.2-0.2,0.2-0.7-0.2-0.8l-15.7-6.8
		c-2.5-1-4.6-2-6.2-3c0.7,1.1,1.7,3.2,3,6.2l6.8,15.7c0.1,0.3,0.6,0.4,0.8,0.2L746.1,442.2z"/>
	<path d="M799.4,431.1l-53.7-53.7c-0.2-0.2-0.2-0.5,0-0.7l11.1-11.1c0.2-0.2,0.5-0.2,0.7,0l42.3,42.3c0.2,0.2,0.5,0.2,0.7,0
		l25.4-25.4c0.2-0.2,0.5-0.2,0.7,0l10.7,10.7c0.2,0.2,0.2,0.5,0,0.7l-37.2,37.2C799.9,431.3,799.6,431.3,799.4,431.1z"/>
	<path d="M847.5,383l-53.7-53.7c-0.2-0.2-0.2-0.5,0-0.7l38.4-38.4c0.2-0.2,0.5-0.2,0.7,0l10.5,10.5c0.2,0.2,0.2,0.5,0,0.7L816.8,328
		c-0.2,0.2-0.2,0.5,0,0.7l8.9,8.9c0.2,0.2,0.5,0.2,0.7,0l14.5-14.5c0.2-0.2,0.5-0.2,0.7,0l10.5,10.5c0.2,0.2,0.2,0.5,0,0.7
		l-14.5,14.5c-0.2,0.2-0.2,0.5,0,0.7l10.5,10.5c0.2,0.2,0.5,0.2,0.7,0l28.1-28.1c0.2-0.2,0.5-0.2,0.7,0l10.6,10.6
		c0.2,0.2,0.2,0.5,0,0.7L848.2,383C848,383.2,847.7,383.2,847.5,383z"/>
	<path d="M945.4,285.7l-9.8,9.8c-0.1,0.1-0.3,0.2-0.4,0.1l-49.1-8.3c-1.2-0.2-3.3-0.7-6.4-1.8c1,0.7,2.5,2,4.3,3.9l28.5,28.5
		c0.2,0.2,0.2,0.5,0,0.7l-11,11c-0.2,0.2-0.5,0.2-0.7,0L847.2,276c-0.2-0.2-0.2-0.5,0-0.7l10.3-10.3c0.1-0.1,0.3-0.2,0.4-0.1
		l48.2,8.5c2.4,0.4,4.5,1,6.3,1.8c-1.2-0.9-2.7-2.2-4.3-3.9L880,243.2c-0.2-0.2-0.2-0.5,0-0.7l11.1-11.1c0.2-0.2,0.5-0.2,0.7,0
		l53.7,53.7C945.6,285.2,945.6,285.6,945.4,285.7z"/>
</g>
</svg>
