  0
SECTION
  2
HEADER
  9
$ACADVER
  1
AC1014
  9
$HANDSEED
  5
FFFF
  9
$INSUNITS
 70
     4
  9
$MEASUREMENT
 70
     1
  0
ENDSEC
  0
SECTION
  2
TABLES
  0
TABLE
  2
VPORT
  5
8
330
0
100
AcDbSymbolTable
 70
     4
  0
VPORT
  5
2E
330
8
100
AcDbSymbolTableRecord
100
AcDbViewportTableRecord
  2
*ACTIVE
 70
     0
 10
0.0
 20
0.0
 11
1.0
 21
1.0
 12
210.0
 22
148.5
 13
0.0
 23
0.0
 14
10.0
 24
10.0
 15
10.0
 25
10.0
 16
0.0
 26
0.0
 36
1.0
 17
0.0
 27
0.0
 37
0.0
 40
341.0
 41
1.24
 42
50.0
 43
0.0
 44
0.0
 50
0.0
 51
0.0
 71
     0
 72
   100
 73
     1
 74
     3
 75
     0
 76
     0
 77
     0
 78
     0
  0
ENDTAB
  0
TABLE
  2
LTYPE
  5
5
330
0
100
AcDbSymbolTable
 70
     1
  0
LTYPE
  5
14
330
5
100
AcDbSymbolTableRecord
100
AcDbLinetypeTableRecord
  2
BYBLOCK
 70
     0
  3

 72
    65
 73
     0
 40
0.0
  0
LTYPE
  5
15
330
5
100
AcDbSymbolTableRecord
100
AcDbLinetypeTableRecord
  2
BYLAYER
 70
     0
  3

 72
    65
 73
     0
 40
0.0
  0
LTYPE
  5
16
330
5
100
AcDbSymbolTableRecord
100
AcDbLinetypeTableRecord
  2
CONTINUOUS
 70
     0
  3
Solid line
 72
    65
 73
     0
 40
0.0
  0
ENDTAB
  0
TABLE
  2
LAYER
  5
2
100
AcDbSymbolTable
 70
5
  0
LAYER
  5
50
100
AcDbSymbolTableRecord
100
AcDbLayerTableRecord
  2
0
 70
0
  6
CONTINUOUS
  0
LAYER
  5
51
100
AcDbSymbolTableRecord
100
AcDbLayerTableRecord
  2
Plate
 70
0
  6
CONTINUOUS
  0
LAYER
  5
52
100
AcDbSymbolTableRecord
100
AcDbLayerTableRecord
  2
Logo
 70
0
  6
CONTINUOUS
  0
LAYER
  5
53
100
AcDbSymbolTableRecord
100
AcDbLayerTableRecord
  2
Pærer
 70
0
  6
CONTINUOUS
  0
LAYER
  5
54
100
AcDbSymbolTableRecord
100
AcDbLayerTableRecord
  2
Guidelines
 70
0
  6
CONTINUOUS
  0
ENDTAB
  0
TABLE
  2
STYLE
  5
3
330
0
100
AcDbSymbolTable
 70
     1
  0
STYLE
  5
11
330
3
100
AcDbSymbolTableRecord
100
AcDbTextStyleTableRecord
  2
STANDARD
 70
     0
 40
0.0
 41
1.0
 50
0.0
 71
     0
 42
2.5
  3
txt
  4

  0
ENDTAB
  0
TABLE
  2
VIEW
  5
6
330
0
100
AcDbSymbolTable
 70
     0
  0
ENDTAB
  0
TABLE
  2
UCS
  5
7
330
0
100
AcDbSymbolTable
 70
     0
  0
ENDTAB
  0
TABLE
  2
APPID
  5
9
330
0
100
AcDbSymbolTable
 70
     2
  0
APPID
  5
12
330
9
100
AcDbSymbolTableRecord
100
AcDbRegAppTableRecord
  2
ACAD
 70
     0
  0
ENDTAB
  0
TABLE
  2
DIMSTYLE
  5
A
330
0
100
AcDbSymbolTable
 70
     1
  0
DIMSTYLE
105
27
330
A
100
AcDbSymbolTableRecord
100
AcDbDimStyleTableRecord
  2
ISO-25
 70
     0
  3

  4

  5

  6

  7

 40
1.0
 41
2.5
 42
0.625
 43
3.75
 44
1.25
 45
0.0
 46
0.0
 47
0.0
 48
0.0
140
2.5
141
2.5
142
0.0
143
0.03937007874016
144
1.0
145
0.0
146
1.0
147
0.625
 71
     0
 72
     0
 73
     0
 74
     0
 75
     0
 76
     0
 77
     1
 78
     8
170
     0
171
     3
172
     1
173
     0
174
     0
175
     0
176
     0
177
     0
178
     0
270
     2
271
     2
272
     2
273
     2
274
     3
340
11
275
     0
280
     0
281
     0
282
     0
283
     0
284
     8
285
     0
286
     0
287
     3
288
     0
  0
ENDTAB
  0
TABLE
  2
BLOCK_RECORD
  5
1
330
0
100
AcDbSymbolTable
 70
     1
  0
BLOCK_RECORD
  5
1F
330
1
100
AcDbSymbolTableRecord
100
AcDbBlockTableRecord
  2
*MODEL_SPACE
  0
BLOCK_RECORD
  5
1B
330
1
100
AcDbSymbolTableRecord
100
AcDbBlockTableRecord
  2
*PAPER_SPACE
  0
ENDTAB
  0
ENDSEC
  0
SECTION
  2
BLOCKS
  0
BLOCK
  5
20
330
1F
100
AcDbEntity
  8
0
100
AcDbBlockBegin
  2
*MODEL_SPACE
 70
     0
 10
0.0
 20
0.0
 30
0.0
  3
*MODEL_SPACE
  1

  0
ENDBLK
  5
21
330
1F
100
AcDbEntity
  8
0
100
AcDbBlockEnd
  0
BLOCK
  5
1C
330
1B
100
AcDbEntity
 67
     1
  8
0
100
AcDbBlockBegin
  2
*PAPER_SPACE
  1

  0
ENDBLK
  5
1D
330
1B
100
AcDbEntity
 67
     1
  8
0
100
AcDbBlockEnd
  0
ENDSEC
  0
SECTION
  2
ENTITIES
  0
SPLINE
  5
100
100
AcDbEntity
  8
Logo
 62
7
100
AcDbSpline
 70
8
 71
3
 72
8
 73
4
 74
0
 40
0
 40
0
 40
0
 40
0
 40
1
 40
1
 40
1
 40
1
 10
470.394692
 20
402.646252
 30
0.0
 10
666.585635
 20
402.646252
 30
0.0
 10
827.125381
 20
563.404717
 30
0.0
 10
827.125381
 20
759.376941
 30
0.0
  0
SPLINE
  5
101
100
AcDbEntity
  8
Logo
 62
7
100
AcDbSpline
 70
8
 71
3
 72
8
 73
4
 74
0
 40
0
 40
0
 40
0
 40
0
 40
1
 40
1
 40
1
 40
1
 10
827.125381
 20
759.376941
 30
0.0
 10
827.125381
 20
831.335492
 30
0.0
 10
805.690919
 20
898.263528
 30
0.0
 10
768.946127
 20
954.255592
 30
0.0
  0
SPLINE
  5
102
100
AcDbEntity
  8
Logo
 62
7
100
AcDbSpline
 70
8
 71
3
 72
8
 73
4
 74
0
 40
0
 40
0
 40
0
 40
0
 40
1
 40
1
 40
1
 40
1
 10
768.946127
 20
954.255592
 30
0.0
 10
766.102780
 20
958.629972
 30
0.0
 10
766.540218
 20
964.097947
 30
0.0
 10
770.258441
 20
967.816170
 30
0.0
  0
LWPOLYLINE
  5
103
100
AcDbEntity
  8
Plate
 62
7
100
AcDbPolyline
 90
4
 70
1
 10
2.157722
 20
1217.842290
 30
0.0
 10
1217.842322
 20
1217.842290
 30
0.0
 10
1217.842322
 20
2.157690
 30
0.0
 10
2.157721
 20
2.157690
 30
0.0
  0
SPLINE
  5
104
100
AcDbEntity
  8
Logo
 62
7
100
AcDbSpline
 70
8
 71
3
 72
8
 73
4
 74
0
 40
0
 40
0
 40
0
 40
0
 40
1
 40
1
 40
1
 40
1
 10
879.180503
 20
1076.738232
 30
0.0
 10
883.336164
 20
1080.893893
 30
0.0
 10
883.336164
 20
1087.674182
 30
0.0
 10
879.180503
 20
1092.048562
 30
0.0
  0
LWPOLYLINE
  5
105
100
AcDbEntity
  8
Logo
 62
7
100
AcDbPolyline
 90
2
 70
0
 10
770.258441
 20
967.816170
 30
0.0
 10
879.180503
 20
1076.738232
 30
0.0
  0
SPLINE
  5
106
100
AcDbEntity
  8
Logo
 62
7
100
AcDbSpline
 70
8
 71
3
 72
8
 73
4
 74
0
 40
0
 40
0
 40
0
 40
0
 40
1
 40
1
 40
1
 40
1
 10
802.847572
 20
1168.381493
 30
0.0
 10
798.691911
 20
1172.537154
 30
0.0
 10
791.911622
 20
1172.537154
 30
0.0
 10
787.537242
 20
1168.381493
 30
0.0
  0
LWPOLYLINE
  5
107
100
AcDbEntity
  8
Logo
 62
7
100
AcDbPolyline
 90
2
 70
0
 10
879.180503
 20
1092.048562
 30
0.0
 10
802.847572
 20
1168.381493
 30
0.0
  0
SPLINE
  5
108
100
AcDbEntity
  8
Logo
 62
7
100
AcDbSpline
 70
8
 71
3
 72
8
 73
4
 74
0
 40
0
 40
0
 40
0
 40
0
 40
1
 40
1
 40
1
 40
1
 10
678.615180
 20
1059.459431
 30
0.0
 10
674.896957
 20
1055.741208
 30
0.0
 10
669.428982
 20
1055.303770
 30
0.0
 10
665.054602
 20
1058.147117
 30
0.0
  0
SPLINE
  5
109
100
AcDbEntity
  8
Logo
 62
7
100
AcDbSpline
 70
8
 71
3
 72
8
 73
4
 74
0
 40
0
 40
0
 40
0
 40
0
 40
1
 40
1
 40
1
 40
1
 10
665.054602
 20
1058.147117
 30
0.0
 10
609.062538
 20
1094.891909
 30
0.0
 10
542.134524
 20
1116.326371
 30
0.0
 10
470.175973
 20
1116.326371
 30
0.0
  0
SPLINE
  5
10a
100
AcDbEntity
  8
Logo
 62
7
100
AcDbSpline
 70
8
 71
3
 72
8
 73
4
 74
0
 40
0
 40
0
 40
0
 40
0
 40
1
 40
1
 40
1
 40
1
 10
470.175973
 20
1116.326371
 30
0.0
 10
273.985030
 20
1116.326371
 30
0.0
 10
113.445284
 20
955.567906
 30
0.0
 10
113.445284
 20
759.376941
 30
0.0
  0
SPLINE
  5
10b
100
AcDbEntity
  8
Logo
 62
7
100
AcDbSpline
 70
8
 71
3
 72
8
 73
4
 74
0
 40
0
 40
0
 40
0
 40
0
 40
1
 40
1
 40
1
 40
1
 10
113.445284
 20
759.376941
 30
0.0
 10
113.445284
 20
687.637109
 30
0.0
 10
134.879746
 20
620.709095
 30
0.0
 10
171.624538
 20
564.498312
 30
0.0
  0
SPLINE
  5
10c
100
AcDbEntity
  8
Logo
 62
7
100
AcDbSpline
 70
8
 71
3
 72
8
 73
4
 74
0
 40
0
 40
0
 40
0
 40
0
 40
1
 40
1
 40
1
 40
1
 10
171.624538
 20
564.498312
 30
0.0
 10
174.467885
 20
560.123932
 30
0.0
 10
174.030447
 20
554.655957
 30
0.0
 10
170.312224
 20
550.937734
 30
0.0
  0
LWPOLYLINE
  5
10d
100
AcDbEntity
  8
Logo
 62
7
100
AcDbPolyline
 90
2
 70
0
 10
787.537242
 20
1168.381493
 30
0.0
 10
678.615180
 20
1059.459431
 30
0.0
  0
SPLINE
  5
10e
100
AcDbEntity
  8
Logo
 62
7
100
AcDbSpline
 70
8
 71
3
 72
8
 73
4
 74
0
 40
0
 40
0
 40
0
 40
0
 40
1
 40
1
 40
1
 40
1
 10
58.984253
 20
439.609763
 30
0.0
 10
54.828592
 20
435.454102
 30
0.0
 10
54.828592
 20
428.673813
 30
0.0
 10
58.984253
 20
424.299433
 30
0.0
  0
LWPOLYLINE
  5
10f
100
AcDbEntity
  8
Logo
 62
7
100
AcDbPolyline
 90
2
 70
0
 10
170.312224
 20
550.937734
 30
0.0
 10
58.984253
 20
439.609763
 30
0.0
  0
SPLINE
  5
110
100
AcDbEntity
  8
Logo
 62
7
100
AcDbSpline
 70
8
 71
3
 72
8
 73
4
 74
0
 40
0
 40
0
 40
0
 40
0
 40
1
 40
1
 40
1
 40
1
 10
135.317184
 20
347.966502
 30
0.0
 10
139.472845
 20
343.810841
 30
0.0
 10
146.253134
 20
343.810841
 30
0.0
 10
150.627514
 20
347.966502
 30
0.0
  0
LWPOLYLINE
  5
111
100
AcDbEntity
  8
Logo
 62
7
100
AcDbPolyline
 90
2
 70
0
 10
58.984253
 20
424.299433
 30
0.0
 10
135.317184
 20
347.966502
 30
0.0
  0
SPLINE
  5
112
100
AcDbEntity
  8
Logo
 62
7
100
AcDbSpline
 70
8
 71
3
 72
8
 73
4
 74
0
 40
0
 40
0
 40
0
 40
0
 40
1
 40
1
 40
1
 40
1
 10
261.955485
 20
459.294473
 30
0.0
 10
265.673708
 20
463.012696
 30
0.0
 10
271.141683
 20
463.450134
 30
0.0
 10
275.516063
 20
460.606787
 30
0.0
  0
SPLINE
  5
113
100
AcDbEntity
  8
Logo
 62
7
100
AcDbSpline
 70
8
 71
3
 72
8
 73
4
 74
0
 40
0
 40
0
 40
0
 40
0
 40
1
 40
1
 40
1
 40
1
 10
275.516063
 20
460.606787
 30
0.0
 10
331.726846
 20
424.080714
 30
0.0
 10
398.654860
 20
402.646252
 30
0.0
 10
470.394692
 20
402.646252
 30
0.0
  0
LWPOLYLINE
  5
114
100
AcDbEntity
  8
Logo
 62
7
100
AcDbPolyline
 90
2
 70
0
 10
150.627514
 20
347.966502
 30
0.0
 10
261.955485
 20
459.294473
 30
0.0
  0
SPLINE
  5
115
100
AcDbEntity
  8
Logo
 62
7
100
AcDbSpline
 70
8
 71
3
 72
8
 73
4
 74
0
 40
0
 40
0
 40
0
 40
0
 40
1
 40
1
 40
1
 40
1
 10
696.768857
 20
738.161198
 30
0.0
 10
686.926502
 20
630.332731
 30
0.0
 10
599.657621
 20
542.845131
 30
0.0
 10
491.610435
 20
533.002776
 30
0.0
  0
SPLINE
  5
116
100
AcDbEntity
  8
Logo
 62
7
100
AcDbSpline
 70
8
 71
3
 72
8
 73
4
 74
0
 40
0
 40
0
 40
0
 40
0
 40
1
 40
1
 40
1
 40
1
 10
491.610435
 20
533.002776
 30
0.0
 10
450.272544
 20
529.284553
 30
0.0
 10
410.684405
 20
536.720999
 30
0.0
 10
375.908084
 20
552.468767
 30
0.0
  0
SPLINE
  5
117
100
AcDbEntity
  8
Logo
 62
7
100
AcDbSpline
 70
8
 71
3
 72
8
 73
4
 74
0
 40
0
 40
0
 40
0
 40
0
 40
1
 40
1
 40
1
 40
1
 10
375.908084
 20
552.468767
 30
0.0
 10
368.909076
 20
555.530833
 30
0.0
 10
367.159324
 20
564.717031
 30
0.0
 10
372.627299
 20
569.966287
 30
0.0
  0
LWPOLYLINE
  5
118
100
AcDbEntity
  8
Logo
 62
7
100
AcDbPolyline
 90
1
 70
1
 10
470.394692
 20
402.646252
 30
0.0
  0
SPLINE
  5
119
100
AcDbEntity
  8
Logo
 62
7
100
AcDbSpline
 70
8
 71
3
 72
8
 73
4
 74
0
 40
0
 40
0
 40
0
 40
0
 40
1
 40
1
 40
1
 40
1
 10
659.586627
 20
857.144334
 30
0.0
 10
665.054602
 20
862.612309
 30
0.0
 10
674.022081
 20
860.862557
 30
0.0
 10
677.084147
 20
853.863549
 30
0.0
  0
SPLINE
  5
11a
100
AcDbEntity
  8
Logo
 62
7
100
AcDbSpline
 70
8
 71
3
 72
8
 73
4
 74
0
 40
0
 40
0
 40
0
 40
0
 40
1
 40
1
 40
1
 40
1
 10
677.084147
 20
853.863549
 30
0.0
 10
693.050634
 20
819.087228
 30
0.0
 10
700.487080
 20
779.717808
 30
0.0
 10
696.768857
 20
738.161198
 30
0.0
  0
LWPOLYLINE
  5
11b
100
AcDbEntity
  8
Logo
 62
7
100
AcDbPolyline
 90
2
 70
0
 10
372.627299
 20
569.966287
 30
0.0
 10
659.586627
 20
857.144334
 30
0.0
  0
SPLINE
  5
11c
100
AcDbEntity
  8
Logo
 62
7
100
AcDbSpline
 70
8
 71
3
 72
8
 73
4
 74
0
 40
0
 40
0
 40
0
 40
0
 40
1
 40
1
 40
1
 40
1
 10
244.239246
 20
780.811403
 30
0.0
 10
254.081601
 20
888.639870
 30
0.0
 10
341.350482
 20
976.127492
 30
0.0
 10
449.397668
 20
985.969847
 30
0.0
  0
SPLINE
  5
11d
100
AcDbEntity
  8
Logo
 62
7
100
AcDbSpline
 70
8
 71
3
 72
8
 73
4
 74
0
 40
0
 40
0
 40
0
 40
0
 40
1
 40
1
 40
1
 40
1
 10
449.397668
 20
985.969847
 30
0.0
 10
490.735559
 20
989.688070
 30
0.0
 10
530.323698
 20
982.251624
 30
0.0
 10
565.100019
 20
966.503856
 30
0.0
  0
SPLINE
  5
11e
100
AcDbEntity
  8
Logo
 62
7
100
AcDbSpline
 70
8
 71
3
 72
8
 73
4
 74
0
 40
0
 40
0
 40
0
 40
0
 40
1
 40
1
 40
1
 40
1
 10
565.100019
 20
966.503856
 30
0.0
 10
572.099027
 20
963.441790
 30
0.0
 10
573.848779
 20
954.255592
 30
0.0
 10
568.380804
 20
949.006336
 30
0.0
  0
LWPOLYLINE
  5
11f
100
AcDbEntity
  8
Logo
 62
7
100
AcDbPolyline
 90
1
 70
1
 10
696.768857
 20
738.161198
 30
0.0
  0
SPLINE
  5
120
100
AcDbEntity
  8
Logo
 62
7
100
AcDbSpline
 70
8
 71
3
 72
8
 73
4
 74
0
 40
0
 40
0
 40
0
 40
0
 40
1
 40
1
 40
1
 40
1
 10
281.202757
 20
661.828267
 30
0.0
 10
275.734782
 20
656.360292
 30
0.0
 10
266.767303
 20
658.110044
 30
0.0
 10
263.705237
 20
665.109052
 30
0.0
  0
SPLINE
  5
121
100
AcDbEntity
  8
Logo
 62
7
100
AcDbSpline
 70
8
 71
3
 72
8
 73
4
 74
0
 40
0
 40
0
 40
0
 40
0
 40
1
 40
1
 40
1
 40
1
 10
263.705237
 20
665.109052
 30
0.0
 10
247.738750
 20
699.885373
 30
0.0
 10
240.302304
 20
739.254793
 30
0.0
 10
244.239246
 20
780.811403
 30
0.0
  0
LWPOLYLINE
  5
122
100
AcDbEntity
  8
Logo
 62
7
100
AcDbPolyline
 90
2
 70
0
 10
568.380804
 20
949.006336
 30
0.0
 10
281.202757
 20
661.828267
 30
0.0
  0
LWPOLYLINE
  5
123
100
AcDbEntity
  8
Logo
 62
7
100
AcDbPolyline
 90
1
 70
1
 10
244.239246
 20
780.811403
 30
0.0
  0
SPLINE
  5
124
100
AcDbEntity
  8
Logo
 62
7
100
AcDbSpline
 70
8
 71
3
 72
8
 73
4
 74
0
 40
0
 40
0
 40
0
 40
0
 40
1
 40
1
 40
1
 40
1
 10
1396.013500
 20
1008.279185
 30
0.0
 10
1391.857839
 20
1012.434846
 30
0.0
 10
1385.077550
 20
1012.434846
 30
0.0
 10
1380.703170
 20
1008.279185
 30
0.0
  0
LWPOLYLINE
  5
125
100
AcDbEntity
  8
Logo
 62
7
100
AcDbPolyline
 90
2
 70
0
 10
1472.127712
 20
931.727535
 30
0.0
 10
1396.013500
 20
1008.279185
 30
0.0
  0
SPLINE
  5
126
100
AcDbEntity
  8
Logo
 62
7
100
AcDbSpline
 70
8
 71
3
 72
8
 73
4
 74
0
 40
0
 40
0
 40
0
 40
0
 40
1
 40
1
 40
1
 40
1
 10
1180.137847
 20
808.807435
 30
0.0
 10
1175.982186
 20
804.651774
 30
0.0
 10
1169.201897
 20
804.651774
 30
0.0
 10
1164.827517
 20
808.807435
 30
0.0
  0
LWPOLYLINE
  5
127
100
AcDbEntity
  8
Logo
 62
7
100
AcDbPolyline
 90
2
 70
0
 10
1380.703170
 20
1008.279185
 30
0.0
 10
1180.137847
 20
808.807435
 30
0.0
  0
SPLINE
  5
128
100
AcDbEntity
  8
Logo
 62
7
100
AcDbSpline
 70
8
 71
3
 72
8
 73
4
 74
0
 40
0
 40
0
 40
0
 40
0
 40
1
 40
1
 40
1
 40
1
 10
971.261202
 20
1002.373772
 30
0.0
 10
967.105541
 20
1006.529433
 30
0.0
 10
960.325252
 20
1006.529433
 30
0.0
 10
955.950872
 20
1002.373772
 30
0.0
  0
LWPOLYLINE
  5
129
100
AcDbEntity
  8
Logo
 62
7
100
AcDbPolyline
 90
2
 70
0
 10
1164.827517
 20
808.807435
 30
0.0
 10
971.261202
 20
1002.373772
 30
0.0
  0
SPLINE
  5
12a
100
AcDbEntity
  8
Logo
 62
7
100
AcDbSpline
 70
8
 71
3
 72
8
 73
4
 74
0
 40
0
 40
0
 40
0
 40
0
 40
1
 40
1
 40
1
 40
1
 10
879.617941
 20
926.040841
 30
0.0
 10
875.462280
 20
921.885180
 30
0.0
 10
875.462280
 20
915.104891
 30
0.0
 10
879.617941
 20
910.730511
 30
0.0
  0
LWPOLYLINE
  5
12b
100
AcDbEntity
  8
Logo
 62
7
100
AcDbPolyline
 90
2
 70
0
 10
955.950872
 20
1002.373772
 30
0.0
 10
879.617941
 20
926.040841
 30
0.0
  0
SPLINE
  5
12c
100
AcDbEntity
  8
Logo
 62
7
100
AcDbSpline
 70
8
 71
3
 72
8
 73
4
 74
0
 40
0
 40
0
 40
0
 40
0
 40
1
 40
1
 40
1
 40
1
 10
1072.746818
 20
717.601612
 30
0.0
 10
1076.902479
 20
713.445951
 30
0.0
 10
1076.902479
 20
706.446943
 30
0.0
 10
1072.746818
 20
702.291282
 30
0.0
  0
LWPOLYLINE
  5
12d
100
AcDbEntity
  8
Logo
 62
7
100
AcDbPolyline
 90
2
 70
0
 10
879.617941
 20
910.730511
 30
0.0
 10
1072.746818
 20
717.601612
 30
0.0
  0
SPLINE
  5
12e
100
AcDbEntity
  8
Logo
 62
7
100
AcDbSpline
 70
8
 71
3
 72
8
 73
4
 74
0
 40
0
 40
0
 40
0
 40
0
 40
1
 40
1
 40
1
 40
1
 10
434.087338
 20
66.475105
 30
0.0
 10
429.931677
 20
62.319444
 30
0.0
 10
429.931677
 20
55.539155
 30
0.0
 10
434.087338
 20
51.164775
 30
0.0
  0
LWPOLYLINE
  5
12f
100
AcDbEntity
  8
Logo
 62
7
100
AcDbPolyline
 90
2
 70
0
 10
1072.746818
 20
702.291282
 30
0.0
 10
434.087338
 20
66.475105
 30
0.0
  0
SPLINE
  5
130
100
AcDbEntity
  8
Logo
 62
7
100
AcDbSpline
 70
8
 71
3
 72
8
 73
4
 74
0
 40
0
 40
0
 40
0
 40
0
 40
1
 40
1
 40
1
 40
1
 10
510.201550
 20
-25.386875
 30
0.0
 10
514.357211
 20
-29.542536
 30
0.0
 10
521.137500
 20
-29.542536
 30
0.0
 10
525.511880
 20
-25.386875
 30
0.0
  0
LWPOLYLINE
  5
131
100
AcDbEntity
  8
Logo
 62
7
100
AcDbPolyline
 90
2
 70
0
 10
434.087338
 20
51.164775
 30
0.0
 10
510.201550
 20
-25.386875
 30
0.0
  0
SPLINE
  5
132
100
AcDbEntity
  8
Logo
 62
7
100
AcDbSpline
 70
8
 71
3
 72
8
 73
4
 74
0
 40
0
 40
0
 40
0
 40
0
 40
1
 40
1
 40
1
 40
1
 10
1172.482682
 20
618.084467
 30
0.0
 10
1199.983753
 20
645.436787
 30
0.0
 10
1249.040018
 20
694.284876
 30
0.0
 10
1264.344662
 20
709.509009
 30
0.0
  0
LWPOLYLINE
  5
133
100
AcDbEntity
  8
Logo
 62
7
100
AcDbPolyline
 90
2
 70
0
 10
525.511880
 20
-25.386875
 30
0.0
 10
1172.482682
 20
618.084467
 30
0.0
  0
SPLINE
  5
134
100
AcDbEntity
  8
Logo
 62
7
100
AcDbSpline
 70
8
 71
3
 72
8
 73
4
 74
0
 40
0
 40
0
 40
0
 40
0
 40
1
 40
1
 40
1
 40
1
 10
1472.346431
 20
916.417205
 30
0.0
 10
1476.283373
 20
920.791585
 30
0.0
 10
1476.283373
 20
927.571874
 30
0.0
 10
1472.127712
 20
931.727535
 30
0.0
  0
LWPOLYLINE
  5
135
100
AcDbEntity
  8
Logo
 62
7
100
AcDbPolyline
 90
2
 70
0
 10
1264.344662
 20
709.509009
 30
0.0
 10
1472.346431
 20
916.417205
 30
0.0
  0
LWPOLYLINE
  5
136
100
AcDbEntity
  8
Logo
 62
7
100
AcDbPolyline
 90
1
 70
1
 10
1472.127712
 20
931.727535
 30
0.0
  0
SPLINE
  5
137
100
AcDbEntity
  8
Logo
 62
7
100
AcDbSpline
 70
8
 71
3
 72
8
 73
4
 74
0
 40
0
 40
0
 40
0
 40
0
 40
1
 40
1
 40
1
 40
1
 10
819.684570
 20
89.443200
 30
0.0
 10
819.247132
 20
89.880638
 30
0.0
 10
819.247132
 20
90.536795
 30
0.0
 10
819.684570
 20
90.974233
 30
0.0
  0
LWPOLYLINE
  5
138
100
AcDbEntity
  8
Logo
 62
7
100
AcDbPolyline
 90
2
 70
0
 10
937.136673
 20
-28.008903
 30
0.0
 10
819.684570
 20
89.443200
 30
0.0
  0
SPLINE
  5
139
100
AcDbEntity
  8
Logo
 62
7
100
AcDbSpline
 70
8
 71
3
 72
8
 73
4
 74
0
 40
0
 40
0
 40
0
 40
0
 40
1
 40
1
 40
1
 40
1
 10
901.048038
 20
172.337701
 30
0.0
 10
901.485476
 20
172.775139
 30
0.0
 10
902.141633
 20
172.775139
 30
0.0
 10
902.579071
 20
172.337701
 30
0.0
  0
LWPOLYLINE
  5
13a
100
AcDbEntity
  8
Logo
 62
7
100
AcDbPolyline
 90
2
 70
0
 10
819.684570
 20
90.974233
 30
0.0
 10
901.048038
 20
172.337701
 30
0.0
  0
SPLINE
  5
13b
100
AcDbEntity
  8
Logo
 62
7
100
AcDbSpline
 70
8
 71
3
 72
8
 73
4
 74
0
 40
0
 40
0
 40
0
 40
0
 40
1
 40
1
 40
1
 40
1
 10
925.544566
 20
149.372206
 30
0.0
 10
925.982004
 20
148.934768
 30
0.0
 10
925.982004
 20
148.278611
 30
0.0
 10
925.544566
 20
147.841173
 30
0.0
  0
LWPOLYLINE
  5
13c
100
AcDbEntity
  8
Logo
 62
7
100
AcDbPolyline
 90
2
 70
0
 10
902.579071
 20
172.337701
 30
0.0
 10
925.544566
 20
149.372206
 30
0.0
  0
SPLINE
  5
13d
100
AcDbEntity
  8
Logo
 62
7
100
AcDbSpline
 70
8
 71
3
 72
8
 73
4
 74
0
 40
0
 40
0
 40
0
 40
0
 40
1
 40
1
 40
1
 40
1
 10
869.989940
 20
92.286547
 30
0.0
 10
869.552502
 20
91.849109
 30
0.0
 10
869.552502
 20
91.192952
 30
0.0
 10
869.989940
 20
90.755514
 30
0.0
  0
LWPOLYLINE
  5
13e
100
AcDbEntity
  8
Logo
 62
7
100
AcDbPolyline
 90
2
 70
0
 10
925.544566
 20
147.841173
 30
0.0
 10
869.989940
 20
92.286547
 30
0.0
  0
SPLINE
  5
13f
100
AcDbEntity
  8
Logo
 62
7
100
AcDbSpline
 70
8
 71
3
 72
8
 73
4
 74
0
 40
0
 40
0
 40
0
 40
0
 40
1
 40
1
 40
1
 40
1
 10
889.455931
 20
71.289523
 30
0.0
 10
889.893369
 20
70.852085
 30
0.0
 10
890.549526
 20
70.852085
 30
0.0
 10
890.986964
 20
71.289523
 30
0.0
  0
LWPOLYLINE
  5
140
100
AcDbEntity
  8
Logo
 62
7
100
AcDbPolyline
 90
2
 70
0
 10
869.989940
 20
90.755514
 30
0.0
 10
889.455931
 20
71.289523
 30
0.0
  0
SPLINE
  5
141
100
AcDbEntity
  8
Logo
 62
7
100
AcDbSpline
 70
8
 71
3
 72
8
 73
4
 74
0
 40
0
 40
0
 40
0
 40
0
 40
1
 40
1
 40
1
 40
1
 10
925.325847
 20
105.628406
 30
0.0
 10
925.763285
 20
106.065844
 30
0.0
 10
926.419442
 20
106.065844
 30
0.0
 10
926.856880
 20
105.628406
 30
0.0
  0
LWPOLYLINE
  5
142
100
AcDbEntity
  8
Logo
 62
7
100
AcDbPolyline
 90
2
 70
0
 10
890.986964
 20
71.289523
 30
0.0
 10
925.325847
 20
105.628406
 30
0.0
  0
SPLINE
  5
143
100
AcDbEntity
  8
Logo
 62
7
100
AcDbSpline
 70
8
 71
3
 72
8
 73
4
 74
0
 40
0
 40
0
 40
0
 40
0
 40
1
 40
1
 40
1
 40
1
 10
949.822375
 20
82.662911
 30
0.0
 10
950.259813
 20
82.225473
 30
0.0
 10
950.259813
 20
81.569316
 30
0.0
 10
949.822375
 20
81.131878
 30
0.0
  0
LWPOLYLINE
  5
144
100
AcDbEntity
  8
Logo
 62
7
100
AcDbPolyline
 90
2
 70
0
 10
926.856880
 20
105.628406
 30
0.0
 10
949.822375
 20
82.662911
 30
0.0
  0
SPLINE
  5
145
100
AcDbEntity
  8
Logo
 62
7
100
AcDbSpline
 70
8
 71
3
 72
8
 73
4
 74
0
 40
0
 40
0
 40
0
 40
0
 40
1
 40
1
 40
1
 40
1
 10
915.483492
 20
46.792995
 30
0.0
 10
915.046054
 20
46.355557
 30
0.0
 10
915.046054
 20
45.699400
 30
0.0
 10
915.483492
 20
45.261962
 30
0.0
  0
LWPOLYLINE
  5
146
100
AcDbEntity
  8
Logo
 62
7
100
AcDbPolyline
 90
2
 70
0
 10
949.822375
 20
81.131878
 30
0.0
 10
915.483492
 20
46.792995
 30
0.0
  0
SPLINE
  5
147
100
AcDbEntity
  8
Logo
 62
7
100
AcDbSpline
 70
8
 71
3
 72
8
 73
4
 74
0
 40
0
 40
0
 40
0
 40
0
 40
1
 40
1
 40
1
 40
1
 10
962.945515
 20
-2.200061
 30
0.0
 10
963.382953
 20
-2.637499
 30
0.0
 10
963.382953
 20
-3.293656
 30
0.0
 10
962.945515
 20
-3.731094
 30
0.0
  0
LWPOLYLINE
  5
148
100
AcDbEntity
  8
Logo
 62
7
100
AcDbPolyline
 90
2
 70
0
 10
915.483492
 20
45.261962
 30
0.0
 10
962.945515
 20
-2.200061
 30
0.0
  0
SPLINE
  5
149
100
AcDbEntity
  8
Logo
 62
7
100
AcDbSpline
 70
8
 71
3
 72
8
 73
4
 74
0
 40
0
 40
0
 40
0
 40
0
 40
1
 40
1
 40
1
 40
1
 10
938.667706
 20
-28.008903
 30
0.0
 10
938.230268
 20
-28.446341
 30
0.0
 10
937.574111
 20
-28.446341
 30
0.0
 10
937.136673
 20
-28.008903
 30
0.0
  0
LWPOLYLINE
  5
14a
100
AcDbEntity
  8
Logo
 62
7
100
AcDbPolyline
 90
2
 70
0
 10
962.945515
 20
-3.731094
 30
0.0
 10
938.667706
 20
-28.008903
 30
0.0
  0
LWPOLYLINE
  5
14b
100
AcDbEntity
  8
Logo
 62
7
100
AcDbPolyline
 90
1
 70
1
 10
937.136673
 20
-28.008903
 30
0.0
  0
SPLINE
  5
14c
100
AcDbEntity
  8
Logo
 62
7
100
AcDbSpline
 70
8
 71
3
 72
8
 73
4
 74
0
 40
0
 40
0
 40
0
 40
0
 40
1
 40
1
 40
1
 40
1
 10
926.856880
 20
196.615510
 30
0.0
 10
926.419442
 20
197.052948
 30
0.0
 10
926.419442
 20
197.709105
 30
0.0
 10
926.856880
 20
198.146543
 30
0.0
  0
LWPOLYLINE
  5
14d
100
AcDbEntity
  8
Logo
 62
7
100
AcDbPolyline
 90
2
 70
0
 10
1044.308983
 20
79.163407
 30
0.0
 10
926.856880
 20
196.615510
 30
0.0
  0
SPLINE
  5
14e
100
AcDbEntity
  8
Logo
 62
7
100
AcDbSpline
 70
8
 71
3
 72
8
 73
4
 74
0
 40
0
 40
0
 40
0
 40
0
 40
1
 40
1
 40
1
 40
1
 10
1010.844976
 20
282.134639
 30
0.0
 10
1011.282414
 20
282.572077
 30
0.0
 10
1011.938571
 20
282.572077
 30
0.0
 10
1012.376009
 20
282.134639
 30
0.0
  0
LWPOLYLINE
  5
14f
100
AcDbEntity
  8
Logo
 62
7
100
AcDbPolyline
 90
2
 70
0
 10
926.856880
 20
198.146543
 30
0.0
 10
1010.844976
 20
282.134639
 30
0.0
  0
SPLINE
  5
150
100
AcDbEntity
  8
Logo
 62
7
100
AcDbSpline
 70
8
 71
3
 72
8
 73
4
 74
0
 40
0
 40
0
 40
0
 40
0
 40
1
 40
1
 40
1
 40
1
 10
1035.341504
 20
259.169144
 30
0.0
 10
1035.778942
 20
258.731706
 30
0.0
 10
1035.778942
 20
258.075549
 30
0.0
 10
1035.341504
 20
257.638111
 30
0.0
  0
LWPOLYLINE
  5
151
100
AcDbEntity
  8
Logo
 62
7
100
AcDbPolyline
 90
2
 70
0
 10
1012.376009
 20
282.134639
 30
0.0
 10
1035.341504
 20
259.169144
 30
0.0
  0
SPLINE
  5
152
100
AcDbEntity
  8
Logo
 62
7
100
AcDbSpline
 70
8
 71
3
 72
8
 73
4
 74
0
 40
0
 40
0
 40
0
 40
0
 40
1
 40
1
 40
1
 40
1
 10
977.162250
 20
199.458857
 30
0.0
 10
976.724812
 20
199.021419
 30
0.0
 10
976.724812
 20
198.365262
 30
0.0
 10
977.162250
 20
197.927824
 30
0.0
  0
LWPOLYLINE
  5
153
100
AcDbEntity
  8
Logo
 62
7
100
AcDbPolyline
 90
2
 70
0
 10
1035.341504
 20
257.638111
 30
0.0
 10
977.162250
 20
199.458857
 30
0.0
  0
SPLINE
  5
154
100
AcDbEntity
  8
Logo
 62
7
100
AcDbSpline
 70
8
 71
3
 72
8
 73
4
 74
0
 40
0
 40
0
 40
0
 40
0
 40
1
 40
1
 40
1
 40
1
 10
996.628241
 20
178.461833
 30
0.0
 10
997.065679
 20
178.024395
 30
0.0
 10
997.721836
 20
178.024395
 30
0.0
 10
998.159274
 20
178.461833
 30
0.0
  0
LWPOLYLINE
  5
155
100
AcDbEntity
  8
Logo
 62
7
100
AcDbPolyline
 90
2
 70
0
 10
977.162250
 20
197.927824
 30
0.0
 10
996.628241
 20
178.461833
 30
0.0
  0
SPLINE
  5
156
100
AcDbEntity
  8
Logo
 62
7
100
AcDbSpline
 70
8
 71
3
 72
8
 73
4
 74
0
 40
0
 40
0
 40
0
 40
0
 40
1
 40
1
 40
1
 40
1
 10
1029.873529
 20
210.176088
 30
0.0
 10
1030.310967
 20
210.613526
 30
0.0
 10
1030.967124
 20
210.613526
 30
0.0
 10
1031.404562
 20
210.176088
 30
0.0
  0
LWPOLYLINE
  5
157
100
AcDbEntity
  8
Logo
 62
7
100
AcDbPolyline
 90
2
 70
0
 10
998.159274
 20
178.461833
 30
0.0
 10
1029.873529
 20
210.176088
 30
0.0
  0
SPLINE
  5
158
100
AcDbEntity
  8
Logo
 62
7
100
AcDbSpline
 70
8
 71
3
 72
8
 73
4
 74
0
 40
0
 40
0
 40
0
 40
0
 40
1
 40
1
 40
1
 40
1
 10
1054.370057
 20
187.210593
 30
0.0
 10
1054.807495
 20
186.773155
 30
0.0
 10
1054.807495
 20
186.116998
 30
0.0
 10
1054.370057
 20
185.679560
 30
0.0
  0
LWPOLYLINE
  5
159
100
AcDbEntity
  8
Logo
 62
7
100
AcDbPolyline
 90
2
 70
0
 10
1031.404562
 20
210.176088
 30
0.0
 10
1054.370057
 20
187.210593
 30
0.0
  0
SPLINE
  5
15a
100
AcDbEntity
  8
Logo
 62
7
100
AcDbSpline
 70
8
 71
3
 72
8
 73
4
 74
0
 40
0
 40
0
 40
0
 40
0
 40
1
 40
1
 40
1
 40
1
 10
1022.655802
 20
153.965305
 30
0.0
 10
1022.218364
 20
153.527867
 30
0.0
 10
1022.218364
 20
152.871710
 30
0.0
 10
1022.655802
 20
152.434272
 30
0.0
  0
LWPOLYLINE
  5
15b
100
AcDbEntity
  8
Logo
 62
7
100
AcDbPolyline
 90
2
 70
0
 10
1054.370057
 20
185.679560
 30
0.0
 10
1022.655802
 20
153.965305
 30
0.0
  0
SPLINE
  5
15c
100
AcDbEntity
  8
Logo
 62
7
100
AcDbSpline
 70
8
 71
3
 72
8
 73
4
 74
0
 40
0
 40
0
 40
0
 40
0
 40
1
 40
1
 40
1
 40
1
 10
1045.621297
 20
129.468777
 30
0.0
 10
1046.058735
 20
129.031339
 30
0.0
 10
1046.714892
 20
129.031339
 30
0.0
 10
1047.152330
 20
129.468777
 30
0.0
  0
LWPOLYLINE
  5
15d
100
AcDbEntity
  8
Logo
 62
7
100
AcDbPolyline
 90
2
 70
0
 10
1022.655802
 20
152.434272
 30
0.0
 10
1045.621297
 20
129.468777
 30
0.0
  0
SPLINE
  5
15e
100
AcDbEntity
  8
Logo
 62
7
100
AcDbSpline
 70
8
 71
3
 72
8
 73
4
 74
0
 40
0
 40
0
 40
0
 40
0
 40
1
 40
1
 40
1
 40
1
 10
1108.612369
 20
190.928816
 30
0.0
 10
1109.049807
 20
191.366254
 30
0.0
 10
1109.705964
 20
191.366254
 30
0.0
 10
1110.143402
 20
190.928816
 30
0.0
  0
LWPOLYLINE
  5
15f
100
AcDbEntity
  8
Logo
 62
7
100
AcDbPolyline
 90
2
 70
0
 10
1047.152330
 20
129.468777
 30
0.0
 10
1108.612369
 20
190.928816
 30
0.0
  0
SPLINE
  5
160
100
AcDbEntity
  8
Logo
 62
7
100
AcDbSpline
 70
8
 71
3
 72
8
 73
4
 74
0
 40
0
 40
0
 40
0
 40
0
 40
1
 40
1
 40
1
 40
1
 10
1133.327616
 20
167.744602
 30
0.0
 10
1133.765054
 20
167.307164
 30
0.0
 10
1133.765054
 20
166.651007
 30
0.0
 10
1133.327616
 20
166.213569
 30
0.0
  0
LWPOLYLINE
  5
161
100
AcDbEntity
  8
Logo
 62
7
100
AcDbPolyline
 90
2
 70
0
 10
1110.143402
 20
190.928816
 30
0.0
 10
1133.327616
 20
167.744602
 30
0.0
  0
SPLINE
  5
162
100
AcDbEntity
  8
Logo
 62
7
100
AcDbSpline
 70
8
 71
3
 72
8
 73
4
 74
0
 40
0
 40
0
 40
0
 40
0
 40
1
 40
1
 40
1
 40
1
 10
1046.058735
 20
78.944688
 30
0.0
 10
1045.402578
 20
78.725969
 30
0.0
 10
1044.746421
 20
78.725969
 30
0.0
 10
1044.308983
 20
79.163407
 30
0.0
  0
LWPOLYLINE
  5
163
100
AcDbEntity
  8
Logo
 62
7
100
AcDbPolyline
 90
2
 70
0
 10
1133.327616
 20
166.213569
 30
0.0
 10
1046.058735
 20
78.944688
 30
0.0
  0
SPLINE
  5
164
100
AcDbEntity
  8
Logo
 62
7
100
AcDbSpline
 70
8
 71
3
 72
8
 73
4
 74
0
 40
0
 40
0
 40
0
 40
0
 40
1
 40
1
 40
1
 40
1
 10
1204.848729
 20
233.797740
 30
0.0
 10
1193.256622
 20
222.205633
 30
0.0
 10
1180.352201
 20
215.425344
 30
0.0
 10
1165.698028
 20
213.238154
 30
0.0
  0
SPLINE
  5
165
100
AcDbEntity
  8
Logo
 62
7
100
AcDbSpline
 70
8
 71
3
 72
8
 73
4
 74
0
 40
0
 40
0
 40
0
 40
0
 40
1
 40
1
 40
1
 40
1
 10
1165.698028
 20
213.238154
 30
0.0
 10
1151.481293
 20
211.050964
 30
0.0
 10
1137.264558
 20
213.456873
 30
0.0
 10
1123.266542
 20
220.455881
 30
0.0
  0
SPLINE
  5
166
100
AcDbEntity
  8
Logo
 62
7
100
AcDbSpline
 70
8
 71
3
 72
8
 73
4
 74
0
 40
0
 40
0
 40
0
 40
0
 40
1
 40
1
 40
1
 40
1
 10
1123.266542
 20
220.455881
 30
0.0
 10
1122.829104
 20
220.674600
 30
0.0
 10
1122.391666
 20
221.330757
 30
0.0
 10
1122.829104
 20
221.986914
 30
0.0
  0
LWPOLYLINE
  5
167
100
AcDbEntity
  8
Logo
 62
7
100
AcDbPolyline
 90
1
 70
1
 10
1044.308983
 20
79.163407
 30
0.0
  0
SPLINE
  5
168
100
AcDbEntity
  8
Logo
 62
7
100
AcDbSpline
 70
8
 71
3
 72
8
 73
4
 74
0
 40
0
 40
0
 40
0
 40
0
 40
1
 40
1
 40
1
 40
1
 10
1136.389682
 20
251.951417
 30
0.0
 10
1136.608401
 20
252.388855
 30
0.0
 10
1137.264558
 20
252.607574
 30
0.0
 10
1137.701996
 20
252.388855
 30
0.0
  0
SPLINE
  5
169
100
AcDbEntity
  8
Logo
 62
7
100
AcDbSpline
 70
8
 71
3
 72
8
 73
4
 74
0
 40
0
 40
0
 40
0
 40
0
 40
1
 40
1
 40
1
 40
1
 10
1137.701996
 20
252.388855
 30
0.0
 10
1145.794599
 20
249.545508
 30
0.0
 10
1153.668483
 20
248.670632
 30
0.0
 10
1161.323648
 20
249.545508
 30
0.0
  0
SPLINE
  5
16a
100
AcDbEntity
  8
Logo
 62
7
100
AcDbSpline
 70
8
 71
3
 72
8
 73
4
 74
0
 40
0
 40
0
 40
0
 40
0
 40
1
 40
1
 40
1
 40
1
 10
1161.323648
 20
249.545508
 30
0.0
 10
1169.197532
 20
250.420384
 30
0.0
 10
1175.759102
 20
253.701169
 30
0.0
 10
1181.008358
 20
258.950425
 30
0.0
  0
SPLINE
  5
16b
100
AcDbEntity
  8
Logo
 62
7
100
AcDbSpline
 70
8
 71
3
 72
8
 73
4
 74
0
 40
0
 40
0
 40
0
 40
0
 40
1
 40
1
 40
1
 40
1
 10
1181.008358
 20
258.950425
 30
0.0
 10
1186.476333
 20
264.418400
 30
0.0
 10
1189.757118
 20
269.886375
 30
0.0
 10
1190.850713
 20
275.135631
 30
0.0
  0
SPLINE
  5
16c
100
AcDbEntity
  8
Logo
 62
7
100
AcDbSpline
 70
8
 71
3
 72
8
 73
4
 74
0
 40
0
 40
0
 40
0
 40
0
 40
1
 40
1
 40
1
 40
1
 10
1190.850713
 20
275.135631
 30
0.0
 10
1191.944308
 20
280.384887
 30
0.0
 10
1190.413275
 20
284.977986
 30
0.0
 10
1186.476333
 20
288.914928
 30
0.0
  0
SPLINE
  5
16d
100
AcDbEntity
  8
Logo
 62
7
100
AcDbSpline
 70
8
 71
3
 72
8
 73
4
 74
0
 40
0
 40
0
 40
0
 40
0
 40
1
 40
1
 40
1
 40
1
 10
1186.476333
 20
288.914928
 30
0.0
 10
1183.851705
 20
291.539556
 30
0.0
 10
1180.352201
 20
292.633151
 30
0.0
 10
1175.977821
 20
292.414432
 30
0.0
  0
SPLINE
  5
16e
100
AcDbEntity
  8
Logo
 62
7
100
AcDbSpline
 70
8
 71
3
 72
8
 73
4
 74
0
 40
0
 40
0
 40
0
 40
0
 40
1
 40
1
 40
1
 40
1
 10
1175.977821
 20
292.414432
 30
0.0
 10
1171.603441
 20
292.195713
 30
0.0
 10
1167.666499
 20
291.102118
 30
0.0
 10
1164.166995
 20
289.571085
 30
0.0
  0
SPLINE
  5
16f
100
AcDbEntity
  8
Logo
 62
7
100
AcDbSpline
 70
8
 71
3
 72
8
 73
4
 74
0
 40
0
 40
0
 40
0
 40
0
 40
1
 40
1
 40
1
 40
1
 10
1164.166995
 20
289.571085
 30
0.0
 10
1160.667491
 20
288.040052
 30
0.0
 10
1155.418235
 20
285.415424
 30
0.0
 10
1148.419227
 20
281.697201
 30
0.0
  0
SPLINE
  5
170
100
AcDbEntity
  8
Logo
 62
7
100
AcDbSpline
 70
8
 71
3
 72
8
 73
4
 74
0
 40
0
 40
0
 40
0
 40
0
 40
1
 40
1
 40
1
 40
1
 10
1148.419227
 20
281.697201
 30
0.0
 10
1143.826128
 20
279.291292
 30
0.0
 10
1140.326624
 20
277.541540
 30
0.0
 10
1137.920715
 20
276.447945
 30
0.0
  0
SPLINE
  5
171
100
AcDbEntity
  8
Logo
 62
7
100
AcDbSpline
 70
8
 71
3
 72
8
 73
4
 74
0
 40
0
 40
0
 40
0
 40
0
 40
1
 40
1
 40
1
 40
1
 10
1137.920715
 20
276.447945
 30
0.0
 10
1135.514806
 20
275.354350
 30
0.0
 10
1132.015302
 20
273.823317
 30
0.0
 10
1127.422203
 20
271.854846
 30
0.0
  0
SPLINE
  5
172
100
AcDbEntity
  8
Logo
 62
7
100
AcDbSpline
 70
8
 71
3
 72
8
 73
4
 74
0
 40
0
 40
0
 40
0
 40
0
 40
1
 40
1
 40
1
 40
1
 10
1127.422203
 20
271.854846
 30
0.0
 10
1122.829104
 20
269.886375
 30
0.0
 10
1119.110881
 20
268.792780
 30
0.0
 10
1116.267534
 20
268.136623
 30
0.0
  0
SPLINE
  5
173
100
AcDbEntity
  8
Logo
 62
7
100
AcDbSpline
 70
8
 71
3
 72
8
 73
4
 74
0
 40
0
 40
0
 40
0
 40
0
 40
1
 40
1
 40
1
 40
1
 10
1116.267534
 20
268.136623
 30
0.0
 10
1113.424187
 20
267.480466
 30
0.0
 10
1109.924683
 20
267.043028
 30
0.0
 10
1105.550303
 20
266.605590
 30
0.0
  0
SPLINE
  5
174
100
AcDbEntity
  8
Logo
 62
7
100
AcDbSpline
 70
8
 71
3
 72
8
 73
4
 74
0
 40
0
 40
0
 40
0
 40
0
 40
1
 40
1
 40
1
 40
1
 10
1105.550303
 20
266.605590
 30
0.0
 10
1101.175923
 20
266.168152
 30
0.0
 10
1097.457700
 20
266.386871
 30
0.0
 10
1094.176915
 20
267.261747
 30
0.0
  0
SPLINE
  5
175
100
AcDbEntity
  8
Logo
 62
7
100
AcDbSpline
 70
8
 71
3
 72
8
 73
4
 74
0
 40
0
 40
0
 40
0
 40
0
 40
1
 40
1
 40
1
 40
1
 10
1094.176915
 20
267.261747
 30
0.0
 10
1090.896130
 20
268.136623
 30
0.0
 10
1087.396626
 20
269.667656
 30
0.0
 10
1083.459684
 20
271.854846
 30
0.0
  0
SPLINE
  5
176
100
AcDbEntity
  8
Logo
 62
7
100
AcDbSpline
 70
8
 71
3
 72
8
 73
4
 74
0
 40
0
 40
0
 40
0
 40
0
 40
1
 40
1
 40
1
 40
1
 10
1083.459684
 20
271.854846
 30
0.0
 10
1079.522742
 20
274.042036
 30
0.0
 10
1075.804519
 20
276.666664
 30
0.0
 10
1072.523734
 20
280.166168
 30
0.0
  0
SPLINE
  5
177
100
AcDbEntity
  8
Logo
 62
7
100
AcDbSpline
 70
8
 71
3
 72
8
 73
4
 74
0
 40
0
 40
0
 40
0
 40
0
 40
1
 40
1
 40
1
 40
1
 10
1072.523734
 20
280.166168
 30
0.0
 10
1062.900098
 20
289.789804
 30
0.0
 10
1058.744437
 20
301.381911
 30
0.0
 10
1059.838032
 20
315.379927
 30
0.0
  0
SPLINE
  5
178
100
AcDbEntity
  8
Logo
 62
7
100
AcDbSpline
 70
8
 71
3
 72
8
 73
4
 74
0
 40
0
 40
0
 40
0
 40
0
 40
1
 40
1
 40
1
 40
1
 10
1059.838032
 20
315.379927
 30
0.0
 10
1060.931627
 20
329.377943
 30
0.0
 10
1067.711916
 20
342.719802
 30
0.0
 10
1080.616337
 20
355.405504
 30
0.0
  0
SPLINE
  5
179
100
AcDbEntity
  8
Logo
 62
7
100
AcDbSpline
 70
8
 71
3
 72
8
 73
4
 74
0
 40
0
 40
0
 40
0
 40
0
 40
1
 40
1
 40
1
 40
1
 10
1080.616337
 20
355.405504
 30
0.0
 10
1091.333568
 20
366.122735
 30
0.0
 10
1102.925675
 20
372.246867
 30
0.0
 10
1115.830096
 20
373.996619
 30
0.0
  0
SPLINE
  5
17a
100
AcDbEntity
  8
Logo
 62
7
100
AcDbSpline
 70
8
 71
3
 72
8
 73
4
 74
0
 40
0
 40
0
 40
0
 40
0
 40
1
 40
1
 40
1
 40
1
 10
1115.830096
 20
373.996619
 30
0.0
 10
1128.297079
 20
375.527652
 30
0.0
 10
1139.889186
 20
373.559181
 30
0.0
 10
1150.606417
 20
367.653768
 30
0.0
  0
SPLINE
  5
17b
100
AcDbEntity
  8
Logo
 62
7
100
AcDbSpline
 70
8
 71
3
 72
8
 73
4
 74
0
 40
0
 40
0
 40
0
 40
0
 40
1
 40
1
 40
1
 40
1
 10
1150.606417
 20
367.653768
 30
0.0
 10
1151.043855
 20
367.435049
 30
0.0
 10
1151.262574
 20
366.778892
 30
0.0
 10
1151.043855
 20
366.122735
 30
0.0
  0
LWPOLYLINE
  5
17c
100
AcDbEntity
  8
Logo
 62
7
100
AcDbPolyline
 90
2
 70
0
 10
1122.829104
 20
221.986914
 30
0.0
 10
1136.389682
 20
251.951417
 30
0.0
  0
SPLINE
  5
17d
100
AcDbEntity
  8
Logo
 62
7
100
AcDbSpline
 70
8
 71
3
 72
8
 73
4
 74
0
 40
0
 40
0
 40
0
 40
0
 40
1
 40
1
 40
1
 40
1
 10
1136.389682
 20
337.251827
 30
0.0
 10
1136.170963
 20
336.814389
 30
0.0
 10
1135.514806
 20
336.595670
 30
0.0
 10
1135.077368
 20
336.814389
 30
0.0
  0
SPLINE
  5
17e
100
AcDbEntity
  8
Logo
 62
7
100
AcDbSpline
 70
8
 71
3
 72
8
 73
4
 74
0
 40
0
 40
0
 40
0
 40
0
 40
1
 40
1
 40
1
 40
1
 10
1135.077368
 20
336.814389
 30
0.0
 10
1123.266542
 20
341.188769
 30
0.0
 10
1112.768030
 20
338.782860
 30
0.0
 10
1103.800551
 20
329.596662
 30
0.0
  0
SPLINE
  5
17f
100
AcDbEntity
  8
Logo
 62
7
100
AcDbSpline
 70
8
 71
3
 72
8
 73
4
 74
0
 40
0
 40
0
 40
0
 40
0
 40
1
 40
1
 40
1
 40
1
 10
1103.800551
 20
329.596662
 30
0.0
 10
1094.176915
 20
319.973026
 30
0.0
 10
1092.645882
 20
311.880423
 30
0.0
 10
1098.988733
 20
305.537572
 30
0.0
  0
SPLINE
  5
180
100
AcDbEntity
  8
Logo
 62
7
100
AcDbSpline
 70
8
 71
3
 72
8
 73
4
 74
0
 40
0
 40
0
 40
0
 40
0
 40
1
 40
1
 40
1
 40
1
 10
1098.988733
 20
305.537572
 30
0.0
 10
1100.519766
 20
304.006539
 30
0.0
 10
1102.269518
 20
303.131663
 30
0.0
 10
1104.237989
 20
302.912944
 30
0.0
  0
SPLINE
  5
181
100
AcDbEntity
  8
Logo
 62
7
100
AcDbSpline
 70
8
 71
3
 72
8
 73
4
 74
0
 40
0
 40
0
 40
0
 40
0
 40
1
 40
1
 40
1
 40
1
 10
1104.237989
 20
302.912944
 30
0.0
 10
1106.206460
 20
302.694225
 30
0.0
 10
1109.049807
 20
303.131663
 30
0.0
 10
1112.549311
 20
304.443977
 30
0.0
  0
SPLINE
  5
182
100
AcDbEntity
  8
Logo
 62
7
100
AcDbSpline
 70
8
 71
3
 72
8
 73
4
 74
0
 40
0
 40
0
 40
0
 40
0
 40
1
 40
1
 40
1
 40
1
 10
1112.549311
 20
304.443977
 30
0.0
 10
1116.048815
 20
305.756291
 30
0.0
 10
1118.892162
 20
306.849886
 30
0.0
 10
1120.860633
 20
307.724762
 30
0.0
  0
SPLINE
  5
183
100
AcDbEntity
  8
Logo
 62
7
100
AcDbSpline
 70
8
 71
3
 72
8
 73
4
 74
0
 40
0
 40
0
 40
0
 40
0
 40
1
 40
1
 40
1
 40
1
 10
1120.860633
 20
307.724762
 30
0.0
 10
1123.047823
 20
308.599638
 30
0.0
 10
1126.547327
 20
310.349390
 30
0.0
 10
1131.796583
 20
312.974018
 30
0.0
  0
SPLINE
  5
184
100
AcDbEntity
  8
Logo
 62
7
100
AcDbSpline
 70
8
 71
3
 72
8
 73
4
 74
0
 40
0
 40
0
 40
0
 40
0
 40
1
 40
1
 40
1
 40
1
 10
1131.796583
 20
312.974018
 30
0.0
 10
1137.264558
 20
315.598646
 30
0.0
 10
1141.420219
 20
317.785836
 30
0.0
 10
1144.482285
 20
319.098150
 30
0.0
  0
SPLINE
  5
185
100
AcDbEntity
  8
Logo
 62
7
100
AcDbSpline
 70
8
 71
3
 72
8
 73
4
 74
0
 40
0
 40
0
 40
0
 40
0
 40
1
 40
1
 40
1
 40
1
 10
1144.482285
 20
319.098150
 30
0.0
 10
1147.544351
 20
320.629183
 30
0.0
 10
1151.700012
 20
322.378935
 30
0.0
 10
1157.167987
 20
324.566125
 30
0.0
  0
SPLINE
  5
186
100
AcDbEntity
  8
Logo
 62
7
100
AcDbSpline
 70
8
 71
3
 72
8
 73
4
 74
0
 40
0
 40
0
 40
0
 40
0
 40
1
 40
1
 40
1
 40
1
 10
1157.167987
 20
324.566125
 30
0.0
 10
1162.635962
 20
326.753315
 30
0.0
 10
1167.447780
 20
328.065629
 30
0.0
 10
1171.603441
 20
328.284348
 30
0.0
  0
SPLINE
  5
187
100
AcDbEntity
  8
Logo
 62
7
100
AcDbSpline
 70
8
 71
3
 72
8
 73
4
 74
0
 40
0
 40
0
 40
0
 40
0
 40
1
 40
1
 40
1
 40
1
 10
1171.603441
 20
328.284348
 30
0.0
 10
1175.759102
 20
328.721786
 30
0.0
 10
1180.133482
 20
328.721786
 30
0.0
 10
1185.164019
 20
328.503067
 30
0.0
  0
SPLINE
  5
188
100
AcDbEntity
  8
Logo
 62
7
100
AcDbSpline
 70
8
 71
3
 72
8
 73
4
 74
0
 40
0
 40
0
 40
0
 40
0
 40
1
 40
1
 40
1
 40
1
 10
1185.164019
 20
328.503067
 30
0.0
 10
1190.194556
 20
328.284348
 30
0.0
 10
1195.006374
 20
326.972034
 30
0.0
 10
1199.599473
 20
324.566125
 30
0.0
  0
SPLINE
  5
189
100
AcDbEntity
  8
Logo
 62
7
100
AcDbSpline
 70
8
 71
3
 72
8
 73
4
 74
0
 40
0
 40
0
 40
0
 40
0
 40
1
 40
1
 40
1
 40
1
 10
1199.599473
 20
324.566125
 30
0.0
 10
1204.192572
 20
322.160216
 30
0.0
 10
1208.566952
 20
318.879431
 30
0.0
 10
1212.722613
 20
314.723770
 30
0.0
  0
SPLINE
  5
18a
100
AcDbEntity
  8
Logo
 62
7
100
AcDbSpline
 70
8
 71
3
 72
8
 73
4
 74
0
 40
0
 40
0
 40
0
 40
0
 40
1
 40
1
 40
1
 40
1
 10
1212.722613
 20
314.723770
 30
0.0
 10
1223.877282
 20
303.569101
 30
0.0
 10
1228.689100
 20
290.445961
 30
0.0
 10
1226.720629
 20
275.573069
 30
0.0
  0
SPLINE
  5
18b
100
AcDbEntity
  8
Logo
 62
7
100
AcDbSpline
 70
8
 71
3
 72
8
 73
4
 74
0
 40
0
 40
0
 40
0
 40
0
 40
1
 40
1
 40
1
 40
1
 10
1226.720629
 20
275.573069
 30
0.0
 10
1224.970877
 20
260.481458
 30
0.0
 10
1217.534431
 20
246.702161
 30
0.0
 10
1204.848729
 20
233.797740
 30
0.0
  0
LWPOLYLINE
  5
18c
100
AcDbEntity
  8
Logo
 62
7
100
AcDbPolyline
 90
2
 70
0
 10
1151.043855
 20
366.122735
 30
0.0
 10
1136.389682
 20
337.251827
 30
0.0
  0
LWPOLYLINE
  5
18d
100
AcDbEntity
  8
Logo
 62
7
100
AcDbPolyline
 90
1
 70
1
 10
1204.848729
 20
233.797740
 30
0.0
  0
SPLINE
  5
18e
100
AcDbEntity
  8
Logo
 62
7
100
AcDbSpline
 70
8
 71
3
 72
8
 73
4
 74
0
 40
0
 40
0
 40
0
 40
0
 40
1
 40
1
 40
1
 40
1
 10
1327.331369
 20
362.185793
 30
0.0
 10
1327.768807
 20
361.748355
 30
0.0
 10
1327.768807
 20
361.092198
 30
0.0
 10
1327.331369
 20
360.654760
 30
0.0
  0
LWPOLYLINE
  5
18f
100
AcDbEntity
  8
Logo
 62
7
100
AcDbPolyline
 90
2
 70
0
 10
1234.813232
 20
454.703930
 30
0.0
 10
1327.331369
 20
362.185793
 30
0.0
  0
SPLINE
  5
190
100
AcDbEntity
  8
Logo
 62
7
100
AcDbSpline
 70
8
 71
3
 72
8
 73
4
 74
0
 40
0
 40
0
 40
0
 40
0
 40
1
 40
1
 40
1
 40
1
 10
1303.053560
 20
336.158232
 30
0.0
 10
1302.616122
 20
335.720794
 30
0.0
 10
1301.959965
 20
335.720794
 30
0.0
 10
1301.522527
 20
336.158232
 30
0.0
  0
LWPOLYLINE
  5
191
100
AcDbEntity
  8
Logo
 62
7
100
AcDbPolyline
 90
2
 70
0
 10
1327.331369
 20
360.654760
 30
0.0
 10
1303.053560
 20
336.158232
 30
0.0
  0
SPLINE
  5
192
100
AcDbEntity
  8
Logo
 62
7
100
AcDbSpline
 70
8
 71
3
 72
8
 73
4
 74
0
 40
0
 40
0
 40
0
 40
0
 40
1
 40
1
 40
1
 40
1
 10
1209.004390
 20
428.895088
 30
0.0
 10
1208.566952
 20
429.332526
 30
0.0
 10
1207.910795
 20
429.332526
 30
0.0
 10
1207.473357
 20
428.895088
 30
0.0
  0
LWPOLYLINE
  5
193
100
AcDbEntity
  8
Logo
 62
7
100
AcDbPolyline
 90
2
 70
0
 10
1301.522527
 20
336.158232
 30
0.0
 10
1209.004390
 20
428.895088
 30
0.0
  0
SPLINE
  5
194
100
AcDbEntity
  8
Logo
 62
7
100
AcDbSpline
 70
8
 71
3
 72
8
 73
4
 74
0
 40
0
 40
0
 40
0
 40
0
 40
1
 40
1
 40
1
 40
1
 10
1174.884226
 20
396.305957
 30
0.0
 10
1174.446788
 20
395.868519
 30
0.0
 10
1173.790631
 20
395.868519
 30
0.0
 10
1173.353193
 20
396.305957
 30
0.0
  0
LWPOLYLINE
  5
195
100
AcDbEntity
  8
Logo
 62
7
100
AcDbPolyline
 90
2
 70
0
 10
1207.473357
 20
428.895088
 30
0.0
 10
1174.884226
 20
396.305957
 30
0.0
  0
SPLINE
  5
196
100
AcDbEntity
  8
Logo
 62
7
100
AcDbSpline
 70
8
 71
3
 72
8
 73
4
 74
0
 40
0
 40
0
 40
0
 40
0
 40
1
 40
1
 40
1
 40
1
 10
1149.950260
 20
419.490171
 30
0.0
 10
1149.512822
 20
419.927609
 30
0.0
 10
1149.512822
 20
420.583766
 30
0.0
 10
1149.950260
 20
421.021204
 30
0.0
  0
LWPOLYLINE
  5
197
100
AcDbEntity
  8
Logo
 62
7
100
AcDbPolyline
 90
2
 70
0
 10
1173.353193
 20
396.305957
 30
0.0
 10
1149.950260
 20
419.490171
 30
0.0
  0
SPLINE
  5
198
100
AcDbEntity
  8
Logo
 62
7
100
AcDbSpline
 70
8
 71
3
 72
8
 73
4
 74
0
 40
0
 40
0
 40
0
 40
0
 40
1
 40
1
 40
1
 40
1
 10
1242.468397
 20
513.539341
 30
0.0
 10
1242.905835
 20
513.976779
 30
0.0
 10
1243.561992
 20
513.976779
 30
0.0
 10
1243.999430
 20
513.539341
 30
0.0
  0
LWPOLYLINE
  5
199
100
AcDbEntity
  8
Logo
 62
7
100
AcDbPolyline
 90
2
 70
0
 10
1149.950260
 20
421.021204
 30
0.0
 10
1242.468397
 20
513.539341
 30
0.0
  0
SPLINE
  5
19a
100
AcDbEntity
  8
Logo
 62
7
100
AcDbSpline
 70
8
 71
3
 72
8
 73
4
 74
0
 40
0
 40
0
 40
0
 40
0
 40
1
 40
1
 40
1
 40
1
 10
1267.183644
 20
490.355127
 30
0.0
 10
1267.621082
 20
489.917689
 30
0.0
 10
1267.621082
 20
489.261532
 30
0.0
 10
1267.183644
 20
488.824094
 30
0.0
  0
LWPOLYLINE
  5
19b
100
AcDbEntity
  8
Logo
 62
7
100
AcDbPolyline
 90
2
 70
0
 10
1243.999430
 20
513.539341
 30
0.0
 10
1267.183644
 20
490.355127
 30
0.0
  0
SPLINE
  5
19c
100
AcDbEntity
  8
Logo
 62
7
100
AcDbSpline
 70
8
 71
3
 72
8
 73
4
 74
0
 40
0
 40
0
 40
0
 40
0
 40
1
 40
1
 40
1
 40
1
 10
1234.594513
 20
456.234963
 30
0.0
 10
1234.375794
 20
455.797525
 30
0.0
 10
1234.375794
 20
455.141368
 30
0.0
 10
1234.813232
 20
454.703930
 30
0.0
  0
LWPOLYLINE
  5
19d
100
AcDbEntity
  8
Logo
 62
7
100
AcDbPolyline
 90
2
 70
0
 10
1267.183644
 20
488.824094
 30
0.0
 10
1234.594513
 20
456.234963
 30
0.0
  0
LWPOLYLINE
  5
19e
100
AcDbEntity
  8
Logo
 62
7
100
AcDbPolyline
 90
1
 70
1
 10
1234.813232
 20
454.703930
 30
0.0
  0
SPLINE
  5
19f
100
AcDbEntity
  8
Logo
 62
7
100
AcDbSpline
 70
8
 71
3
 72
8
 73
4
 74
0
 40
0
 40
0
 40
0
 40
0
 40
1
 40
1
 40
1
 40
1
 10
1271.120586
 20
540.660497
 30
0.0
 10
1270.683148
 20
541.097935
 30
0.0
 10
1270.683148
 20
541.754092
 30
0.0
 10
1271.120586
 20
542.191530
 30
0.0
  0
LWPOLYLINE
  5
1a0
100
AcDbEntity
  8
Logo
 62
7
100
AcDbPolyline
 90
2
 70
0
 10
1388.572689
 20
423.208394
 30
0.0
 10
1271.120586
 20
540.660497
 30
0.0
  0
SPLINE
  5
1a1
100
AcDbEntity
  8
Logo
 62
7
100
AcDbSpline
 70
8
 71
3
 72
8
 73
4
 74
0
 40
0
 40
0
 40
0
 40
0
 40
1
 40
1
 40
1
 40
1
 10
1295.398395
 20
566.469339
 30
0.0
 10
1295.835833
 20
566.906777
 30
0.0
 10
1296.491990
 20
566.906777
 30
0.0
 10
1296.929428
 20
566.469339
 30
0.0
  0
LWPOLYLINE
  5
1a2
100
AcDbEntity
  8
Logo
 62
7
100
AcDbPolyline
 90
2
 70
0
 10
1271.120586
 20
542.191530
 30
0.0
 10
1295.398395
 20
566.469339
 30
0.0
  0
SPLINE
  5
1a3
100
AcDbEntity
  8
Logo
 62
7
100
AcDbSpline
 70
8
 71
3
 72
8
 73
4
 74
0
 40
0
 40
0
 40
0
 40
0
 40
1
 40
1
 40
1
 40
1
 10
1414.381531
 20
449.017236
 30
0.0
 10
1414.818969
 20
448.579798
 30
0.0
 10
1414.818969
 20
447.923641
 30
0.0
 10
1414.381531
 20
447.486203
 30
0.0
  0
LWPOLYLINE
  5
1a4
100
AcDbEntity
  8
Logo
 62
7
100
AcDbPolyline
 90
2
 70
0
 10
1296.929428
 20
566.469339
 30
0.0
 10
1414.381531
 20
449.017236
 30
0.0
  0
SPLINE
  5
1a5
100
AcDbEntity
  8
Logo
 62
7
100
AcDbSpline
 70
8
 71
3
 72
8
 73
4
 74
0
 40
0
 40
0
 40
0
 40
0
 40
1
 40
1
 40
1
 40
1
 10
1390.103722
 20
423.208394
 30
0.0
 10
1389.666284
 20
422.770956
 30
0.0
 10
1389.010127
 20
422.770956
 30
0.0
 10
1388.572689
 20
423.208394
 30
0.0
  0
LWPOLYLINE
  5
1a6
100
AcDbEntity
  8
Logo
 62
7
100
AcDbPolyline
 90
2
 70
0
 10
1414.381531
 20
447.486203
 30
0.0
 10
1390.103722
 20
423.208394
 30
0.0
  0
LWPOLYLINE
  5
1a7
100
AcDbEntity
  8
Logo
 62
7
100
AcDbPolyline
 90
1
 70
1
 10
1388.572689
 20
423.208394
 30
0.0
  0
SPLINE
  5
1a8
100
AcDbEntity
  8
Logo
 62
7
100
AcDbSpline
 70
8
 71
3
 72
8
 73
4
 74
0
 40
0
 40
0
 40
0
 40
0
 40
1
 40
1
 40
1
 40
1
 10
1319.020047
 20
587.685082
 30
0.0
 10
1318.363890
 20
587.903801
 30
0.0
 10
1318.145171
 20
588.997396
 30
0.0
 10
1318.801328
 20
589.434834
 30
0.0
  0
LWPOLYLINE
  5
1a9
100
AcDbEntity
  8
Logo
 62
7
100
AcDbPolyline
 90
2
 70
0
 10
1478.684917
 20
512.664465
 30
0.0
 10
1319.020047
 20
587.685082
 30
0.0
  0
SPLINE
  5
1aa
100
AcDbEntity
  8
Logo
 62
7
100
AcDbSpline
 70
8
 71
3
 72
8
 73
4
 74
0
 40
0
 40
0
 40
0
 40
0
 40
1
 40
1
 40
1
 40
1
 10
1345.266327
 20
615.899833
 30
0.0
 10
1345.485046
 20
616.118552
 30
0.0
 10
1346.141203
 20
616.337271
 30
0.0
 10
1346.578641
 20
616.118552
 30
0.0
  0
LWPOLYLINE
  5
1ab
100
AcDbEntity
  8
Logo
 62
7
100
AcDbPolyline
 90
2
 70
0
 10
1318.801328
 20
589.434834
 30
0.0
 10
1345.266327
 20
615.899833
 30
0.0
  0
SPLINE
  5
1ac
100
AcDbEntity
  8
Logo
 62
7
100
AcDbSpline
 70
8
 71
3
 72
8
 73
4
 74
0
 40
0
 40
0
 40
0
 40
0
 40
1
 40
1
 40
1
 40
1
 10
1446.533224
 20
567.125496
 30
0.0
 10
1447.626819
 20
566.688058
 30
0.0
 10
1449.157852
 20
566.031901
 30
0.0
 10
1450.688885
 20
564.938306
 30
0.0
  0
LWPOLYLINE
  5
1ad
100
AcDbEntity
  8
Logo
 62
7
100
AcDbPolyline
 90
2
 70
0
 10
1346.578641
 20
616.118552
 30
0.0
 10
1446.533224
 20
567.125496
 30
0.0
  0
SPLINE
  5
1ae
100
AcDbEntity
  8
Logo
 62
7
100
AcDbSpline
 70
8
 71
3
 72
8
 73
4
 74
0
 40
0
 40
0
 40
0
 40
0
 40
1
 40
1
 40
1
 40
1
 10
1453.094794
 20
563.625992
 30
0.0
 10
1452.219918
 20
564.938306
 30
0.0
 10
1451.126323
 20
567.125496
 30
0.0
 10
1449.595290
 20
570.187562
 30
0.0
  0
LWPOLYLINE
  5
1af
100
AcDbEntity
  8
Logo
 62
7
100
AcDbPolyline
 90
2
 70
0
 10
1450.688885
 20
564.938306
 30
0.0
 10
1453.094794
 20
563.625992
 30
0.0
  0
SPLINE
  5
1b0
100
AcDbEntity
  8
Logo
 62
7
100
AcDbSpline
 70
8
 71
3
 72
8
 73
4
 74
0
 40
0
 40
0
 40
0
 40
0
 40
1
 40
1
 40
1
 40
1
 10
1400.602234
 20
670.142145
 30
0.0
 10
1400.383515
 20
670.579583
 30
0.0
 10
1400.383515
 20
671.017021
 30
0.0
 10
1400.820953
 20
671.454459
 30
0.0
  0
LWPOLYLINE
  5
1b1
100
AcDbEntity
  8
Logo
 62
7
100
AcDbPolyline
 90
2
 70
0
 10
1449.595290
 20
570.187562
 30
0.0
 10
1400.602234
 20
670.142145
 30
0.0
  0
SPLINE
  5
1b2
100
AcDbEntity
  8
Logo
 62
7
100
AcDbSpline
 70
8
 71
3
 72
8
 73
4
 74
0
 40
0
 40
0
 40
0
 40
0
 40
1
 40
1
 40
1
 40
1
 10
1426.848514
 20
697.482020
 30
0.0
 10
1427.285952
 20
697.919458
 30
0.0
 10
1428.160828
 20
697.919458
 30
0.0
 10
1428.598266
 20
697.263301
 30
0.0
  0
LWPOLYLINE
  5
1b3
100
AcDbEntity
  8
Logo
 62
7
100
AcDbPolyline
 90
2
 70
0
 10
1400.820953
 20
671.454459
 30
0.0
 10
1426.848514
 20
697.482020
 30
0.0
  0
SPLINE
  5
1b4
100
AcDbEntity
  8
Logo
 62
7
100
AcDbSpline
 70
8
 71
3
 72
8
 73
4
 74
0
 40
0
 40
0
 40
0
 40
0
 40
1
 40
1
 40
1
 40
1
 10
1503.837602
 20
537.817150
 30
0.0
 10
1504.056321
 20
537.379712
 30
0.0
 10
1503.837602
 20
536.942274
 30
0.0
 10
1503.618883
 20
536.504836
 30
0.0
  0
LWPOLYLINE
  5
1b5
100
AcDbEntity
  8
Logo
 62
7
100
AcDbPolyline
 90
2
 70
0
 10
1428.598266
 20
697.263301
 30
0.0
 10
1503.837602
 20
537.817150
 30
0.0
  0
SPLINE
  5
1b6
100
AcDbEntity
  8
Logo
 62
7
100
AcDbSpline
 70
8
 71
3
 72
8
 73
4
 74
0
 40
0
 40
0
 40
0
 40
0
 40
1
 40
1
 40
1
 40
1
 10
1479.997231
 20
512.883184
 30
0.0
 10
1479.559793
 20
512.664465
 30
0.0
 10
1479.122355
 20
512.664465
 30
0.0
 10
1478.684917
 20
512.664465
 30
0.0
  0
LWPOLYLINE
  5
1b7
100
AcDbEntity
  8
Logo
 62
7
100
AcDbPolyline
 90
2
 70
0
 10
1503.618883
 20
536.504836
 30
0.0
 10
1479.997231
 20
512.883184
 30
0.0
  0
LWPOLYLINE
  5
1b8
100
AcDbEntity
  8
Logo
 62
7
100
AcDbPolyline
 90
1
 70
1
 10
1478.684917
 20
512.664465
 30
0.0
  0
SPLINE
  5
1b9
100
AcDbEntity
  8
Logo
 62
7
100
AcDbSpline
 70
8
 71
3
 72
8
 73
4
 74
0
 40
0
 40
0
 40
0
 40
0
 40
1
 40
1
 40
1
 40
1
 10
1604.229623
 20
682.827847
 30
0.0
 10
1603.792185
 20
683.046566
 30
0.0
 10
1603.354747
 20
682.827847
 30
0.0
 10
1603.136028
 20
682.609128
 30
0.0
  0
LWPOLYLINE
  5
1ba
100
AcDbEntity
  8
Logo
 62
7
100
AcDbPolyline
 90
2
 70
0
 10
1634.850283
 20
669.048550
 30
0.0
 10
1604.229623
 20
682.827847
 30
0.0
  0
SPLINE
  5
1bb
100
AcDbEntity
  8
Logo
 62
7
100
AcDbSpline
 70
8
 71
3
 72
8
 73
4
 74
0
 40
0
 40
0
 40
0
 40
0
 40
1
 40
1
 40
1
 40
1
 10
1559.610947
 20
639.084047
 30
0.0
 10
1559.392228
 20
638.865328
 30
0.0
 10
1559.173509
 20
638.209171
 30
0.0
 10
1559.392228
 20
637.990452
 30
0.0
  0
LWPOLYLINE
  5
1bc
100
AcDbEntity
  8
Logo
 62
7
100
AcDbPolyline
 90
2
 70
0
 10
1603.136028
 20
682.609128
 30
0.0
 10
1559.610947
 20
639.084047
 30
0.0
  0
SPLINE
  5
1bd
100
AcDbEntity
  8
Logo
 62
7
100
AcDbSpline
 70
8
 71
3
 72
8
 73
4
 74
0
 40
0
 40
0
 40
0
 40
0
 40
1
 40
1
 40
1
 40
1
 10
1573.171525
 20
607.369792
 30
0.0
 10
1573.390244
 20
606.932354
 30
0.0
 10
1573.171525
 20
606.494916
 30
0.0
 10
1572.952806
 20
606.276197
 30
0.0
  0
LWPOLYLINE
  5
1be
100
AcDbEntity
  8
Logo
 62
7
100
AcDbPolyline
 90
2
 70
0
 10
1559.392228
 20
637.990452
 30
0.0
 10
1573.171525
 20
607.369792
 30
0.0
  0
SPLINE
  5
1bf
100
AcDbEntity
  8
Logo
 62
7
100
AcDbSpline
 70
8
 71
3
 72
8
 73
4
 74
0
 40
0
 40
0
 40
0
 40
0
 40
1
 40
1
 40
1
 40
1
 10
1546.050369
 20
579.373760
 30
0.0
 10
1545.612931
 20
578.936322
 30
0.0
 10
1544.519336
 20
578.936322
 30
0.0
 10
1544.300617
 20
579.811198
 30
0.0
  0
LWPOLYLINE
  5
1c0
100
AcDbEntity
  8
Logo
 62
7
100
AcDbPolyline
 90
2
 70
0
 10
1572.952806
 20
606.276197
 30
0.0
 10
1546.050369
 20
579.373760
 30
0.0
  0
SPLINE
  5
1c1
100
AcDbEntity
  8
Logo
 62
7
100
AcDbSpline
 70
8
 71
3
 72
8
 73
4
 74
0
 40
0
 40
0
 40
0
 40
0
 40
1
 40
1
 40
1
 40
1
 10
1473.216942
 20
743.413010
 30
0.0
 10
1472.998223
 20
743.850448
 30
0.0
 10
1473.216942
 20
744.287886
 30
0.0
 10
1473.435661
 20
744.506605
 30
0.0
  0
LWPOLYLINE
  5
1c2
100
AcDbEntity
  8
Logo
 62
7
100
AcDbPolyline
 90
2
 70
0
 10
1544.300617
 20
579.811198
 30
0.0
 10
1473.216942
 20
743.413010
 30
0.0
  0
SPLINE
  5
1c3
100
AcDbEntity
  8
Logo
 62
7
100
AcDbSpline
 70
8
 71
3
 72
8
 73
4
 74
0
 40
0
 40
0
 40
0
 40
0
 40
1
 40
1
 40
1
 40
1
 10
1497.276032
 20
768.346976
 30
0.0
 10
1497.494751
 20
768.565695
 30
0.0
 10
1498.150908
 20
768.784414
 30
0.0
 10
1498.369627
 20
768.565695
 30
0.0
  0
LWPOLYLINE
  5
1c4
100
AcDbEntity
  8
Logo
 62
7
100
AcDbPolyline
 90
2
 70
0
 10
1473.435661
 20
744.506605
 30
0.0
 10
1497.276032
 20
768.346976
 30
0.0
  0
SPLINE
  5
1c5
100
AcDbEntity
  8
Logo
 62
7
100
AcDbSpline
 70
8
 71
3
 72
8
 73
4
 74
0
 40
0
 40
0
 40
0
 40
0
 40
1
 40
1
 40
1
 40
1
 10
1662.190158
 20
697.700739
 30
0.0
 10
1662.846315
 20
697.482020
 30
0.0
 10
1663.065034
 20
696.388425
 30
0.0
 10
1662.627596
 20
695.950987
 30
0.0
  0
LWPOLYLINE
  5
1c6
100
AcDbEntity
  8
Logo
 62
7
100
AcDbPolyline
 90
2
 70
0
 10
1498.369627
 20
768.565695
 30
0.0
 10
1662.190158
 20
697.700739
 30
0.0
  0
SPLINE
  5
1c7
100
AcDbEntity
  8
Logo
 62
7
100
AcDbSpline
 70
8
 71
3
 72
8
 73
4
 74
0
 40
0
 40
0
 40
0
 40
0
 40
1
 40
1
 40
1
 40
1
 10
1636.162597
 20
669.485988
 30
0.0
 10
1635.725159
 20
668.829831
 30
0.0
 10
1635.287721
 20
668.829831
 30
0.0
 10
1634.850283
 20
669.048550
 30
0.0
  0
LWPOLYLINE
  5
1c8
100
AcDbEntity
  8
Logo
 62
7
100
AcDbPolyline
 90
2
 70
0
 10
1662.627596
 20
695.950987
 30
0.0
 10
1636.162597
 20
669.485988
 30
0.0
  0
SPLINE
  5
1c9
100
AcDbEntity
  8
Logo
 62
7
100
AcDbSpline
 70
8
 71
3
 72
8
 73
4
 74
0
 40
0
 40
0
 40
0
 40
0
 40
1
 40
1
 40
1
 40
1
 10
1570.109459
 20
697.044582
 30
0.0
 10
1570.546897
 20
697.482020
 30
0.0
 10
1570.546897
 20
698.575615
 30
0.0
 10
1569.672021
 20
698.794334
 30
0.0
  0
LWPOLYLINE
  5
1ca
100
AcDbEntity
  8
Logo
 62
7
100
AcDbPolyline
 90
1
 70
1
 10
1634.850283
 20
669.048550
 30
0.0
  0
SPLINE
  5
1cb
100
AcDbEntity
  8
Logo
 62
7
100
AcDbSpline
 70
8
 71
3
 72
8
 73
4
 74
0
 40
0
 40
0
 40
0
 40
0
 40
1
 40
1
 40
1
 40
1
 10
1535.333138
 20
713.667226
 30
0.0
 10
1529.865163
 20
715.854416
 30
0.0
 10
1525.272064
 20
718.041606
 30
0.0
 10
1521.772560
 20
720.228796
 30
0.0
  0
SPLINE
  5
1cc
100
AcDbEntity
  8
Logo
 62
7
100
AcDbSpline
 70
8
 71
3
 72
8
 73
4
 74
0
 40
0
 40
0
 40
0
 40
0
 40
1
 40
1
 40
1
 40
1
 10
1521.772560
 20
720.228796
 30
0.0
 10
1523.303593
 20
717.822887
 30
0.0
 10
1525.490783
 20
713.229788
 30
0.0
 10
1528.334130
 20
706.668218
 30
0.0
  0
LWPOLYLINE
  5
1cd
100
AcDbEntity
  8
Logo
 62
7
100
AcDbPolyline
 90
2
 70
0
 10
1569.672021
 20
698.794334
 30
0.0
 10
1535.333138
 20
713.667226
 30
0.0
  0
SPLINE
  5
1ce
100
AcDbEntity
  8
Logo
 62
7
100
AcDbSpline
 70
8
 71
3
 72
8
 73
4
 74
0
 40
0
 40
0
 40
0
 40
0
 40
1
 40
1
 40
1
 40
1
 10
1543.207022
 20
672.329335
 30
0.0
 10
1543.425741
 20
671.673178
 30
0.0
 10
1544.519336
 20
671.454459
 30
0.0
 10
1544.956774
 20
671.891897
 30
0.0
  0
LWPOLYLINE
  5
1cf
100
AcDbEntity
  8
Logo
 62
7
100
AcDbPolyline
 90
2
 70
0
 10
1528.334130
 20
706.668218
 30
0.0
 10
1543.207022
 20
672.329335
 30
0.0
  0
LWPOLYLINE
  5
1d0
100
AcDbEntity
  8
Logo
 62
7
100
AcDbPolyline
 90
2
 70
0
 10
1544.956774
 20
671.891897
 30
0.0
 10
1570.109459
 20
697.044582
 30
0.0
  0
SPLINE
  5
1d1
100
AcDbEntity
  8
Logo
 62
7
100
AcDbSpline
 70
8
 71
3
 72
8
 73
4
 74
0
 40
0
 40
0
 40
0
 40
0
 40
1
 40
1
 40
1
 40
1
 10
1569.234583
 20
838.774494
 30
0.0
 10
1568.797145
 20
839.211932
 30
0.0
 10
1568.797145
 20
839.868089
 30
0.0
 10
1569.234583
 20
840.305527
 30
0.0
  0
LWPOLYLINE
  5
1d2
100
AcDbEntity
  8
Logo
 62
7
100
AcDbPolyline
 90
2
 70
0
 10
1686.686686
 20
721.322391
 30
0.0
 10
1569.234583
 20
838.774494
 30
0.0
  0
SPLINE
  5
1d3
100
AcDbEntity
  8
Logo
 62
7
100
AcDbSpline
 70
8
 71
3
 72
8
 73
4
 74
0
 40
0
 40
0
 40
0
 40
0
 40
1
 40
1
 40
1
 40
1
 10
1593.512392
 20
864.583336
 30
0.0
 10
1593.949830
 20
865.020774
 30
0.0
 10
1594.605987
 20
865.020774
 30
0.0
 10
1595.043425
 20
864.583336
 30
0.0
  0
LWPOLYLINE
  5
1d4
100
AcDbEntity
  8
Logo
 62
7
100
AcDbPolyline
 90
2
 70
0
 10
1569.234583
 20
840.305527
 30
0.0
 10
1593.512392
 20
864.583336
 30
0.0
  0
SPLINE
  5
1d5
100
AcDbEntity
  8
Logo
 62
7
100
AcDbSpline
 70
8
 71
3
 72
8
 73
4
 74
0
 40
0
 40
0
 40
0
 40
0
 40
1
 40
1
 40
1
 40
1
 10
1687.561562
 20
772.065199
 30
0.0
 10
1687.999000
 20
771.627761
 30
0.0
 10
1688.655157
 20
771.627761
 30
0.0
 10
1689.092595
 20
772.065199
 30
0.0
  0
LWPOLYLINE
  5
1d6
100
AcDbEntity
  8
Logo
 62
7
100
AcDbPolyline
 90
2
 70
0
 10
1595.043425
 20
864.583336
 30
0.0
 10
1687.561562
 20
772.065199
 30
0.0
  0
SPLINE
  5
1d7
100
AcDbEntity
  8
Logo
 62
7
100
AcDbSpline
 70
8
 71
3
 72
8
 73
4
 74
0
 40
0
 40
0
 40
0
 40
0
 40
1
 40
1
 40
1
 40
1
 10
1744.647221
 20
827.619825
 30
0.0
 10
1745.084659
 20
828.057263
 30
0.0
 10
1745.740816
 20
828.057263
 30
0.0
 10
1746.178254
 20
827.619825
 30
0.0
  0
LWPOLYLINE
  5
1d8
100
AcDbEntity
  8
Logo
 62
7
100
AcDbPolyline
 90
2
 70
0
 10
1689.092595
 20
772.065199
 30
0.0
 10
1744.647221
 20
827.619825
 30
0.0
  0
SPLINE
  5
1d9
100
AcDbEntity
  8
Logo
 62
7
100
AcDbSpline
 70
8
 71
3
 72
8
 73
4
 74
0
 40
0
 40
0
 40
0
 40
0
 40
1
 40
1
 40
1
 40
1
 10
1769.581187
 20
804.216892
 30
0.0
 10
1770.018625
 20
803.779454
 30
0.0
 10
1770.018625
 20
803.123297
 30
0.0
 10
1769.581187
 20
802.685859
 30
0.0
  0
LWPOLYLINE
  5
1da
100
AcDbEntity
  8
Logo
 62
7
100
AcDbPolyline
 90
2
 70
0
 10
1746.178254
 20
827.619825
 30
0.0
 10
1769.581187
 20
804.216892
 30
0.0
  0
SPLINE
  5
1db
100
AcDbEntity
  8
Logo
 62
7
100
AcDbSpline
 70
8
 71
3
 72
8
 73
4
 74
0
 40
0
 40
0
 40
0
 40
0
 40
1
 40
1
 40
1
 40
1
 10
1688.217719
 20
721.322391
 30
0.0
 10
1687.780281
 20
720.884953
 30
0.0
 10
1687.124124
 20
720.884953
 30
0.0
 10
1686.686686
 20
721.322391
 30
0.0
  0
LWPOLYLINE
  5
1dc
100
AcDbEntity
  8
Logo
 62
7
100
AcDbPolyline
 90
2
 70
0
 10
1769.581187
 20
802.685859
 30
0.0
 10
1688.217719
 20
721.322391
 30
0.0
  0
LWPOLYLINE
  5
1dd
100
AcDbEntity
  8
Logo
 62
7
100
AcDbPolyline
 90
1
 70
1
 10
1686.686686
 20
721.322391
 30
0.0
  0
SPLINE
  5
1de
100
AcDbEntity
  8
Logo
 62
7
100
AcDbSpline
 70
8
 71
3
 72
8
 73
4
 74
0
 40
0
 40
0
 40
0
 40
0
 40
1
 40
1
 40
1
 40
1
 10
1674.438422
 20
943.978333
 30
0.0
 10
1674.000984
 20
944.415771
 30
0.0
 10
1674.000984
 20
945.071928
 30
0.0
 10
1674.438422
 20
945.509366
 30
0.0
  0
LWPOLYLINE
  5
1df
100
AcDbEntity
  8
Logo
 62
7
100
AcDbPolyline
 90
2
 70
0
 10
1791.890525
 20
826.526230
 30
0.0
 10
1674.438422
 20
943.978333
 30
0.0
  0
SPLINE
  5
1e0
100
AcDbEntity
  8
Logo
 62
7
100
AcDbSpline
 70
8
 71
3
 72
8
 73
4
 74
0
 40
0
 40
0
 40
0
 40
0
 40
1
 40
1
 40
1
 40
1
 10
1758.426518
 20
1029.497462
 30
0.0
 10
1758.863956
 20
1029.934900
 30
0.0
 10
1759.520113
 20
1029.934900
 30
0.0
 10
1759.957551
 20
1029.497462
 30
0.0
  0
LWPOLYLINE
  5
1e1
100
AcDbEntity
  8
Logo
 62
7
100
AcDbPolyline
 90
2
 70
0
 10
1674.438422
 20
945.509366
 30
0.0
 10
1758.426518
 20
1029.497462
 30
0.0
  0
SPLINE
  5
1e2
100
AcDbEntity
  8
Logo
 62
7
100
AcDbSpline
 70
8
 71
3
 72
8
 73
4
 74
0
 40
0
 40
0
 40
0
 40
0
 40
1
 40
1
 40
1
 40
1
 10
1782.923046
 20
1006.531967
 30
0.0
 10
1783.360484
 20
1006.094529
 30
0.0
 10
1783.360484
 20
1005.438372
 30
0.0
 10
1782.923046
 20
1005.000934
 30
0.0
  0
LWPOLYLINE
  5
1e3
100
AcDbEntity
  8
Logo
 62
7
100
AcDbPolyline
 90
2
 70
0
 10
1759.957551
 20
1029.497462
 30
0.0
 10
1782.923046
 20
1006.531967
 30
0.0
  0
SPLINE
  5
1e4
100
AcDbEntity
  8
Logo
 62
7
100
AcDbSpline
 70
8
 71
3
 72
8
 73
4
 74
0
 40
0
 40
0
 40
0
 40
0
 40
1
 40
1
 40
1
 40
1
 10
1724.743792
 20
946.821680
 30
0.0
 10
1724.306354
 20
946.384242
 30
0.0
 10
1724.306354
 20
945.728085
 30
0.0
 10
1724.743792
 20
945.290647
 30
0.0
  0
LWPOLYLINE
  5
1e5
100
AcDbEntity
  8
Logo
 62
7
100
AcDbPolyline
 90
2
 70
0
 10
1782.923046
 20
1005.000934
 30
0.0
 10
1724.743792
 20
946.821680
 30
0.0
  0
SPLINE
  5
1e6
100
AcDbEntity
  8
Logo
 62
7
100
AcDbSpline
 70
8
 71
3
 72
8
 73
4
 74
0
 40
0
 40
0
 40
0
 40
0
 40
1
 40
1
 40
1
 40
1
 10
1744.209783
 20
925.824656
 30
0.0
 10
1744.647221
 20
925.387218
 30
0.0
 10
1745.303378
 20
925.387218
 30
0.0
 10
1745.740816
 20
925.824656
 30
0.0
  0
LWPOLYLINE
  5
1e7
100
AcDbEntity
  8
Logo
 62
7
100
AcDbPolyline
 90
2
 70
0
 10
1724.743792
 20
945.290647
 30
0.0
 10
1744.209783
 20
925.824656
 30
0.0
  0
SPLINE
  5
1e8
100
AcDbEntity
  8
Logo
 62
7
100
AcDbSpline
 70
8
 71
3
 72
8
 73
4
 74
0
 40
0
 40
0
 40
0
 40
0
 40
1
 40
1
 40
1
 40
1
 10
1777.455071
 20
957.538911
 30
0.0
 10
1777.892509
 20
957.976349
 30
0.0
 10
1778.548666
 20
957.976349
 30
0.0
 10
1778.986104
 20
957.538911
 30
0.0
  0
LWPOLYLINE
  5
1e9
100
AcDbEntity
  8
Logo
 62
7
100
AcDbPolyline
 90
2
 70
0
 10
1745.740816
 20
925.824656
 30
0.0
 10
1777.455071
 20
957.538911
 30
0.0
  0
SPLINE
  5
1ea
100
AcDbEntity
  8
Logo
 62
7
100
AcDbSpline
 70
8
 71
3
 72
8
 73
4
 74
0
 40
0
 40
0
 40
0
 40
0
 40
1
 40
1
 40
1
 40
1
 10
1801.951599
 20
934.573416
 30
0.0
 10
1802.389037
 20
934.135978
 30
0.0
 10
1802.389037
 20
933.479821
 30
0.0
 10
1801.951599
 20
933.042383
 30
0.0
  0
LWPOLYLINE
  5
1eb
100
AcDbEntity
  8
Logo
 62
7
100
AcDbPolyline
 90
2
 70
0
 10
1778.986104
 20
957.538911
 30
0.0
 10
1801.951599
 20
934.573416
 30
0.0
  0
SPLINE
  5
1ec
100
AcDbEntity
  8
Logo
 62
7
100
AcDbSpline
 70
8
 71
3
 72
8
 73
4
 74
0
 40
0
 40
0
 40
0
 40
0
 40
1
 40
1
 40
1
 40
1
 10
1770.237344
 20
901.328128
 30
0.0
 10
1769.799906
 20
900.890690
 30
0.0
 10
1769.799906
 20
900.234533
 30
0.0
 10
1770.237344
 20
899.797095
 30
0.0
  0
LWPOLYLINE
  5
1ed
100
AcDbEntity
  8
Logo
 62
7
100
AcDbPolyline
 90
2
 70
0
 10
1801.951599
 20
933.042383
 30
0.0
 10
1770.237344
 20
901.328128
 30
0.0
  0
SPLINE
  5
1ee
100
AcDbEntity
  8
Logo
 62
7
100
AcDbSpline
 70
8
 71
3
 72
8
 73
4
 74
0
 40
0
 40
0
 40
0
 40
0
 40
1
 40
1
 40
1
 40
1
 10
1793.202839
 20
876.831600
 30
0.0
 10
1793.640277
 20
876.394162
 30
0.0
 10
1794.296434
 20
876.394162
 30
0.0
 10
1794.733872
 20
876.831600
 30
0.0
  0
LWPOLYLINE
  5
1ef
100
AcDbEntity
  8
Logo
 62
7
100
AcDbPolyline
 90
2
 70
0
 10
1770.237344
 20
899.797095
 30
0.0
 10
1793.202839
 20
876.831600
 30
0.0
  0
SPLINE
  5
1f0
100
AcDbEntity
  8
Logo
 62
7
100
AcDbSpline
 70
8
 71
3
 72
8
 73
4
 74
0
 40
0
 40
0
 40
0
 40
0
 40
1
 40
1
 40
1
 40
1
 10
1856.193911
 20
938.291639
 30
0.0
 10
1856.631349
 20
938.729077
 30
0.0
 10
1857.287506
 20
938.729077
 30
0.0
 10
1857.724944
 20
938.291639
 30
0.0
  0
LWPOLYLINE
  5
1f1
100
AcDbEntity
  8
Logo
 62
7
100
AcDbPolyline
 90
2
 70
0
 10
1794.733872
 20
876.831600
 30
0.0
 10
1856.193911
 20
938.291639
 30
0.0
  0
SPLINE
  5
1f2
100
AcDbEntity
  8
Logo
 62
7
100
AcDbSpline
 70
8
 71
3
 72
8
 73
4
 74
0
 40
0
 40
0
 40
0
 40
0
 40
1
 40
1
 40
1
 40
1
 10
1880.909158
 20
915.107425
 30
0.0
 10
1881.346596
 20
914.669987
 30
0.0
 10
1881.346596
 20
914.013830
 30
0.0
 10
1880.909158
 20
913.576392
 30
0.0
  0
LWPOLYLINE
  5
1f3
100
AcDbEntity
  8
Logo
 62
7
100
AcDbPolyline
 90
2
 70
0
 10
1857.724944
 20
938.291639
 30
0.0
 10
1880.909158
 20
915.107425
 30
0.0
  0
SPLINE
  5
1f4
100
AcDbEntity
  8
Logo
 62
7
100
AcDbSpline
 70
8
 71
3
 72
8
 73
4
 74
0
 40
0
 40
0
 40
0
 40
0
 40
1
 40
1
 40
1
 40
1
 10
1793.421558
 20
826.526230
 30
0.0
 10
1792.984120
 20
826.088792
 30
0.0
 10
1792.327963
 20
826.088792
 30
0.0
 10
1791.890525
 20
826.526230
 30
0.0
  0
LWPOLYLINE
  5
1f5
100
AcDbEntity
  8
Logo
 62
7
100
AcDbPolyline
 90
2
 70
0
 10
1880.909158
 20
913.576392
 30
0.0
 10
1793.421558
 20
826.526230
 30
0.0
  0
LWPOLYLINE
  5
1f6
100
AcDbEntity
  8
Logo
 62
7
100
AcDbPolyline
 90
1
 70
1
 10
1791.890525
 20
826.526230
 30
0.0
  0
SPLINE
  5
1f7
100
AcDbEntity
  8
Logo
 62
7
100
AcDbSpline
 70
8
 71
3
 72
8
 73
4
 74
0
 40
0
 40
0
 40
0
 40
0
 40
1
 40
1
 40
1
 40
1
 10
1984.581964
 20
1017.905355
 30
0.0
 10
1984.363245
 20
1017.686636
 30
0.0
 10
1983.925807
 20
1017.467917
 30
0.0
 10
1983.707088
 20
1017.686636
 30
0.0
  0
LWPOLYLINE
  5
1f8
100
AcDbEntity
  8
Logo
 62
7
100
AcDbPolyline
 90
2
 70
0
 10
2006.016426
 20
1039.339817
 30
0.0
 10
1984.581964
 20
1017.905355
 30
0.0
  0
SPLINE
  5
1f9
100
AcDbEntity
  8
Logo
 62
7
100
AcDbSpline
 70
8
 71
3
 72
8
 73
4
 74
0
 40
0
 40
0
 40
0
 40
0
 40
1
 40
1
 40
1
 40
1
 10
1876.316059
 20
1035.840313
 30
0.0
 10
1873.691431
 20
1036.277751
 30
0.0
 10
1869.098332
 20
1037.371346
 30
0.0
 10
1862.318043
 20
1039.777255
 30
0.0
  0
SPLINE
  5
1fa
100
AcDbEntity
  8
Logo
 62
7
100
AcDbSpline
 70
8
 71
3
 72
8
 73
4
 74
0
 40
0
 40
0
 40
0
 40
0
 40
1
 40
1
 40
1
 40
1
 10
1862.318043
 20
1039.777255
 30
0.0
 10
1864.505233
 20
1038.246222
 30
0.0
 10
1867.786018
 20
1035.402875
 30
0.0
 10
1871.722960
 20
1031.247214
 30
0.0
  0
LWPOLYLINE
  5
1fb
100
AcDbEntity
  8
Logo
 62
7
100
AcDbPolyline
 90
2
 70
0
 10
1983.707088
 20
1017.686636
 30
0.0
 10
1876.316059
 20
1035.840313
 30
0.0
  0
SPLINE
  5
1fc
100
AcDbEntity
  8
Logo
 62
7
100
AcDbSpline
 70
8
 71
3
 72
8
 73
4
 74
0
 40
0
 40
0
 40
0
 40
0
 40
1
 40
1
 40
1
 40
1
 10
1934.057875
 20
968.912299
 30
0.0
 10
1934.495313
 20
968.474861
 30
0.0
 10
1934.495313
 20
967.818704
 30
0.0
 10
1934.057875
 20
967.381266
 30
0.0
  0
LWPOLYLINE
  5
1fd
100
AcDbEntity
  8
Logo
 62
7
100
AcDbPolyline
 90
2
 70
0
 10
1871.722960
 20
1031.247214
 30
0.0
 10
1934.057875
 20
968.912299
 30
0.0
  0
SPLINE
  5
1fe
100
AcDbEntity
  8
Logo
 62
7
100
AcDbSpline
 70
8
 71
3
 72
8
 73
4
 74
0
 40
0
 40
0
 40
0
 40
0
 40
1
 40
1
 40
1
 40
1
 10
1909.998785
 20
943.322176
 30
0.0
 10
1909.561347
 20
942.884738
 30
0.0
 10
1908.905190
 20
942.884738
 30
0.0
 10
1908.467752
 20
943.322176
 30
0.0
  0
LWPOLYLINE
  5
1ff
100
AcDbEntity
  8
Logo
 62
7
100
AcDbPolyline
 90
2
 70
0
 10
1934.057875
 20
967.381266
 30
0.0
 10
1909.998785
 20
943.322176
 30
0.0
  0
SPLINE
  5
200
100
AcDbEntity
  8
Logo
 62
7
100
AcDbSpline
 70
8
 71
3
 72
8
 73
4
 74
0
 40
0
 40
0
 40
0
 40
0
 40
1
 40
1
 40
1
 40
1
 10
1791.234368
 20
1060.555560
 30
0.0
 10
1790.796930
 20
1060.992998
 30
0.0
 10
1790.796930
 20
1061.649155
 30
0.0
 10
1791.234368
 20
1062.086593
 30
0.0
  0
LWPOLYLINE
  5
201
100
AcDbEntity
  8
Logo
 62
7
100
AcDbPolyline
 90
2
 70
0
 10
1908.467752
 20
943.322176
 30
0.0
 10
1791.234368
 20
1060.555560
 30
0.0
  0
SPLINE
  5
202
100
AcDbEntity
  8
Logo
 62
7
100
AcDbSpline
 70
8
 71
3
 72
8
 73
4
 74
0
 40
0
 40
0
 40
0
 40
0
 40
1
 40
1
 40
1
 40
1
 10
1813.762425
 20
1084.614650
 30
0.0
 10
1813.981144
 20
1084.833369
 30
0.0
 10
1814.418582
 20
1085.052088
 30
0.0
 10
1814.637301
 20
1084.833369
 30
0.0
  0
LWPOLYLINE
  5
203
100
AcDbEntity
  8
Logo
 62
7
100
AcDbPolyline
 90
2
 70
0
 10
1791.234368
 20
1062.086593
 30
0.0
 10
1813.762425
 20
1084.614650
 30
0.0
  0
SPLINE
  5
204
100
AcDbEntity
  8
Logo
 62
7
100
AcDbSpline
 70
8
 71
3
 72
8
 73
4
 74
0
 40
0
 40
0
 40
0
 40
0
 40
1
 40
1
 40
1
 40
1
 10
1920.059859
 20
1066.242254
 30
0.0
 10
1925.309115
 20
1065.367378
 30
0.0
 10
1929.902214
 20
1064.055064
 30
0.0
 10
1933.839156
 20
1062.305312
 30
0.0
  0
SPLINE
  5
205
100
AcDbEntity
  8
Logo
 62
7
100
AcDbSpline
 70
8
 71
3
 72
8
 73
4
 74
0
 40
0
 40
0
 40
0
 40
0
 40
1
 40
1
 40
1
 40
1
 10
1933.839156
 20
1062.305312
 30
0.0
 10
1931.214528
 20
1064.273783
 30
0.0
 10
1927.933743
 20
1067.117130
 30
0.0
 10
1924.434239
 20
1070.835353
 30
0.0
  0
LWPOLYLINE
  5
206
100
AcDbEntity
  8
Logo
 62
7
100
AcDbPolyline
 90
2
 70
0
 10
1814.637301
 20
1084.833369
 30
0.0
 10
1920.059859
 20
1066.242254
 30
0.0
  0
SPLINE
  5
207
100
AcDbEntity
  8
Logo
 62
7
100
AcDbSpline
 70
8
 71
3
 72
8
 73
4
 74
0
 40
0
 40
0
 40
0
 40
0
 40
1
 40
1
 40
1
 40
1
 10
1862.974200
 20
1132.295392
 30
0.0
 10
1862.536762
 20
1132.732830
 30
0.0
 10
1862.536762
 20
1133.388987
 30
0.0
 10
1862.974200
 20
1133.826425
 30
0.0
  0
LWPOLYLINE
  5
208
100
AcDbEntity
  8
Logo
 62
7
100
AcDbPolyline
 90
2
 70
0
 10
1924.434239
 20
1070.835353
 30
0.0
 10
1862.974200
 20
1132.295392
 30
0.0
  0
SPLINE
  5
209
100
AcDbEntity
  8
Logo
 62
7
100
AcDbSpline
 70
8
 71
3
 72
8
 73
4
 74
0
 40
0
 40
0
 40
0
 40
0
 40
1
 40
1
 40
1
 40
1
 10
1887.252009
 20
1158.104234
 30
0.0
 10
1887.689447
 20
1158.541672
 30
0.0
 10
1888.345604
 20
1158.541672
 30
0.0
 10
1888.783042
 20
1158.104234
 30
0.0
  0
LWPOLYLINE
  5
20a
100
AcDbEntity
  8
Logo
 62
7
100
AcDbPolyline
 90
2
 70
0
 10
1862.974200
 20
1133.826425
 30
0.0
 10
1887.252009
 20
1158.104234
 30
0.0
  0
SPLINE
  5
20b
100
AcDbEntity
  8
Logo
 62
7
100
AcDbSpline
 70
8
 71
3
 72
8
 73
4
 74
0
 40
0
 40
0
 40
0
 40
0
 40
1
 40
1
 40
1
 40
1
 10
2006.235145
 20
1040.652131
 30
0.0
 10
2006.453864
 20
1040.433412
 30
0.0
 10
2006.453864
 20
1039.558536
 30
0.0
 10
2006.016426
 20
1039.339817
 30
0.0
  0
LWPOLYLINE
  5
20c
100
AcDbEntity
  8
Logo
 62
7
100
AcDbPolyline
 90
2
 70
0
 10
1888.783042
 20
1158.104234
 30
0.0
 10
2006.235145
 20
1040.652131
 30
0.0
  0
SPLINE
  5
20d
100
AcDbEntity
  8
Pærer
 62
7
100
AcDbSpline
 70
8
 71
3
 72
8
 73
4
 74
0
 40
0
 40
0
 40
0
 40
0
 40
1
 40
1
 40
1
 40
1
 10
146.471560
 20
450.031346
 30
0.0
 10
138.470955
 20
450.031346
 30
0.0
 10
131.985184
 20
443.545575
 30
0.0
 10
131.985184
 20
435.544970
 30
0.0
  0
SPLINE
  5
20e
100
AcDbEntity
  8
Pærer
 62
7
100
AcDbSpline
 70
8
 71
3
 72
8
 73
4
 74
0
 40
0
 40
0
 40
0
 40
0
 40
1
 40
1
 40
1
 40
1
 10
131.985184
 20
435.544970
 30
0.0
 10
131.985184
 20
427.544365
 30
0.0
 10
138.470955
 20
421.058594
 30
0.0
 10
146.471560
 20
421.058594
 30
0.0
  0
SPLINE
  5
20f
100
AcDbEntity
  8
Pærer
 62
7
100
AcDbSpline
 70
8
 71
3
 72
8
 73
4
 74
0
 40
0
 40
0
 40
0
 40
0
 40
1
 40
1
 40
1
 40
1
 10
146.471560
 20
421.058594
 30
0.0
 10
154.472165
 20
421.058594
 30
0.0
 10
160.957936
 20
427.544365
 30
0.0
 10
160.957936
 20
435.544970
 30
0.0
  0
SPLINE
  5
210
100
AcDbEntity
  8
Pærer
 62
7
100
AcDbSpline
 70
8
 71
3
 72
8
 73
4
 74
0
 40
0
 40
0
 40
0
 40
0
 40
1
 40
1
 40
1
 40
1
 10
160.957936
 20
435.544970
 30
0.0
 10
160.957936
 20
439.386996
 30
0.0
 10
159.431697
 20
443.071662
 30
0.0
 10
156.714975
 20
445.788385
 30
0.0
  0
SPLINE
  5
211
100
AcDbEntity
  8
Pærer
 62
7
100
AcDbSpline
 70
8
 71
3
 72
8
 73
4
 74
0
 40
0
 40
0
 40
0
 40
0
 40
1
 40
1
 40
1
 40
1
 10
156.714975
 20
445.788385
 30
0.0
 10
153.998252
 20
448.505107
 30
0.0
 10
150.313586
 20
450.031346
 30
0.0
 10
146.471560
 20
450.031346
 30
0.0
  0
LWPOLYLINE
  5
212
100
AcDbEntity
  8
Logo
 62
7
100
AcDbPolyline
 90
1
 70
1
 10
2006.016426
 20
1039.339817
 30
0.0
  0
SPLINE
  5
213
100
AcDbEntity
  8
Pærer
 62
7
100
AcDbSpline
 70
8
 71
3
 72
8
 73
4
 74
0
 40
0
 40
0
 40
0
 40
0
 40
1
 40
1
 40
1
 40
1
 10
322.722290
 20
626.759176
 30
0.0
 10
316.863098
 20
626.759176
 30
0.0
 10
311.580839
 20
623.229684
 30
0.0
 10
309.338624
 20
617.816496
 30
0.0
  0
SPLINE
  5
214
100
AcDbEntity
  8
Pærer
 62
7
100
AcDbSpline
 70
8
 71
3
 72
8
 73
4
 74
0
 40
0
 40
0
 40
0
 40
0
 40
1
 40
1
 40
1
 40
1
 10
309.338624
 20
617.816496
 30
0.0
 10
307.096408
 20
612.403308
 30
0.0
 10
308.335801
 20
606.172460
 30
0.0
 10
312.478875
 20
602.029385
 30
0.0
  0
SPLINE
  5
215
100
AcDbEntity
  8
Pærer
 62
7
100
AcDbSpline
 70
8
 71
3
 72
8
 73
4
 74
0
 40
0
 40
0
 40
0
 40
0
 40
1
 40
1
 40
1
 40
1
 10
312.478875
 20
602.029385
 30
0.0
 10
316.621950
 20
597.886311
 30
0.0
 10
322.852798
 20
596.646918
 30
0.0
 10
328.265986
 20
598.889134
 30
0.0
  0
SPLINE
  5
216
100
AcDbEntity
  8
Pærer
 62
7
100
AcDbSpline
 70
8
 71
3
 72
8
 73
4
 74
0
 40
0
 40
0
 40
0
 40
0
 40
1
 40
1
 40
1
 40
1
 10
328.265986
 20
598.889134
 30
0.0
 10
333.679174
 20
601.131349
 30
0.0
 10
337.208666
 20
606.413608
 30
0.0
 10
337.208666
 20
612.272800
 30
0.0
  0
SPLINE
  5
217
100
AcDbEntity
  8
Pærer
 62
7
100
AcDbSpline
 70
8
 71
3
 72
8
 73
4
 74
0
 40
0
 40
0
 40
0
 40
0
 40
1
 40
1
 40
1
 40
1
 10
337.208666
 20
612.272800
 30
0.0
 10
337.208666
 20
616.114826
 30
0.0
 10
335.682427
 20
619.799492
 30
0.0
 10
332.965705
 20
622.516215
 30
0.0
  0
SPLINE
  5
218
100
AcDbEntity
  8
Pærer
 62
7
100
AcDbSpline
 70
8
 71
3
 72
8
 73
4
 74
0
 40
0
 40
0
 40
0
 40
0
 40
1
 40
1
 40
1
 40
1
 10
332.965705
 20
622.516215
 30
0.0
 10
330.248982
 20
625.232937
 30
0.0
 10
326.564316
 20
626.759176
 30
0.0
 10
322.722290
 20
626.759176
 30
0.0
  0
LWPOLYLINE
  5
219
100
AcDbEntity
  8
Pærer
 62
7
100
AcDbPolyline
 90
1
 70
1
 10
146.471560
 20
450.031346
 30
0.0
  0
SPLINE
  5
21a
100
AcDbEntity
  8
Pærer
 62
7
100
AcDbSpline
 70
8
 71
3
 72
8
 73
4
 74
0
 40
0
 40
0
 40
0
 40
0
 40
1
 40
1
 40
1
 40
1
 10
381.472530
 20
685.668446
 30
0.0
 10
375.613338
 20
685.668446
 30
0.0
 10
370.331079
 20
682.138954
 30
0.0
 10
368.088864
 20
676.725766
 30
0.0
  0
SPLINE
  5
21b
100
AcDbEntity
  8
Pærer
 62
7
100
AcDbSpline
 70
8
 71
3
 72
8
 73
4
 74
0
 40
0
 40
0
 40
0
 40
0
 40
1
 40
1
 40
1
 40
1
 10
368.088864
 20
676.725766
 30
0.0
 10
365.846648
 20
671.312578
 30
0.0
 10
367.086041
 20
665.081730
 30
0.0
 10
371.229115
 20
660.938655
 30
0.0
  0
SPLINE
  5
21c
100
AcDbEntity
  8
Pærer
 62
7
100
AcDbSpline
 70
8
 71
3
 72
8
 73
4
 74
0
 40
0
 40
0
 40
0
 40
0
 40
1
 40
1
 40
1
 40
1
 10
371.229115
 20
660.938655
 30
0.0
 10
375.372190
 20
656.795581
 30
0.0
 10
381.603038
 20
655.556188
 30
0.0
 10
387.016226
 20
657.798404
 30
0.0
  0
SPLINE
  5
21d
100
AcDbEntity
  8
Pærer
 62
7
100
AcDbSpline
 70
8
 71
3
 72
8
 73
4
 74
0
 40
0
 40
0
 40
0
 40
0
 40
1
 40
1
 40
1
 40
1
 10
387.016226
 20
657.798404
 30
0.0
 10
392.429414
 20
660.040619
 30
0.0
 10
395.958906
 20
665.322878
 30
0.0
 10
395.958906
 20
671.182070
 30
0.0
  0
SPLINE
  5
21e
100
AcDbEntity
  8
Pærer
 62
7
100
AcDbSpline
 70
8
 71
3
 72
8
 73
4
 74
0
 40
0
 40
0
 40
0
 40
0
 40
1
 40
1
 40
1
 40
1
 10
395.958906
 20
671.182070
 30
0.0
 10
395.958906
 20
675.024096
 30
0.0
 10
394.432667
 20
678.708762
 30
0.0
 10
391.715945
 20
681.425485
 30
0.0
  0
SPLINE
  5
21f
100
AcDbEntity
  8
Pærer
 62
7
100
AcDbSpline
 70
8
 71
3
 72
8
 73
4
 74
0
 40
0
 40
0
 40
0
 40
0
 40
1
 40
1
 40
1
 40
1
 10
391.715945
 20
681.425485
 30
0.0
 10
388.999222
 20
684.142207
 30
0.0
 10
385.314556
 20
685.668446
 30
0.0
 10
381.472530
 20
685.668446
 30
0.0
  0
LWPOLYLINE
  5
220
100
AcDbEntity
  8
Pærer
 62
7
100
AcDbPolyline
 90
1
 70
1
 10
322.722290
 20
626.759176
 30
0.0
  0
SPLINE
  5
221
100
AcDbEntity
  8
Pærer
 62
7
100
AcDbSpline
 70
8
 71
3
 72
8
 73
4
 74
0
 40
0
 40
0
 40
0
 40
0
 40
1
 40
1
 40
1
 40
1
 10
440.222780
 20
744.577716
 30
0.0
 10
434.363588
 20
744.577716
 30
0.0
 10
429.081329
 20
741.048224
 30
0.0
 10
426.839114
 20
735.635036
 30
0.0
  0
SPLINE
  5
222
100
AcDbEntity
  8
Pærer
 62
7
100
AcDbSpline
 70
8
 71
3
 72
8
 73
4
 74
0
 40
0
 40
0
 40
0
 40
0
 40
1
 40
1
 40
1
 40
1
 10
426.839114
 20
735.635036
 30
0.0
 10
424.596898
 20
730.221848
 30
0.0
 10
425.836291
 20
723.991000
 30
0.0
 10
429.979365
 20
719.847925
 30
0.0
  0
SPLINE
  5
223
100
AcDbEntity
  8
Pærer
 62
7
100
AcDbSpline
 70
8
 71
3
 72
8
 73
4
 74
0
 40
0
 40
0
 40
0
 40
0
 40
1
 40
1
 40
1
 40
1
 10
429.979365
 20
719.847925
 30
0.0
 10
434.122440
 20
715.704851
 30
0.0
 10
440.353288
 20
714.465458
 30
0.0
 10
445.766476
 20
716.707674
 30
0.0
  0
SPLINE
  5
224
100
AcDbEntity
  8
Pærer
 62
7
100
AcDbSpline
 70
8
 71
3
 72
8
 73
4
 74
0
 40
0
 40
0
 40
0
 40
0
 40
1
 40
1
 40
1
 40
1
 10
445.766476
 20
716.707674
 30
0.0
 10
451.179664
 20
718.949889
 30
0.0
 10
454.709156
 20
724.232148
 30
0.0
 10
454.709156
 20
730.091340
 30
0.0
  0
SPLINE
  5
225
100
AcDbEntity
  8
Pærer
 62
7
100
AcDbSpline
 70
8
 71
3
 72
8
 73
4
 74
0
 40
0
 40
0
 40
0
 40
0
 40
1
 40
1
 40
1
 40
1
 10
454.709156
 20
730.091340
 30
0.0
 10
454.709156
 20
733.933366
 30
0.0
 10
453.182917
 20
737.618032
 30
0.0
 10
450.466195
 20
740.334755
 30
0.0
  0
SPLINE
  5
226
100
AcDbEntity
  8
Pærer
 62
7
100
AcDbSpline
 70
8
 71
3
 72
8
 73
4
 74
0
 40
0
 40
0
 40
0
 40
0
 40
1
 40
1
 40
1
 40
1
 10
450.466195
 20
740.334755
 30
0.0
 10
447.749472
 20
743.051477
 30
0.0
 10
444.064806
 20
744.577716
 30
0.0
 10
440.222780
 20
744.577716
 30
0.0
  0
LWPOLYLINE
  5
227
100
AcDbEntity
  8
Pærer
 62
7
100
AcDbPolyline
 90
1
 70
1
 10
381.472530
 20
685.668446
 30
0.0
  0
SPLINE
  5
228
100
AcDbEntity
  8
Pærer
 62
7
100
AcDbSpline
 70
8
 71
3
 72
8
 73
4
 74
0
 40
0
 40
0
 40
0
 40
0
 40
1
 40
1
 40
1
 40
1
 10
498.973020
 20
803.486986
 30
0.0
 10
493.113828
 20
803.486986
 30
0.0
 10
487.831569
 20
799.957494
 30
0.0
 10
485.589354
 20
794.544306
 30
0.0
  0
SPLINE
  5
229
100
AcDbEntity
  8
Pærer
 62
7
100
AcDbSpline
 70
8
 71
3
 72
8
 73
4
 74
0
 40
0
 40
0
 40
0
 40
0
 40
1
 40
1
 40
1
 40
1
 10
485.589354
 20
794.544306
 30
0.0
 10
483.347138
 20
789.131118
 30
0.0
 10
484.586531
 20
782.900270
 30
0.0
 10
488.729605
 20
778.757195
 30
0.0
  0
SPLINE
  5
22a
100
AcDbEntity
  8
Pærer
 62
7
100
AcDbSpline
 70
8
 71
3
 72
8
 73
4
 74
0
 40
0
 40
0
 40
0
 40
0
 40
1
 40
1
 40
1
 40
1
 10
488.729605
 20
778.757195
 30
0.0
 10
492.872680
 20
774.614121
 30
0.0
 10
499.103528
 20
773.374728
 30
0.0
 10
504.516716
 20
775.616944
 30
0.0
  0
SPLINE
  5
22b
100
AcDbEntity
  8
Pærer
 62
7
100
AcDbSpline
 70
8
 71
3
 72
8
 73
4
 74
0
 40
0
 40
0
 40
0
 40
0
 40
1
 40
1
 40
1
 40
1
 10
504.516716
 20
775.616944
 30
0.0
 10
509.929904
 20
777.859159
 30
0.0
 10
513.459396
 20
783.141418
 30
0.0
 10
513.459396
 20
789.000610
 30
0.0
  0
SPLINE
  5
22c
100
AcDbEntity
  8
Pærer
 62
7
100
AcDbSpline
 70
8
 71
3
 72
8
 73
4
 74
0
 40
0
 40
0
 40
0
 40
0
 40
1
 40
1
 40
1
 40
1
 10
513.459396
 20
789.000610
 30
0.0
 10
513.459396
 20
792.842636
 30
0.0
 10
511.933157
 20
796.527302
 30
0.0
 10
509.216435
 20
799.244025
 30
0.0
  0
SPLINE
  5
22d
100
AcDbEntity
  8
Pærer
 62
7
100
AcDbSpline
 70
8
 71
3
 72
8
 73
4
 74
0
 40
0
 40
0
 40
0
 40
0
 40
1
 40
1
 40
1
 40
1
 10
509.216435
 20
799.244025
 30
0.0
 10
506.499712
 20
801.960747
 30
0.0
 10
502.815046
 20
803.486986
 30
0.0
 10
498.973020
 20
803.486986
 30
0.0
  0
LWPOLYLINE
  5
22e
100
AcDbEntity
  8
Pærer
 62
7
100
AcDbPolyline
 90
1
 70
1
 10
440.222780
 20
744.577716
 30
0.0
  0
SPLINE
  5
22f
100
AcDbEntity
  8
Pærer
 62
7
100
AcDbSpline
 70
8
 71
3
 72
8
 73
4
 74
0
 40
0
 40
0
 40
0
 40
0
 40
1
 40
1
 40
1
 40
1
 10
557.723270
 20
862.396286
 30
0.0
 10
551.864078
 20
862.396286
 30
0.0
 10
546.581819
 20
858.866794
 30
0.0
 10
544.339604
 20
853.453606
 30
0.0
  0
SPLINE
  5
230
100
AcDbEntity
  8
Pærer
 62
7
100
AcDbSpline
 70
8
 71
3
 72
8
 73
4
 74
0
 40
0
 40
0
 40
0
 40
0
 40
1
 40
1
 40
1
 40
1
 10
544.339604
 20
853.453606
 30
0.0
 10
542.097388
 20
848.040418
 30
0.0
 10
543.336781
 20
841.809570
 30
0.0
 10
547.479855
 20
837.666495
 30
0.0
  0
SPLINE
  5
231
100
AcDbEntity
  8
Pærer
 62
7
100
AcDbSpline
 70
8
 71
3
 72
8
 73
4
 74
0
 40
0
 40
0
 40
0
 40
0
 40
1
 40
1
 40
1
 40
1
 10
547.479855
 20
837.666495
 30
0.0
 10
551.622930
 20
833.523421
 30
0.0
 10
557.853778
 20
832.284028
 30
0.0
 10
563.266966
 20
834.526244
 30
0.0
  0
SPLINE
  5
232
100
AcDbEntity
  8
Pærer
 62
7
100
AcDbSpline
 70
8
 71
3
 72
8
 73
4
 74
0
 40
0
 40
0
 40
0
 40
0
 40
1
 40
1
 40
1
 40
1
 10
563.266966
 20
834.526244
 30
0.0
 10
568.680154
 20
836.768459
 30
0.0
 10
572.209646
 20
842.050718
 30
0.0
 10
572.209646
 20
847.909910
 30
0.0
  0
SPLINE
  5
233
100
AcDbEntity
  8
Pærer
 62
7
100
AcDbSpline
 70
8
 71
3
 72
8
 73
4
 74
0
 40
0
 40
0
 40
0
 40
0
 40
1
 40
1
 40
1
 40
1
 10
572.209646
 20
847.909910
 30
0.0
 10
572.209646
 20
851.751936
 30
0.0
 10
570.683407
 20
855.436602
 30
0.0
 10
567.966685
 20
858.153325
 30
0.0
  0
SPLINE
  5
234
100
AcDbEntity
  8
Pærer
 62
7
100
AcDbSpline
 70
8
 71
3
 72
8
 73
4
 74
0
 40
0
 40
0
 40
0
 40
0
 40
1
 40
1
 40
1
 40
1
 10
567.966685
 20
858.153325
 30
0.0
 10
565.249962
 20
860.870047
 30
0.0
 10
561.565296
 20
862.396286
 30
0.0
 10
557.723270
 20
862.396286
 30
0.0
  0
LWPOLYLINE
  5
235
100
AcDbEntity
  8
Pærer
 62
7
100
AcDbPolyline
 90
1
 70
1
 10
498.973020
 20
803.486986
 30
0.0
  0
SPLINE
  5
236
100
AcDbEntity
  8
Pærer
 62
7
100
AcDbSpline
 70
8
 71
3
 72
8
 73
4
 74
0
 40
0
 40
0
 40
0
 40
0
 40
1
 40
1
 40
1
 40
1
 10
616.473510
 20
921.305526
 30
0.0
 10
610.614318
 20
921.305526
 30
0.0
 10
605.332059
 20
917.776034
 30
0.0
 10
603.089844
 20
912.362846
 30
0.0
  0
SPLINE
  5
237
100
AcDbEntity
  8
Pærer
 62
7
100
AcDbSpline
 70
8
 71
3
 72
8
 73
4
 74
0
 40
0
 40
0
 40
0
 40
0
 40
1
 40
1
 40
1
 40
1
 10
603.089844
 20
912.362846
 30
0.0
 10
600.847628
 20
906.949658
 30
0.0
 10
602.087021
 20
900.718810
 30
0.0
 10
606.230095
 20
896.575735
 30
0.0
  0
SPLINE
  5
238
100
AcDbEntity
  8
Pærer
 62
7
100
AcDbSpline
 70
8
 71
3
 72
8
 73
4
 74
0
 40
0
 40
0
 40
0
 40
0
 40
1
 40
1
 40
1
 40
1
 10
606.230095
 20
896.575735
 30
0.0
 10
610.373170
 20
892.432661
 30
0.0
 10
616.604018
 20
891.193268
 30
0.0
 10
622.017206
 20
893.435484
 30
0.0
  0
SPLINE
  5
239
100
AcDbEntity
  8
Pærer
 62
7
100
AcDbSpline
 70
8
 71
3
 72
8
 73
4
 74
0
 40
0
 40
0
 40
0
 40
0
 40
1
 40
1
 40
1
 40
1
 10
622.017206
 20
893.435484
 30
0.0
 10
627.430394
 20
895.677699
 30
0.0
 10
630.959886
 20
900.959958
 30
0.0
 10
630.959886
 20
906.819150
 30
0.0
  0
SPLINE
  5
23a
100
AcDbEntity
  8
Pærer
 62
7
100
AcDbSpline
 70
8
 71
3
 72
8
 73
4
 74
0
 40
0
 40
0
 40
0
 40
0
 40
1
 40
1
 40
1
 40
1
 10
630.959886
 20
906.819150
 30
0.0
 10
630.959886
 20
910.661176
 30
0.0
 10
629.433647
 20
914.345842
 30
0.0
 10
626.716925
 20
917.062565
 30
0.0
  0
SPLINE
  5
23b
100
AcDbEntity
  8
Pærer
 62
7
100
AcDbSpline
 70
8
 71
3
 72
8
 73
4
 74
0
 40
0
 40
0
 40
0
 40
0
 40
1
 40
1
 40
1
 40
1
 10
626.716925
 20
917.062565
 30
0.0
 10
624.000202
 20
919.779287
 30
0.0
 10
620.315536
 20
921.305526
 30
0.0
 10
616.473510
 20
921.305526
 30
0.0
  0
LWPOLYLINE
  5
23c
100
AcDbEntity
  8
Pærer
 62
7
100
AcDbPolyline
 90
1
 70
1
 10
557.723270
 20
862.396286
 30
0.0
  0
SPLINE
  5
23d
100
AcDbEntity
  8
Pærer
 62
7
100
AcDbSpline
 70
8
 71
3
 72
8
 73
4
 74
0
 40
0
 40
0
 40
0
 40
0
 40
1
 40
1
 40
1
 40
1
 10
733.974000
 20
1039.124076
 30
0.0
 10
728.114808
 20
1039.124076
 30
0.0
 10
722.832549
 20
1035.594584
 30
0.0
 10
720.590334
 20
1030.181396
 30
0.0
  0
SPLINE
  5
23e
100
AcDbEntity
  8
Pærer
 62
7
100
AcDbSpline
 70
8
 71
3
 72
8
 73
4
 74
0
 40
0
 40
0
 40
0
 40
0
 40
1
 40
1
 40
1
 40
1
 10
720.590334
 20
1030.181396
 30
0.0
 10
718.348118
 20
1024.768208
 30
0.0
 10
719.587511
 20
1018.537360
 30
0.0
 10
723.730585
 20
1014.394285
 30
0.0
  0
SPLINE
  5
23f
100
AcDbEntity
  8
Pærer
 62
7
100
AcDbSpline
 70
8
 71
3
 72
8
 73
4
 74
0
 40
0
 40
0
 40
0
 40
0
 40
1
 40
1
 40
1
 40
1
 10
723.730585
 20
1014.394285
 30
0.0
 10
727.873660
 20
1010.251211
 30
0.0
 10
734.104508
 20
1009.011818
 30
0.0
 10
739.517696
 20
1011.254034
 30
0.0
  0
SPLINE
  5
240
100
AcDbEntity
  8
Pærer
 62
7
100
AcDbSpline
 70
8
 71
3
 72
8
 73
4
 74
0
 40
0
 40
0
 40
0
 40
0
 40
1
 40
1
 40
1
 40
1
 10
739.517696
 20
1011.254034
 30
0.0
 10
744.930884
 20
1013.496249
 30
0.0
 10
748.460376
 20
1018.778508
 30
0.0
 10
748.460376
 20
1024.637700
 30
0.0
  0
SPLINE
  5
241
100
AcDbEntity
  8
Pærer
 62
7
100
AcDbSpline
 70
8
 71
3
 72
8
 73
4
 74
0
 40
0
 40
0
 40
0
 40
0
 40
1
 40
1
 40
1
 40
1
 10
748.460376
 20
1024.637700
 30
0.0
 10
748.460376
 20
1028.479726
 30
0.0
 10
746.934137
 20
1032.164392
 30
0.0
 10
744.217415
 20
1034.881115
 30
0.0
  0
SPLINE
  5
242
100
AcDbEntity
  8
Pærer
 62
7
100
AcDbSpline
 70
8
 71
3
 72
8
 73
4
 74
0
 40
0
 40
0
 40
0
 40
0
 40
1
 40
1
 40
1
 40
1
 10
744.217415
 20
1034.881115
 30
0.0
 10
741.500692
 20
1037.597837
 30
0.0
 10
737.816026
 20
1039.124076
 30
0.0
 10
733.974000
 20
1039.124076
 30
0.0
  0
LWPOLYLINE
  5
243
100
AcDbEntity
  8
Pærer
 62
7
100
AcDbPolyline
 90
1
 70
1
 10
616.473510
 20
921.305526
 30
0.0
  0
SPLINE
  5
244
100
AcDbEntity
  8
Pærer
 62
7
100
AcDbSpline
 70
8
 71
3
 72
8
 73
4
 74
0
 40
0
 40
0
 40
0
 40
0
 40
1
 40
1
 40
1
 40
1
 10
792.724240
 20
1098.033376
 30
0.0
 10
786.865048
 20
1098.033376
 30
0.0
 10
781.582789
 20
1094.503884
 30
0.0
 10
779.340574
 20
1089.090696
 30
0.0
  0
SPLINE
  5
245
100
AcDbEntity
  8
Pærer
 62
7
100
AcDbSpline
 70
8
 71
3
 72
8
 73
4
 74
0
 40
0
 40
0
 40
0
 40
0
 40
1
 40
1
 40
1
 40
1
 10
779.340574
 20
1089.090696
 30
0.0
 10
777.098358
 20
1083.677508
 30
0.0
 10
778.337751
 20
1077.446660
 30
0.0
 10
782.480825
 20
1073.303585
 30
0.0
  0
SPLINE
  5
246
100
AcDbEntity
  8
Pærer
 62
7
100
AcDbSpline
 70
8
 71
3
 72
8
 73
4
 74
0
 40
0
 40
0
 40
0
 40
0
 40
1
 40
1
 40
1
 40
1
 10
782.480825
 20
1073.303585
 30
0.0
 10
786.623900
 20
1069.160511
 30
0.0
 10
792.854748
 20
1067.921118
 30
0.0
 10
798.267936
 20
1070.163334
 30
0.0
  0
SPLINE
  5
247
100
AcDbEntity
  8
Pærer
 62
7
100
AcDbSpline
 70
8
 71
3
 72
8
 73
4
 74
0
 40
0
 40
0
 40
0
 40
0
 40
1
 40
1
 40
1
 40
1
 10
798.267936
 20
1070.163334
 30
0.0
 10
803.681124
 20
1072.405549
 30
0.0
 10
807.210616
 20
1077.687808
 30
0.0
 10
807.210616
 20
1083.547000
 30
0.0
  0
SPLINE
  5
248
100
AcDbEntity
  8
Pærer
 62
7
100
AcDbSpline
 70
8
 71
3
 72
8
 73
4
 74
0
 40
0
 40
0
 40
0
 40
0
 40
1
 40
1
 40
1
 40
1
 10
807.210616
 20
1083.547000
 30
0.0
 10
807.210616
 20
1087.389026
 30
0.0
 10
805.684377
 20
1091.073692
 30
0.0
 10
802.967655
 20
1093.790415
 30
0.0
  0
SPLINE
  5
249
100
AcDbEntity
  8
Pærer
 62
7
100
AcDbSpline
 70
8
 71
3
 72
8
 73
4
 74
0
 40
0
 40
0
 40
0
 40
0
 40
1
 40
1
 40
1
 40
1
 10
802.967655
 20
1093.790415
 30
0.0
 10
800.250932
 20
1096.507137
 30
0.0
 10
796.566266
 20
1098.033376
 30
0.0
 10
792.724240
 20
1098.033376
 30
0.0
  0
LWPOLYLINE
  5
24a
100
AcDbEntity
  8
Pærer
 62
7
100
AcDbPolyline
 90
1
 70
1
 10
733.974000
 20
1039.124076
 30
0.0
  0
SPLINE
  5
24b
100
AcDbEntity
  8
Pærer
 62
7
100
AcDbSpline
 70
8
 71
3
 72
8
 73
4
 74
0
 40
0
 40
0
 40
0
 40
0
 40
1
 40
1
 40
1
 40
1
 10
518.505370
 20
74.882496
 30
0.0
 10
512.646178
 20
74.882496
 30
0.0
 10
507.363919
 20
71.353004
 30
0.0
 10
505.121704
 20
65.939816
 30
0.0
  0
SPLINE
  5
24c
100
AcDbEntity
  8
Pærer
 62
7
100
AcDbSpline
 70
8
 71
3
 72
8
 73
4
 74
0
 40
0
 40
0
 40
0
 40
0
 40
1
 40
1
 40
1
 40
1
 10
505.121704
 20
65.939816
 30
0.0
 10
502.879488
 20
60.526628
 30
0.0
 10
504.118881
 20
54.295780
 30
0.0
 10
508.261955
 20
50.152705
 30
0.0
  0
SPLINE
  5
24d
100
AcDbEntity
  8
Pærer
 62
7
100
AcDbSpline
 70
8
 71
3
 72
8
 73
4
 74
0
 40
0
 40
0
 40
0
 40
0
 40
1
 40
1
 40
1
 40
1
 10
508.261955
 20
50.152705
 30
0.0
 10
512.405030
 20
46.009631
 30
0.0
 10
518.635878
 20
44.770238
 30
0.0
 10
524.049066
 20
47.012454
 30
0.0
  0
SPLINE
  5
24e
100
AcDbEntity
  8
Pærer
 62
7
100
AcDbSpline
 70
8
 71
3
 72
8
 73
4
 74
0
 40
0
 40
0
 40
0
 40
0
 40
1
 40
1
 40
1
 40
1
 10
524.049066
 20
47.012454
 30
0.0
 10
529.462254
 20
49.254669
 30
0.0
 10
532.991746
 20
54.536928
 30
0.0
 10
532.991746
 20
60.396120
 30
0.0
  0
SPLINE
  5
24f
100
AcDbEntity
  8
Pærer
 62
7
100
AcDbSpline
 70
8
 71
3
 72
8
 73
4
 74
0
 40
0
 40
0
 40
0
 40
0
 40
1
 40
1
 40
1
 40
1
 10
532.991746
 20
60.396120
 30
0.0
 10
532.991746
 20
64.238146
 30
0.0
 10
531.465507
 20
67.922812
 30
0.0
 10
528.748785
 20
70.639535
 30
0.0
  0
SPLINE
  5
250
100
AcDbEntity
  8
Pærer
 62
7
100
AcDbSpline
 70
8
 71
3
 72
8
 73
4
 74
0
 40
0
 40
0
 40
0
 40
0
 40
1
 40
1
 40
1
 40
1
 10
528.748785
 20
70.639535
 30
0.0
 10
526.032062
 20
73.356257
 30
0.0
 10
522.347396
 20
74.882496
 30
0.0
 10
518.505370
 20
74.882496
 30
0.0
  0
LWPOLYLINE
  5
251
100
AcDbEntity
  8
Pærer
 62
7
100
AcDbPolyline
 90
1
 70
1
 10
792.724240
 20
1098.033376
 30
0.0
  0
SPLINE
  5
252
100
AcDbEntity
  8
Pærer
 62
7
100
AcDbSpline
 70
8
 71
3
 72
8
 73
4
 74
0
 40
0
 40
0
 40
0
 40
0
 40
1
 40
1
 40
1
 40
1
 10
576.377690
 20
132.400266
 30
0.0
 10
570.518498
 20
132.400266
 30
0.0
 10
565.236239
 20
128.870774
 30
0.0
 10
562.994024
 20
123.457586
 30
0.0
  0
SPLINE
  5
253
100
AcDbEntity
  8
Pærer
 62
7
100
AcDbSpline
 70
8
 71
3
 72
8
 73
4
 74
0
 40
0
 40
0
 40
0
 40
0
 40
1
 40
1
 40
1
 40
1
 10
562.994024
 20
123.457586
 30
0.0
 10
560.751808
 20
118.044398
 30
0.0
 10
561.991201
 20
111.813550
 30
0.0
 10
566.134275
 20
107.670475
 30
0.0
  0
SPLINE
  5
254
100
AcDbEntity
  8
Pærer
 62
7
100
AcDbSpline
 70
8
 71
3
 72
8
 73
4
 74
0
 40
0
 40
0
 40
0
 40
0
 40
1
 40
1
 40
1
 40
1
 10
566.134275
 20
107.670475
 30
0.0
 10
570.277350
 20
103.527401
 30
0.0
 10
576.508198
 20
102.288008
 30
0.0
 10
581.921386
 20
104.530224
 30
0.0
  0
SPLINE
  5
255
100
AcDbEntity
  8
Pærer
 62
7
100
AcDbSpline
 70
8
 71
3
 72
8
 73
4
 74
0
 40
0
 40
0
 40
0
 40
0
 40
1
 40
1
 40
1
 40
1
 10
581.921386
 20
104.530224
 30
0.0
 10
587.334574
 20
106.772439
 30
0.0
 10
590.864066
 20
112.054698
 30
0.0
 10
590.864066
 20
117.913890
 30
0.0
  0
SPLINE
  5
256
100
AcDbEntity
  8
Pærer
 62
7
100
AcDbSpline
 70
8
 71
3
 72
8
 73
4
 74
0
 40
0
 40
0
 40
0
 40
0
 40
1
 40
1
 40
1
 40
1
 10
590.864066
 20
117.913890
 30
0.0
 10
590.864066
 20
121.755916
 30
0.0
 10
589.337827
 20
125.440582
 30
0.0
 10
586.621105
 20
128.157305
 30
0.0
  0
SPLINE
  5
257
100
AcDbEntity
  8
Pærer
 62
7
100
AcDbSpline
 70
8
 71
3
 72
8
 73
4
 74
0
 40
0
 40
0
 40
0
 40
0
 40
1
 40
1
 40
1
 40
1
 10
586.621105
 20
128.157305
 30
0.0
 10
583.904382
 20
130.874027
 30
0.0
 10
580.219716
 20
132.400266
 30
0.0
 10
576.377690
 20
132.400266
 30
0.0
  0
LWPOLYLINE
  5
258
100
AcDbEntity
  8
Pærer
 62
7
100
AcDbPolyline
 90
1
 70
1
 10
518.505370
 20
74.882496
 30
0.0
  0
SPLINE
  5
259
100
AcDbEntity
  8
Pærer
 62
7
100
AcDbSpline
 70
8
 71
3
 72
8
 73
4
 74
0
 40
0
 40
0
 40
0
 40
0
 40
1
 40
1
 40
1
 40
1
 10
634.250060
 20
189.918046
 30
0.0
 10
628.390868
 20
189.918046
 30
0.0
 10
623.108609
 20
186.388554
 30
0.0
 10
620.866394
 20
180.975366
 30
0.0
  0
SPLINE
  5
25a
100
AcDbEntity
  8
Pærer
 62
7
100
AcDbSpline
 70
8
 71
3
 72
8
 73
4
 74
0
 40
0
 40
0
 40
0
 40
0
 40
1
 40
1
 40
1
 40
1
 10
620.866394
 20
180.975366
 30
0.0
 10
618.624178
 20
175.562178
 30
0.0
 10
619.863571
 20
169.331330
 30
0.0
 10
624.006645
 20
165.188255
 30
0.0
  0
SPLINE
  5
25b
100
AcDbEntity
  8
Pærer
 62
7
100
AcDbSpline
 70
8
 71
3
 72
8
 73
4
 74
0
 40
0
 40
0
 40
0
 40
0
 40
1
 40
1
 40
1
 40
1
 10
624.006645
 20
165.188255
 30
0.0
 10
628.149720
 20
161.045181
 30
0.0
 10
634.380568
 20
159.805788
 30
0.0
 10
639.793756
 20
162.048004
 30
0.0
  0
SPLINE
  5
25c
100
AcDbEntity
  8
Pærer
 62
7
100
AcDbSpline
 70
8
 71
3
 72
8
 73
4
 74
0
 40
0
 40
0
 40
0
 40
0
 40
1
 40
1
 40
1
 40
1
 10
639.793756
 20
162.048004
 30
0.0
 10
645.206944
 20
164.290219
 30
0.0
 10
648.736436
 20
169.572478
 30
0.0
 10
648.736436
 20
175.431670
 30
0.0
  0
SPLINE
  5
25d
100
AcDbEntity
  8
Pærer
 62
7
100
AcDbSpline
 70
8
 71
3
 72
8
 73
4
 74
0
 40
0
 40
0
 40
0
 40
0
 40
1
 40
1
 40
1
 40
1
 10
648.736436
 20
175.431670
 30
0.0
 10
648.736436
 20
179.273696
 30
0.0
 10
647.210197
 20
182.958362
 30
0.0
 10
644.493475
 20
185.675085
 30
0.0
  0
SPLINE
  5
25e
100
AcDbEntity
  8
Pærer
 62
7
100
AcDbSpline
 70
8
 71
3
 72
8
 73
4
 74
0
 40
0
 40
0
 40
0
 40
0
 40
1
 40
1
 40
1
 40
1
 10
644.493475
 20
185.675085
 30
0.0
 10
641.776752
 20
188.391807
 30
0.0
 10
638.092086
 20
189.918046
 30
0.0
 10
634.250060
 20
189.918046
 30
0.0
  0
LWPOLYLINE
  5
25f
100
AcDbEntity
  8
Pærer
 62
7
100
AcDbPolyline
 90
1
 70
1
 10
576.377690
 20
132.400266
 30
0.0
  0
SPLINE
  5
260
100
AcDbEntity
  8
Pærer
 62
7
100
AcDbSpline
 70
8
 71
3
 72
8
 73
4
 74
0
 40
0
 40
0
 40
0
 40
0
 40
1
 40
1
 40
1
 40
1
 10
1270.845800
 20
822.613606
 30
0.0
 10
1264.986608
 20
822.613606
 30
0.0
 10
1259.704349
 20
819.084114
 30
0.0
 10
1257.462134
 20
813.670926
 30
0.0
  0
SPLINE
  5
261
100
AcDbEntity
  8
Pærer
 62
7
100
AcDbSpline
 70
8
 71
3
 72
8
 73
4
 74
0
 40
0
 40
0
 40
0
 40
0
 40
1
 40
1
 40
1
 40
1
 10
1257.462134
 20
813.670926
 30
0.0
 10
1255.219918
 20
808.257738
 30
0.0
 10
1256.459311
 20
802.026890
 30
0.0
 10
1260.602385
 20
797.883815
 30
0.0
  0
SPLINE
  5
262
100
AcDbEntity
  8
Pærer
 62
7
100
AcDbSpline
 70
8
 71
3
 72
8
 73
4
 74
0
 40
0
 40
0
 40
0
 40
0
 40
1
 40
1
 40
1
 40
1
 10
1260.602385
 20
797.883815
 30
0.0
 10
1264.745460
 20
793.740741
 30
0.0
 10
1270.976308
 20
792.501348
 30
0.0
 10
1276.389496
 20
794.743564
 30
0.0
  0
SPLINE
  5
263
100
AcDbEntity
  8
Pærer
 62
7
100
AcDbSpline
 70
8
 71
3
 72
8
 73
4
 74
0
 40
0
 40
0
 40
0
 40
0
 40
1
 40
1
 40
1
 40
1
 10
1276.389496
 20
794.743564
 30
0.0
 10
1281.802684
 20
796.985779
 30
0.0
 10
1285.332176
 20
802.268038
 30
0.0
 10
1285.332176
 20
808.127230
 30
0.0
  0
SPLINE
  5
264
100
AcDbEntity
  8
Pærer
 62
7
100
AcDbSpline
 70
8
 71
3
 72
8
 73
4
 74
0
 40
0
 40
0
 40
0
 40
0
 40
1
 40
1
 40
1
 40
1
 10
1285.332176
 20
808.127230
 30
0.0
 10
1285.332176
 20
811.969256
 30
0.0
 10
1283.805937
 20
815.653922
 30
0.0
 10
1281.089215
 20
818.370645
 30
0.0
  0
SPLINE
  5
265
100
AcDbEntity
  8
Pærer
 62
7
100
AcDbSpline
 70
8
 71
3
 72
8
 73
4
 74
0
 40
0
 40
0
 40
0
 40
0
 40
1
 40
1
 40
1
 40
1
 10
1281.089215
 20
818.370645
 30
0.0
 10
1278.372492
 20
821.087367
 30
0.0
 10
1274.687826
 20
822.613606
 30
0.0
 10
1270.845800
 20
822.613606
 30
0.0
  0
LWPOLYLINE
  5
266
100
AcDbEntity
  8
Pærer
 62
7
100
AcDbPolyline
 90
1
 70
1
 10
634.250060
 20
189.918046
 30
0.0
  0
SPLINE
  5
267
100
AcDbEntity
  8
Pærer
 62
7
100
AcDbSpline
 70
8
 71
3
 72
8
 73
4
 74
0
 40
0
 40
0
 40
0
 40
0
 40
1
 40
1
 40
1
 40
1
 10
1328.718100
 20
880.131396
 30
0.0
 10
1322.858908
 20
880.131396
 30
0.0
 10
1317.576649
 20
876.601904
 30
0.0
 10
1315.334434
 20
871.188716
 30
0.0
  0
SPLINE
  5
268
100
AcDbEntity
  8
Pærer
 62
7
100
AcDbSpline
 70
8
 71
3
 72
8
 73
4
 74
0
 40
0
 40
0
 40
0
 40
0
 40
1
 40
1
 40
1
 40
1
 10
1315.334434
 20
871.188716
 30
0.0
 10
1313.092218
 20
865.775528
 30
0.0
 10
1314.331611
 20
859.544680
 30
0.0
 10
1318.474685
 20
855.401605
 30
0.0
  0
SPLINE
  5
269
100
AcDbEntity
  8
Pærer
 62
7
100
AcDbSpline
 70
8
 71
3
 72
8
 73
4
 74
0
 40
0
 40
0
 40
0
 40
0
 40
1
 40
1
 40
1
 40
1
 10
1318.474685
 20
855.401605
 30
0.0
 10
1322.617760
 20
851.258531
 30
0.0
 10
1328.848608
 20
850.019138
 30
0.0
 10
1334.261796
 20
852.261354
 30
0.0
  0
SPLINE
  5
26a
100
AcDbEntity
  8
Pærer
 62
7
100
AcDbSpline
 70
8
 71
3
 72
8
 73
4
 74
0
 40
0
 40
0
 40
0
 40
0
 40
1
 40
1
 40
1
 40
1
 10
1334.261796
 20
852.261354
 30
0.0
 10
1339.674984
 20
854.503569
 30
0.0
 10
1343.204476
 20
859.785828
 30
0.0
 10
1343.204476
 20
865.645020
 30
0.0
  0
SPLINE
  5
26b
100
AcDbEntity
  8
Pærer
 62
7
100
AcDbSpline
 70
8
 71
3
 72
8
 73
4
 74
0
 40
0
 40
0
 40
0
 40
0
 40
1
 40
1
 40
1
 40
1
 10
1343.204476
 20
865.645020
 30
0.0
 10
1343.204476
 20
869.487046
 30
0.0
 10
1341.678237
 20
873.171712
 30
0.0
 10
1338.961515
 20
875.888435
 30
0.0
  0
SPLINE
  5
26c
100
AcDbEntity
  8
Pærer
 62
7
100
AcDbSpline
 70
8
 71
3
 72
8
 73
4
 74
0
 40
0
 40
0
 40
0
 40
0
 40
1
 40
1
 40
1
 40
1
 10
1338.961515
 20
875.888435
 30
0.0
 10
1336.244792
 20
878.605157
 30
0.0
 10
1332.560126
 20
880.131396
 30
0.0
 10
1328.718100
 20
880.131396
 30
0.0
  0
LWPOLYLINE
  5
26d
100
AcDbEntity
  8
Pærer
 62
7
100
AcDbPolyline
 90
1
 70
1
 10
1270.845800
 20
822.613606
 30
0.0
  0
SPLINE
  5
26e
100
AcDbEntity
  8
Pærer
 62
7
100
AcDbSpline
 70
8
 71
3
 72
8
 73
4
 74
0
 40
0
 40
0
 40
0
 40
0
 40
1
 40
1
 40
1
 40
1
 10
1386.590500
 20
937.649156
 30
0.0
 10
1378.589895
 20
937.649156
 30
0.0
 10
1372.104124
 20
931.163385
 30
0.0
 10
1372.104124
 20
923.162780
 30
0.0
  0
SPLINE
  5
26f
100
AcDbEntity
  8
Pærer
 62
7
100
AcDbSpline
 70
8
 71
3
 72
8
 73
4
 74
0
 40
0
 40
0
 40
0
 40
0
 40
1
 40
1
 40
1
 40
1
 10
1372.104124
 20
923.162780
 30
0.0
 10
1372.104124
 20
915.162175
 30
0.0
 10
1378.589895
 20
908.676404
 30
0.0
 10
1386.590500
 20
908.676404
 30
0.0
  0
SPLINE
  5
270
100
AcDbEntity
  8
Pærer
 62
7
100
AcDbSpline
 70
8
 71
3
 72
8
 73
4
 74
0
 40
0
 40
0
 40
0
 40
0
 40
1
 40
1
 40
1
 40
1
 10
1386.590500
 20
908.676404
 30
0.0
 10
1394.591105
 20
908.676404
 30
0.0
 10
1401.076876
 20
915.162175
 30
0.0
 10
1401.076876
 20
923.162780
 30
0.0
  0
SPLINE
  5
271
100
AcDbEntity
  8
Pærer
 62
7
100
AcDbSpline
 70
8
 71
3
 72
8
 73
4
 74
0
 40
0
 40
0
 40
0
 40
0
 40
1
 40
1
 40
1
 40
1
 10
1401.076876
 20
923.162780
 30
0.0
 10
1401.076876
 20
927.004806
 30
0.0
 10
1399.550637
 20
930.689472
 30
0.0
 10
1396.833915
 20
933.406195
 30
0.0
  0
SPLINE
  5
272
100
AcDbEntity
  8
Pærer
 62
7
100
AcDbSpline
 70
8
 71
3
 72
8
 73
4
 74
0
 40
0
 40
0
 40
0
 40
0
 40
1
 40
1
 40
1
 40
1
 10
1396.833915
 20
933.406195
 30
0.0
 10
1394.117192
 20
936.122917
 30
0.0
 10
1390.432526
 20
937.649156
 30
0.0
 10
1386.590500
 20
937.649156
 30
0.0
  0
LWPOLYLINE
  5
273
100
AcDbEntity
  8
Pærer
 62
7
100
AcDbPolyline
 90
1
 70
1
 10
1328.718100
 20
880.131396
 30
0.0
  0
SPLINE
  5
274
100
AcDbEntity
  8
Pærer
 62
7
100
AcDbSpline
 70
8
 71
3
 72
8
 73
4
 74
0
 40
0
 40
0
 40
0
 40
0
 40
1
 40
1
 40
1
 40
1
 10
1039.356400
 20
592.542496
 30
0.0
 10
1033.497208
 20
592.542496
 30
0.0
 10
1028.214949
 20
589.013004
 30
0.0
 10
1025.972734
 20
583.599816
 30
0.0
  0
SPLINE
  5
275
100
AcDbEntity
  8
Pærer
 62
7
100
AcDbSpline
 70
8
 71
3
 72
8
 73
4
 74
0
 40
0
 40
0
 40
0
 40
0
 40
1
 40
1
 40
1
 40
1
 10
1025.972734
 20
583.599816
 30
0.0
 10
1023.730518
 20
578.186628
 30
0.0
 10
1024.969911
 20
571.955780
 30
0.0
 10
1029.112985
 20
567.812705
 30
0.0
  0
SPLINE
  5
276
100
AcDbEntity
  8
Pærer
 62
7
100
AcDbSpline
 70
8
 71
3
 72
8
 73
4
 74
0
 40
0
 40
0
 40
0
 40
0
 40
1
 40
1
 40
1
 40
1
 10
1029.112985
 20
567.812705
 30
0.0
 10
1033.256060
 20
563.669631
 30
0.0
 10
1039.486908
 20
562.430238
 30
0.0
 10
1044.900096
 20
564.672454
 30
0.0
  0
SPLINE
  5
277
100
AcDbEntity
  8
Pærer
 62
7
100
AcDbSpline
 70
8
 71
3
 72
8
 73
4
 74
0
 40
0
 40
0
 40
0
 40
0
 40
1
 40
1
 40
1
 40
1
 10
1044.900096
 20
564.672454
 30
0.0
 10
1050.313284
 20
566.914669
 30
0.0
 10
1053.842776
 20
572.196928
 30
0.0
 10
1053.842776
 20
578.056120
 30
0.0
  0
SPLINE
  5
278
100
AcDbEntity
  8
Pærer
 62
7
100
AcDbSpline
 70
8
 71
3
 72
8
 73
4
 74
0
 40
0
 40
0
 40
0
 40
0
 40
1
 40
1
 40
1
 40
1
 10
1053.842776
 20
578.056120
 30
0.0
 10
1053.842776
 20
581.898146
 30
0.0
 10
1052.316537
 20
585.582812
 30
0.0
 10
1049.599815
 20
588.299535
 30
0.0
  0
SPLINE
  5
279
100
AcDbEntity
  8
Pærer
 62
7
100
AcDbSpline
 70
8
 71
3
 72
8
 73
4
 74
0
 40
0
 40
0
 40
0
 40
0
 40
1
 40
1
 40
1
 40
1
 10
1049.599815
 20
588.299535
 30
0.0
 10
1046.883092
 20
591.016257
 30
0.0
 10
1043.198426
 20
592.542496
 30
0.0
 10
1039.356400
 20
592.542496
 30
0.0
  0
LWPOLYLINE
  5
27a
100
AcDbEntity
  8
Pærer
 62
7
100
AcDbPolyline
 90
1
 70
1
 10
1386.590500
 20
937.649156
 30
0.0
  0
SPLINE
  5
27b
100
AcDbEntity
  8
Pærer
 62
7
100
AcDbSpline
 70
8
 71
3
 72
8
 73
4
 74
0
 40
0
 40
0
 40
0
 40
0
 40
1
 40
1
 40
1
 40
1
 10
692.122380
 20
247.435824
 30
0.0
 10
686.263188
 20
247.435824
 30
0.0
 10
680.980929
 20
243.906332
 30
0.0
 10
678.738714
 20
238.493144
 30
0.0
  0
SPLINE
  5
27c
100
AcDbEntity
  8
Pærer
 62
7
100
AcDbSpline
 70
8
 71
3
 72
8
 73
4
 74
0
 40
0
 40
0
 40
0
 40
0
 40
1
 40
1
 40
1
 40
1
 10
678.738714
 20
238.493144
 30
0.0
 10
676.496498
 20
233.079956
 30
0.0
 10
677.735891
 20
226.849108
 30
0.0
 10
681.878965
 20
222.706033
 30
0.0
  0
SPLINE
  5
27d
100
AcDbEntity
  8
Pærer
 62
7
100
AcDbSpline
 70
8
 71
3
 72
8
 73
4
 74
0
 40
0
 40
0
 40
0
 40
0
 40
1
 40
1
 40
1
 40
1
 10
681.878965
 20
222.706033
 30
0.0
 10
686.022040
 20
218.562959
 30
0.0
 10
692.252888
 20
217.323566
 30
0.0
 10
697.666076
 20
219.565782
 30
0.0
  0
SPLINE
  5
27e
100
AcDbEntity
  8
Pærer
 62
7
100
AcDbSpline
 70
8
 71
3
 72
8
 73
4
 74
0
 40
0
 40
0
 40
0
 40
0
 40
1
 40
1
 40
1
 40
1
 10
697.666076
 20
219.565782
 30
0.0
 10
703.079264
 20
221.807997
 30
0.0
 10
706.608756
 20
227.090256
 30
0.0
 10
706.608756
 20
232.949448
 30
0.0
  0
SPLINE
  5
27f
100
AcDbEntity
  8
Pærer
 62
7
100
AcDbSpline
 70
8
 71
3
 72
8
 73
4
 74
0
 40
0
 40
0
 40
0
 40
0
 40
1
 40
1
 40
1
 40
1
 10
706.608756
 20
232.949448
 30
0.0
 10
706.608756
 20
236.791474
 30
0.0
 10
705.082517
 20
240.476140
 30
0.0
 10
702.365795
 20
243.192863
 30
0.0
  0
SPLINE
  5
280
100
AcDbEntity
  8
Pærer
 62
7
100
AcDbSpline
 70
8
 71
3
 72
8
 73
4
 74
0
 40
0
 40
0
 40
0
 40
0
 40
1
 40
1
 40
1
 40
1
 10
702.365795
 20
243.192863
 30
0.0
 10
699.649072
 20
245.909585
 30
0.0
 10
695.964406
 20
247.435824
 30
0.0
 10
692.122380
 20
247.435824
 30
0.0
  0
LWPOLYLINE
  5
281
100
AcDbEntity
  8
Pærer
 62
7
100
AcDbPolyline
 90
1
 70
1
 10
1039.356400
 20
592.542496
 30
0.0
  0
SPLINE
  5
282
100
AcDbEntity
  8
Pærer
 62
7
100
AcDbSpline
 70
8
 71
3
 72
8
 73
4
 74
0
 40
0
 40
0
 40
0
 40
0
 40
1
 40
1
 40
1
 40
1
 10
749.994750
 20
304.953604
 30
0.0
 10
744.135558
 20
304.953604
 30
0.0
 10
738.853299
 20
301.424112
 30
0.0
 10
736.611084
 20
296.010924
 30
0.0
  0
SPLINE
  5
283
100
AcDbEntity
  8
Pærer
 62
7
100
AcDbSpline
 70
8
 71
3
 72
8
 73
4
 74
0
 40
0
 40
0
 40
0
 40
0
 40
1
 40
1
 40
1
 40
1
 10
736.611084
 20
296.010924
 30
0.0
 10
734.368868
 20
290.597737
 30
0.0
 10
735.608261
 20
284.366888
 30
0.0
 10
739.751335
 20
280.223814
 30
0.0
  0
SPLINE
  5
284
100
AcDbEntity
  8
Pærer
 62
7
100
AcDbSpline
 70
8
 71
3
 72
8
 73
4
 74
0
 40
0
 40
0
 40
0
 40
0
 40
1
 40
1
 40
1
 40
1
 10
739.751335
 20
280.223814
 30
0.0
 10
743.894410
 20
276.080739
 30
0.0
 10
750.125258
 20
274.841346
 30
0.0
 10
755.538446
 20
277.083562
 30
0.0
  0
SPLINE
  5
285
100
AcDbEntity
  8
Pærer
 62
7
100
AcDbSpline
 70
8
 71
3
 72
8
 73
4
 74
0
 40
0
 40
0
 40
0
 40
0
 40
1
 40
1
 40
1
 40
1
 10
755.538446
 20
277.083562
 30
0.0
 10
760.951634
 20
279.325778
 30
0.0
 10
764.481126
 20
284.608036
 30
0.0
 10
764.481126
 20
290.467228
 30
0.0
  0
SPLINE
  5
286
100
AcDbEntity
  8
Pærer
 62
7
100
AcDbSpline
 70
8
 71
3
 72
8
 73
4
 74
0
 40
0
 40
0
 40
0
 40
0
 40
1
 40
1
 40
1
 40
1
 10
764.481126
 20
290.467228
 30
0.0
 10
764.481126
 20
294.309254
 30
0.0
 10
762.954887
 20
297.993921
 30
0.0
 10
760.238165
 20
300.710643
 30
0.0
  0
SPLINE
  5
287
100
AcDbEntity
  8
Pærer
 62
7
100
AcDbSpline
 70
8
 71
3
 72
8
 73
4
 74
0
 40
0
 40
0
 40
0
 40
0
 40
1
 40
1
 40
1
 40
1
 10
760.238165
 20
300.710643
 30
0.0
 10
757.521442
 20
303.427366
 30
0.0
 10
753.836776
 20
304.953604
 30
0.0
 10
749.994750
 20
304.953604
 30
0.0
  0
LWPOLYLINE
  5
288
100
AcDbEntity
  8
Pærer
 62
7
100
AcDbPolyline
 90
1
 70
1
 10
692.122380
 20
247.435824
 30
0.0
  0
SPLINE
  5
289
100
AcDbEntity
  8
Pærer
 62
7
100
AcDbSpline
 70
8
 71
3
 72
8
 73
4
 74
0
 40
0
 40
0
 40
0
 40
0
 40
1
 40
1
 40
1
 40
1
 10
807.867070
 20
362.471380
 30
0.0
 10
802.007878
 20
362.471380
 30
0.0
 10
796.725619
 20
358.941888
 30
0.0
 10
794.483404
 20
353.528700
 30
0.0
  0
SPLINE
  5
28a
100
AcDbEntity
  8
Pærer
 62
7
100
AcDbSpline
 70
8
 71
3
 72
8
 73
4
 74
0
 40
0
 40
0
 40
0
 40
0
 40
1
 40
1
 40
1
 40
1
 10
794.483404
 20
353.528700
 30
0.0
 10
792.241188
 20
348.115512
 30
0.0
 10
793.480581
 20
341.884664
 30
0.0
 10
797.623655
 20
337.741589
 30
0.0
  0
SPLINE
  5
28b
100
AcDbEntity
  8
Pærer
 62
7
100
AcDbSpline
 70
8
 71
3
 72
8
 73
4
 74
0
 40
0
 40
0
 40
0
 40
0
 40
1
 40
1
 40
1
 40
1
 10
797.623655
 20
337.741589
 30
0.0
 10
801.766730
 20
333.598515
 30
0.0
 10
807.997578
 20
332.359122
 30
0.0
 10
813.410766
 20
334.601338
 30
0.0
  0
SPLINE
  5
28c
100
AcDbEntity
  8
Pærer
 62
7
100
AcDbSpline
 70
8
 71
3
 72
8
 73
4
 74
0
 40
0
 40
0
 40
0
 40
0
 40
1
 40
1
 40
1
 40
1
 10
813.410766
 20
334.601338
 30
0.0
 10
818.823954
 20
336.843553
 30
0.0
 10
822.353446
 20
342.125812
 30
0.0
 10
822.353446
 20
347.985004
 30
0.0
  0
SPLINE
  5
28d
100
AcDbEntity
  8
Pærer
 62
7
100
AcDbSpline
 70
8
 71
3
 72
8
 73
4
 74
0
 40
0
 40
0
 40
0
 40
0
 40
1
 40
1
 40
1
 40
1
 10
822.353446
 20
347.985004
 30
0.0
 10
822.353446
 20
351.827030
 30
0.0
 10
820.827207
 20
355.511696
 30
0.0
 10
818.110485
 20
358.228419
 30
0.0
  0
SPLINE
  5
28e
100
AcDbEntity
  8
Pærer
 62
7
100
AcDbSpline
 70
8
 71
3
 72
8
 73
4
 74
0
 40
0
 40
0
 40
0
 40
0
 40
1
 40
1
 40
1
 40
1
 10
818.110485
 20
358.228419
 30
0.0
 10
815.393762
 20
360.945141
 30
0.0
 10
811.709096
 20
362.471380
 30
0.0
 10
807.867070
 20
362.471380
 30
0.0
  0
LWPOLYLINE
  5
28f
100
AcDbEntity
  8
Pærer
 62
7
100
AcDbPolyline
 90
1
 70
1
 10
749.994750
 20
304.953604
 30
0.0
  0
SPLINE
  5
290
100
AcDbEntity
  8
Pærer
 62
7
100
AcDbSpline
 70
8
 71
3
 72
8
 73
4
 74
0
 40
0
 40
0
 40
0
 40
0
 40
1
 40
1
 40
1
 40
1
 10
865.739380
 20
419.989156
 30
0.0
 10
859.880188
 20
419.989156
 30
0.0
 10
854.597929
 20
416.459664
 30
0.0
 10
852.355714
 20
411.046476
 30
0.0
  0
SPLINE
  5
291
100
AcDbEntity
  8
Pærer
 62
7
100
AcDbSpline
 70
8
 71
3
 72
8
 73
4
 74
0
 40
0
 40
0
 40
0
 40
0
 40
1
 40
1
 40
1
 40
1
 10
852.355714
 20
411.046476
 30
0.0
 10
850.113498
 20
405.633288
 30
0.0
 10
851.352891
 20
399.402440
 30
0.0
 10
855.495965
 20
395.259365
 30
0.0
  0
SPLINE
  5
292
100
AcDbEntity
  8
Pærer
 62
7
100
AcDbSpline
 70
8
 71
3
 72
8
 73
4
 74
0
 40
0
 40
0
 40
0
 40
0
 40
1
 40
1
 40
1
 40
1
 10
855.495965
 20
395.259365
 30
0.0
 10
859.639040
 20
391.116291
 30
0.0
 10
865.869888
 20
389.876898
 30
0.0
 10
871.283076
 20
392.119114
 30
0.0
  0
SPLINE
  5
293
100
AcDbEntity
  8
Pærer
 62
7
100
AcDbSpline
 70
8
 71
3
 72
8
 73
4
 74
0
 40
0
 40
0
 40
0
 40
0
 40
1
 40
1
 40
1
 40
1
 10
871.283076
 20
392.119114
 30
0.0
 10
876.696264
 20
394.361329
 30
0.0
 10
880.225756
 20
399.643588
 30
0.0
 10
880.225756
 20
405.502780
 30
0.0
  0
SPLINE
  5
294
100
AcDbEntity
  8
Pærer
 62
7
100
AcDbSpline
 70
8
 71
3
 72
8
 73
4
 74
0
 40
0
 40
0
 40
0
 40
0
 40
1
 40
1
 40
1
 40
1
 10
880.225756
 20
405.502780
 30
0.0
 10
880.225756
 20
409.344806
 30
0.0
 10
878.699517
 20
413.029472
 30
0.0
 10
875.982795
 20
415.746195
 30
0.0
  0
SPLINE
  5
295
100
AcDbEntity
  8
Pærer
 62
7
100
AcDbSpline
 70
8
 71
3
 72
8
 73
4
 74
0
 40
0
 40
0
 40
0
 40
0
 40
1
 40
1
 40
1
 40
1
 10
875.982795
 20
415.746195
 30
0.0
 10
873.266072
 20
418.462917
 30
0.0
 10
869.581406
 20
419.989156
 30
0.0
 10
865.739380
 20
419.989156
 30
0.0
  0
LWPOLYLINE
  5
296
100
AcDbEntity
  8
Pærer
 62
7
100
AcDbPolyline
 90
1
 70
1
 10
807.867070
 20
362.471380
 30
0.0
  0
SPLINE
  5
297
100
AcDbEntity
  8
Pærer
 62
7
100
AcDbSpline
 70
8
 71
3
 72
8
 73
4
 74
0
 40
0
 40
0
 40
0
 40
0
 40
1
 40
1
 40
1
 40
1
 10
923.611760
 20
477.506926
 30
0.0
 10
917.752568
 20
477.506926
 30
0.0
 10
912.470309
 20
473.977434
 30
0.0
 10
910.228094
 20
468.564246
 30
0.0
  0
SPLINE
  5
298
100
AcDbEntity
  8
Pærer
 62
7
100
AcDbSpline
 70
8
 71
3
 72
8
 73
4
 74
0
 40
0
 40
0
 40
0
 40
0
 40
1
 40
1
 40
1
 40
1
 10
910.228094
 20
468.564246
 30
0.0
 10
907.985878
 20
463.151058
 30
0.0
 10
909.225271
 20
456.920210
 30
0.0
 10
913.368345
 20
452.777135
 30
0.0
  0
SPLINE
  5
299
100
AcDbEntity
  8
Pærer
 62
7
100
AcDbSpline
 70
8
 71
3
 72
8
 73
4
 74
0
 40
0
 40
0
 40
0
 40
0
 40
1
 40
1
 40
1
 40
1
 10
913.368345
 20
452.777135
 30
0.0
 10
917.511420
 20
448.634061
 30
0.0
 10
923.742268
 20
447.394668
 30
0.0
 10
929.155456
 20
449.636884
 30
0.0
  0
SPLINE
  5
29a
100
AcDbEntity
  8
Pærer
 62
7
100
AcDbSpline
 70
8
 71
3
 72
8
 73
4
 74
0
 40
0
 40
0
 40
0
 40
0
 40
1
 40
1
 40
1
 40
1
 10
929.155456
 20
449.636884
 30
0.0
 10
934.568644
 20
451.879099
 30
0.0
 10
938.098136
 20
457.161358
 30
0.0
 10
938.098136
 20
463.020550
 30
0.0
  0
SPLINE
  5
29b
100
AcDbEntity
  8
Pærer
 62
7
100
AcDbSpline
 70
8
 71
3
 72
8
 73
4
 74
0
 40
0
 40
0
 40
0
 40
0
 40
1
 40
1
 40
1
 40
1
 10
938.098136
 20
463.020550
 30
0.0
 10
938.098136
 20
466.862576
 30
0.0
 10
936.571897
 20
470.547242
 30
0.0
 10
933.855175
 20
473.263965
 30
0.0
  0
SPLINE
  5
29c
100
AcDbEntity
  8
Pærer
 62
7
100
AcDbSpline
 70
8
 71
3
 72
8
 73
4
 74
0
 40
0
 40
0
 40
0
 40
0
 40
1
 40
1
 40
1
 40
1
 10
933.855175
 20
473.263965
 30
0.0
 10
931.138452
 20
475.980687
 30
0.0
 10
927.453786
 20
477.506926
 30
0.0
 10
923.611760
 20
477.506926
 30
0.0
  0
LWPOLYLINE
  5
29d
100
AcDbEntity
  8
Pærer
 62
7
100
AcDbPolyline
 90
1
 70
1
 10
865.739380
 20
419.989156
 30
0.0
  0
SPLINE
  5
29e
100
AcDbEntity
  8
Pærer
 62
7
100
AcDbSpline
 70
8
 71
3
 72
8
 73
4
 74
0
 40
0
 40
0
 40
0
 40
0
 40
1
 40
1
 40
1
 40
1
 10
981.484070
 20
535.024726
 30
0.0
 10
975.624878
 20
535.024726
 30
0.0
 10
970.342619
 20
531.495234
 30
0.0
 10
968.100404
 20
526.082046
 30
0.0
  0
SPLINE
  5
29f
100
AcDbEntity
  8
Pærer
 62
7
100
AcDbSpline
 70
8
 71
3
 72
8
 73
4
 74
0
 40
0
 40
0
 40
0
 40
0
 40
1
 40
1
 40
1
 40
1
 10
968.100404
 20
526.082046
 30
0.0
 10
965.858188
 20
520.668858
 30
0.0
 10
967.097581
 20
514.438010
 30
0.0
 10
971.240655
 20
510.294935
 30
0.0
  0
SPLINE
  5
2a0
100
AcDbEntity
  8
Pærer
 62
7
100
AcDbSpline
 70
8
 71
3
 72
8
 73
4
 74
0
 40
0
 40
0
 40
0
 40
0
 40
1
 40
1
 40
1
 40
1
 10
971.240655
 20
510.294935
 30
0.0
 10
975.383730
 20
506.151861
 30
0.0
 10
981.614578
 20
504.912468
 30
0.0
 10
987.027766
 20
507.154684
 30
0.0
  0
SPLINE
  5
2a1
100
AcDbEntity
  8
Pærer
 62
7
100
AcDbSpline
 70
8
 71
3
 72
8
 73
4
 74
0
 40
0
 40
0
 40
0
 40
0
 40
1
 40
1
 40
1
 40
1
 10
987.027766
 20
507.154684
 30
0.0
 10
992.440954
 20
509.396899
 30
0.0
 10
995.970446
 20
514.679158
 30
0.0
 10
995.970446
 20
520.538350
 30
0.0
  0
SPLINE
  5
2a2
100
AcDbEntity
  8
Pærer
 62
7
100
AcDbSpline
 70
8
 71
3
 72
8
 73
4
 74
0
 40
0
 40
0
 40
0
 40
0
 40
1
 40
1
 40
1
 40
1
 10
995.970446
 20
520.538350
 30
0.0
 10
995.970446
 20
528.538955
 30
0.0
 10
989.484675
 20
535.024726
 30
0.0
 10
981.484070
 20
535.024726
 30
0.0
  0
LWPOLYLINE
  5
2a3
100
AcDbEntity
  8
Pærer
 62
7
100
AcDbPolyline
 90
1
 70
1
 10
923.611760
 20
477.506926
 30
0.0
  0
SPLINE
  5
2a4
100
AcDbEntity
  8
Pærer
 62
7
100
AcDbSpline
 70
8
 71
3
 72
8
 73
4
 74
0
 40
0
 40
0
 40
0
 40
0
 40
1
 40
1
 40
1
 40
1
 10
1097.228800
 20
650.060256
 30
0.0
 10
1089.228195
 20
650.060256
 30
0.0
 10
1082.742424
 20
643.574485
 30
0.0
 10
1082.742424
 20
635.573880
 30
0.0
  0
SPLINE
  5
2a5
100
AcDbEntity
  8
Pærer
 62
7
100
AcDbSpline
 70
8
 71
3
 72
8
 73
4
 74
0
 40
0
 40
0
 40
0
 40
0
 40
1
 40
1
 40
1
 40
1
 10
1082.742424
 20
635.573880
 30
0.0
 10
1082.742424
 20
627.573275
 30
0.0
 10
1089.228195
 20
621.087504
 30
0.0
 10
1097.228800
 20
621.087504
 30
0.0
  0
SPLINE
  5
2a6
100
AcDbEntity
  8
Pærer
 62
7
100
AcDbSpline
 70
8
 71
3
 72
8
 73
4
 74
0
 40
0
 40
0
 40
0
 40
0
 40
1
 40
1
 40
1
 40
1
 10
1097.228800
 20
621.087504
 30
0.0
 10
1105.229405
 20
621.087504
 30
0.0
 10
1111.715176
 20
627.573275
 30
0.0
 10
1111.715176
 20
635.573880
 30
0.0
  0
SPLINE
  5
2a7
100
AcDbEntity
  8
Pærer
 62
7
100
AcDbSpline
 70
8
 71
3
 72
8
 73
4
 74
0
 40
0
 40
0
 40
0
 40
0
 40
1
 40
1
 40
1
 40
1
 10
1111.715176
 20
635.573880
 30
0.0
 10
1111.715176
 20
639.415906
 30
0.0
 10
1110.188937
 20
643.100572
 30
0.0
 10
1107.472215
 20
645.817295
 30
0.0
  0
SPLINE
  5
2a8
100
AcDbEntity
  8
Pærer
 62
7
100
AcDbSpline
 70
8
 71
3
 72
8
 73
4
 74
0
 40
0
 40
0
 40
0
 40
0
 40
1
 40
1
 40
1
 40
1
 10
1107.472215
 20
645.817295
 30
0.0
 10
1104.755492
 20
648.534017
 30
0.0
 10
1101.070826
 20
650.060256
 30
0.0
 10
1097.228800
 20
650.060256
 30
0.0
  0
LWPOLYLINE
  5
2a9
100
AcDbEntity
  8
Pærer
 62
7
100
AcDbPolyline
 90
1
 70
1
 10
981.484070
 20
535.024726
 30
0.0
  0
SPLINE
  5
2aa
100
AcDbEntity
  8
Pærer
 62
7
100
AcDbSpline
 70
8
 71
3
 72
8
 73
4
 74
0
 40
0
 40
0
 40
0
 40
0
 40
1
 40
1
 40
1
 40
1
 10
1212.973400
 20
765.095816
 30
0.0
 10
1204.972795
 20
765.095816
 30
0.0
 10
1198.487024
 20
758.610045
 30
0.0
 10
1198.487024
 20
750.609440
 30
0.0
  0
SPLINE
  5
2ab
100
AcDbEntity
  8
Pærer
 62
7
100
AcDbSpline
 70
8
 71
3
 72
8
 73
4
 74
0
 40
0
 40
0
 40
0
 40
0
 40
1
 40
1
 40
1
 40
1
 10
1198.487024
 20
750.609440
 30
0.0
 10
1198.487024
 20
742.608835
 30
0.0
 10
1204.972795
 20
736.123064
 30
0.0
 10
1212.973400
 20
736.123064
 30
0.0
  0
SPLINE
  5
2ac
100
AcDbEntity
  8
Pærer
 62
7
100
AcDbSpline
 70
8
 71
3
 72
8
 73
4
 74
0
 40
0
 40
0
 40
0
 40
0
 40
1
 40
1
 40
1
 40
1
 10
1212.973400
 20
736.123064
 30
0.0
 10
1220.974005
 20
736.123064
 30
0.0
 10
1227.459776
 20
742.608835
 30
0.0
 10
1227.459776
 20
750.609440
 30
0.0
  0
SPLINE
  5
2ad
100
AcDbEntity
  8
Pærer
 62
7
100
AcDbSpline
 70
8
 71
3
 72
8
 73
4
 74
0
 40
0
 40
0
 40
0
 40
0
 40
1
 40
1
 40
1
 40
1
 10
1227.459776
 20
750.609440
 30
0.0
 10
1227.459776
 20
754.451466
 30
0.0
 10
1225.933537
 20
758.136132
 30
0.0
 10
1223.216815
 20
760.852855
 30
0.0
  0
SPLINE
  5
2ae
100
AcDbEntity
  8
Pærer
 62
7
100
AcDbSpline
 70
8
 71
3
 72
8
 73
4
 74
0
 40
0
 40
0
 40
0
 40
0
 40
1
 40
1
 40
1
 40
1
 10
1223.216815
 20
760.852855
 30
0.0
 10
1220.500092
 20
763.569577
 30
0.0
 10
1216.815426
 20
765.095816
 30
0.0
 10
1212.973400
 20
765.095816
 30
0.0
  0
LWPOLYLINE
  5
2af
100
AcDbEntity
  8
Pærer
 62
7
100
AcDbPolyline
 90
1
 70
1
 10
1097.228800
 20
650.060256
 30
0.0
  0
SPLINE
  5
2b0
100
AcDbEntity
  8
Pærer
 62
7
100
AcDbSpline
 70
8
 71
3
 72
8
 73
4
 74
0
 40
0
 40
0
 40
0
 40
0
 40
1
 40
1
 40
1
 40
1
 10
1029.826776
 20
868.423580
 30
0.0
 10
1029.826776
 20
874.282772
 30
0.0
 10
1026.297284
 20
879.565031
 30
0.0
 10
1020.884096
 20
881.807246
 30
0.0
  0
SPLINE
  5
2b1
100
AcDbEntity
  8
Pærer
 62
7
100
AcDbSpline
 70
8
 71
3
 72
8
 73
4
 74
0
 40
0
 40
0
 40
0
 40
0
 40
1
 40
1
 40
1
 40
1
 10
1020.884096
 20
881.807246
 30
0.0
 10
1015.470908
 20
884.049462
 30
0.0
 10
1009.240060
 20
882.810069
 30
0.0
 10
1005.096985
 20
878.666995
 30
0.0
  0
SPLINE
  5
2b2
100
AcDbEntity
  8
Pærer
 62
7
100
AcDbSpline
 70
8
 71
3
 72
8
 73
4
 74
0
 40
0
 40
0
 40
0
 40
0
 40
1
 40
1
 40
1
 40
1
 10
1005.096985
 20
878.666995
 30
0.0
 10
1000.953911
 20
874.523920
 30
0.0
 10
999.714518
 20
868.293072
 30
0.0
 10
1001.956734
 20
862.879884
 30
0.0
  0
SPLINE
  5
2b3
100
AcDbEntity
  8
Pærer
 62
7
100
AcDbSpline
 70
8
 71
3
 72
8
 73
4
 74
0
 40
0
 40
0
 40
0
 40
0
 40
1
 40
1
 40
1
 40
1
 10
1001.956734
 20
862.879884
 30
0.0
 10
1004.198949
 20
857.466696
 30
0.0
 10
1009.481208
 20
853.937204
 30
0.0
 10
1015.340400
 20
853.937204
 30
0.0
  0
SPLINE
  5
2b4
100
AcDbEntity
  8
Pærer
 62
7
100
AcDbSpline
 70
8
 71
3
 72
8
 73
4
 74
0
 40
0
 40
0
 40
0
 40
0
 40
1
 40
1
 40
1
 40
1
 10
1015.340400
 20
853.937204
 30
0.0
 10
1019.182426
 20
853.937204
 30
0.0
 10
1022.867092
 20
855.463443
 30
0.0
 10
1025.583815
 20
858.180165
 30
0.0
  0
SPLINE
  5
2b5
100
AcDbEntity
  8
Pærer
 62
7
100
AcDbSpline
 70
8
 71
3
 72
8
 73
4
 74
0
 40
0
 40
0
 40
0
 40
0
 40
1
 40
1
 40
1
 40
1
 10
1025.583815
 20
858.180165
 30
0.0
 10
1028.300537
 20
860.896888
 30
0.0
 10
1029.826776
 20
864.581554
 30
0.0
 10
1029.826776
 20
868.423580
 30
0.0
  0
LWPOLYLINE
  5
2b6
100
AcDbEntity
  8
Pærer
 62
7
100
AcDbPolyline
 90
1
 70
1
 10
1212.973400
 20
765.095816
 30
0.0
  0
SPLINE
  5
2b7
100
AcDbEntity
  8
Pærer
 62
7
100
AcDbSpline
 70
8
 71
3
 72
8
 73
4
 74
0
 40
0
 40
0
 40
0
 40
0
 40
1
 40
1
 40
1
 40
1
 10
978.260306
 20
920.272580
 30
0.0
 10
978.260306
 20
926.131772
 30
0.0
 10
974.730814
 20
931.414031
 30
0.0
 10
969.317626
 20
933.656246
 30
0.0
  0
SPLINE
  5
2b8
100
AcDbEntity
  8
Pærer
 62
7
100
AcDbSpline
 70
8
 71
3
 72
8
 73
4
 74
0
 40
0
 40
0
 40
0
 40
0
 40
1
 40
1
 40
1
 40
1
 10
969.317626
 20
933.656246
 30
0.0
 10
963.904438
 20
935.898462
 30
0.0
 10
957.673590
 20
934.659069
 30
0.0
 10
953.530515
 20
930.515995
 30
0.0
  0
SPLINE
  5
2b9
100
AcDbEntity
  8
Pærer
 62
7
100
AcDbSpline
 70
8
 71
3
 72
8
 73
4
 74
0
 40
0
 40
0
 40
0
 40
0
 40
1
 40
1
 40
1
 40
1
 10
953.530515
 20
930.515995
 30
0.0
 10
949.387441
 20
926.372920
 30
0.0
 10
948.148048
 20
920.142072
 30
0.0
 10
950.390264
 20
914.728884
 30
0.0
  0
SPLINE
  5
2ba
100
AcDbEntity
  8
Pærer
 62
7
100
AcDbSpline
 70
8
 71
3
 72
8
 73
4
 74
0
 40
0
 40
0
 40
0
 40
0
 40
1
 40
1
 40
1
 40
1
 10
950.390264
 20
914.728884
 30
0.0
 10
952.632479
 20
909.315696
 30
0.0
 10
957.914738
 20
905.786204
 30
0.0
 10
963.773930
 20
905.786204
 30
0.0
  0
SPLINE
  5
2bb
100
AcDbEntity
  8
Pærer
 62
7
100
AcDbSpline
 70
8
 71
3
 72
8
 73
4
 74
0
 40
0
 40
0
 40
0
 40
0
 40
1
 40
1
 40
1
 40
1
 10
963.773930
 20
905.786204
 30
0.0
 10
967.615956
 20
905.786204
 30
0.0
 10
971.300622
 20
907.312443
 30
0.0
 10
974.017345
 20
910.029165
 30
0.0
  0
SPLINE
  5
2bc
100
AcDbEntity
  8
Pærer
 62
7
100
AcDbSpline
 70
8
 71
3
 72
8
 73
4
 74
0
 40
0
 40
0
 40
0
 40
0
 40
1
 40
1
 40
1
 40
1
 10
974.017345
 20
910.029165
 30
0.0
 10
976.734067
 20
912.745888
 30
0.0
 10
978.260306
 20
916.430554
 30
0.0
 10
978.260306
 20
920.272580
 30
0.0
  0
LWPOLYLINE
  5
2bd
100
AcDbEntity
  8
Pærer
 62
7
100
AcDbPolyline
 90
1
 70
1
 10
1029.826776
 20
868.423580
 30
0.0
  0
SPLINE
  5
2be
100
AcDbEntity
  8
Pærer
 62
7
100
AcDbSpline
 70
8
 71
3
 72
8
 73
4
 74
0
 40
0
 40
0
 40
0
 40
0
 40
1
 40
1
 40
1
 40
1
 10
1081.393276
 20
816.574650
 30
0.0
 10
1081.393276
 20
822.433842
 30
0.0
 10
1077.863784
 20
827.716101
 30
0.0
 10
1072.450596
 20
829.958316
 30
0.0
  0
SPLINE
  5
2bf
100
AcDbEntity
  8
Pærer
 62
7
100
AcDbSpline
 70
8
 71
3
 72
8
 73
4
 74
0
 40
0
 40
0
 40
0
 40
0
 40
1
 40
1
 40
1
 40
1
 10
1072.450596
 20
829.958316
 30
0.0
 10
1067.037408
 20
832.200532
 30
0.0
 10
1060.806560
 20
830.961139
 30
0.0
 10
1056.663485
 20
826.818065
 30
0.0
  0
SPLINE
  5
2c0
100
AcDbEntity
  8
Pærer
 62
7
100
AcDbSpline
 70
8
 71
3
 72
8
 73
4
 74
0
 40
0
 40
0
 40
0
 40
0
 40
1
 40
1
 40
1
 40
1
 10
1056.663485
 20
826.818065
 30
0.0
 10
1052.520411
 20
822.674990
 30
0.0
 10
1051.281018
 20
816.444142
 30
0.0
 10
1053.523234
 20
811.030954
 30
0.0
  0
SPLINE
  5
2c1
100
AcDbEntity
  8
Pærer
 62
7
100
AcDbSpline
 70
8
 71
3
 72
8
 73
4
 74
0
 40
0
 40
0
 40
0
 40
0
 40
1
 40
1
 40
1
 40
1
 10
1053.523234
 20
811.030954
 30
0.0
 10
1055.765449
 20
805.617766
 30
0.0
 10
1061.047708
 20
802.088274
 30
0.0
 10
1066.906900
 20
802.088274
 30
0.0
  0
SPLINE
  5
2c2
100
AcDbEntity
  8
Pærer
 62
7
100
AcDbSpline
 70
8
 71
3
 72
8
 73
4
 74
0
 40
0
 40
0
 40
0
 40
0
 40
1
 40
1
 40
1
 40
1
 10
1066.906900
 20
802.088274
 30
0.0
 10
1070.748926
 20
802.088274
 30
0.0
 10
1074.433592
 20
803.614513
 30
0.0
 10
1077.150315
 20
806.331235
 30
0.0
  0
SPLINE
  5
2c3
100
AcDbEntity
  8
Pærer
 62
7
100
AcDbSpline
 70
8
 71
3
 72
8
 73
4
 74
0
 40
0
 40
0
 40
0
 40
0
 40
1
 40
1
 40
1
 40
1
 10
1077.150315
 20
806.331235
 30
0.0
 10
1079.867037
 20
809.047958
 30
0.0
 10
1081.393276
 20
812.732624
 30
0.0
 10
1081.393276
 20
816.574650
 30
0.0
  0
LWPOLYLINE
  5
2c4
100
AcDbEntity
  8
Pærer
 62
7
100
AcDbPolyline
 90
1
 70
1
 10
978.260306
 20
920.272580
 30
0.0
  0
SPLINE
  5
2c5
100
AcDbEntity
  8
Pærer
 62
7
100
AcDbSpline
 70
8
 71
3
 72
8
 73
4
 74
0
 40
0
 40
0
 40
0
 40
0
 40
1
 40
1
 40
1
 40
1
 10
1132.959676
 20
764.725650
 30
0.0
 10
1132.959676
 20
770.584842
 30
0.0
 10
1129.430184
 20
775.867101
 30
0.0
 10
1124.016996
 20
778.109316
 30
0.0
  0
SPLINE
  5
2c6
100
AcDbEntity
  8
Pærer
 62
7
100
AcDbSpline
 70
8
 71
3
 72
8
 73
4
 74
0
 40
0
 40
0
 40
0
 40
0
 40
1
 40
1
 40
1
 40
1
 10
1124.016996
 20
778.109316
 30
0.0
 10
1118.603808
 20
780.351532
 30
0.0
 10
1112.372960
 20
779.112139
 30
0.0
 10
1108.229885
 20
774.969065
 30
0.0
  0
SPLINE
  5
2c7
100
AcDbEntity
  8
Pærer
 62
7
100
AcDbSpline
 70
8
 71
3
 72
8
 73
4
 74
0
 40
0
 40
0
 40
0
 40
0
 40
1
 40
1
 40
1
 40
1
 10
1108.229885
 20
774.969065
 30
0.0
 10
1104.086811
 20
770.825990
 30
0.0
 10
1102.847418
 20
764.595142
 30
0.0
 10
1105.089634
 20
759.181954
 30
0.0
  0
SPLINE
  5
2c8
100
AcDbEntity
  8
Pærer
 62
7
100
AcDbSpline
 70
8
 71
3
 72
8
 73
4
 74
0
 40
0
 40
0
 40
0
 40
0
 40
1
 40
1
 40
1
 40
1
 10
1105.089634
 20
759.181954
 30
0.0
 10
1107.331849
 20
753.768766
 30
0.0
 10
1112.614108
 20
750.239274
 30
0.0
 10
1118.473300
 20
750.239274
 30
0.0
  0
SPLINE
  5
2c9
100
AcDbEntity
  8
Pærer
 62
7
100
AcDbSpline
 70
8
 71
3
 72
8
 73
4
 74
0
 40
0
 40
0
 40
0
 40
0
 40
1
 40
1
 40
1
 40
1
 10
1118.473300
 20
750.239274
 30
0.0
 10
1122.315326
 20
750.239274
 30
0.0
 10
1125.999992
 20
751.765513
 30
0.0
 10
1128.716715
 20
754.482235
 30
0.0
  0
SPLINE
  5
2ca
100
AcDbEntity
  8
Pærer
 62
7
100
AcDbSpline
 70
8
 71
3
 72
8
 73
4
 74
0
 40
0
 40
0
 40
0
 40
0
 40
1
 40
1
 40
1
 40
1
 10
1128.716715
 20
754.482235
 30
0.0
 10
1131.433437
 20
757.198958
 30
0.0
 10
1132.959676
 20
760.883624
 30
0.0
 10
1132.959676
 20
764.725650
 30
0.0
  0
LWPOLYLINE
  5
2cb
100
AcDbEntity
  8
Pærer
 62
7
100
AcDbPolyline
 90
1
 70
1
 10
1081.393276
 20
816.574650
 30
0.0
  0
SPLINE
  5
2cc
100
AcDbEntity
  8
Pærer
 62
7
100
AcDbSpline
 70
8
 71
3
 72
8
 73
4
 74
0
 40
0
 40
0
 40
0
 40
0
 40
1
 40
1
 40
1
 40
1
 10
1169.587476
 20
693.091670
 30
0.0
 10
1169.587476
 20
698.950862
 30
0.0
 10
1166.057984
 20
704.233121
 30
0.0
 10
1160.644796
 20
706.475336
 30
0.0
  0
SPLINE
  5
2cd
100
AcDbEntity
  8
Pærer
 62
7
100
AcDbSpline
 70
8
 71
3
 72
8
 73
4
 74
0
 40
0
 40
0
 40
0
 40
0
 40
1
 40
1
 40
1
 40
1
 10
1160.644796
 20
706.475336
 30
0.0
 10
1155.231608
 20
708.717552
 30
0.0
 10
1149.000760
 20
707.478159
 30
0.0
 10
1144.857685
 20
703.335085
 30
0.0
  0
SPLINE
  5
2ce
100
AcDbEntity
  8
Pærer
 62
7
100
AcDbSpline
 70
8
 71
3
 72
8
 73
4
 74
0
 40
0
 40
0
 40
0
 40
0
 40
1
 40
1
 40
1
 40
1
 10
1144.857685
 20
703.335085
 30
0.0
 10
1140.714611
 20
699.192010
 30
0.0
 10
1139.475218
 20
692.961162
 30
0.0
 10
1141.717434
 20
687.547974
 30
0.0
  0
SPLINE
  5
2cf
100
AcDbEntity
  8
Pærer
 62
7
100
AcDbSpline
 70
8
 71
3
 72
8
 73
4
 74
0
 40
0
 40
0
 40
0
 40
0
 40
1
 40
1
 40
1
 40
1
 10
1141.717434
 20
687.547974
 30
0.0
 10
1143.959649
 20
682.134786
 30
0.0
 10
1149.241908
 20
678.605294
 30
0.0
 10
1155.101100
 20
678.605294
 30
0.0
  0
SPLINE
  5
2d0
100
AcDbEntity
  8
Pærer
 62
7
100
AcDbSpline
 70
8
 71
3
 72
8
 73
4
 74
0
 40
0
 40
0
 40
0
 40
0
 40
1
 40
1
 40
1
 40
1
 10
1155.101100
 20
678.605294
 30
0.0
 10
1158.943126
 20
678.605294
 30
0.0
 10
1162.627792
 20
680.131533
 30
0.0
 10
1165.344515
 20
682.848255
 30
0.0
  0
SPLINE
  5
2d1
100
AcDbEntity
  8
Pærer
 62
7
100
AcDbSpline
 70
8
 71
3
 72
8
 73
4
 74
0
 40
0
 40
0
 40
0
 40
0
 40
1
 40
1
 40
1
 40
1
 10
1165.344515
 20
682.848255
 30
0.0
 10
1168.061237
 20
685.564978
 30
0.0
 10
1169.587476
 20
689.249644
 30
0.0
 10
1169.587476
 20
693.091670
 30
0.0
  0
LWPOLYLINE
  5
2d2
100
AcDbEntity
  8
Pærer
 62
7
100
AcDbPolyline
 90
1
 70
1
 10
1132.959676
 20
764.725650
 30
0.0
  0
SPLINE
  5
2d3
100
AcDbEntity
  8
Pærer
 62
7
100
AcDbSpline
 70
8
 71
3
 72
8
 73
4
 74
0
 40
0
 40
0
 40
0
 40
0
 40
1
 40
1
 40
1
 40
1
 10
205.221800
 20
508.940616
 30
0.0
 10
199.362608
 20
508.940616
 30
0.0
 10
194.080349
 20
505.411124
 30
0.0
 10
191.838134
 20
499.997936
 30
0.0
  0
SPLINE
  5
2d4
100
AcDbEntity
  8
Pærer
 62
7
100
AcDbSpline
 70
8
 71
3
 72
8
 73
4
 74
0
 40
0
 40
0
 40
0
 40
0
 40
1
 40
1
 40
1
 40
1
 10
191.838134
 20
499.997936
 30
0.0
 10
189.595918
 20
494.584748
 30
0.0
 10
190.835311
 20
488.353900
 30
0.0
 10
194.978385
 20
484.210825
 30
0.0
  0
SPLINE
  5
2d5
100
AcDbEntity
  8
Pærer
 62
7
100
AcDbSpline
 70
8
 71
3
 72
8
 73
4
 74
0
 40
0
 40
0
 40
0
 40
0
 40
1
 40
1
 40
1
 40
1
 10
194.978385
 20
484.210825
 30
0.0
 10
199.121460
 20
480.067751
 30
0.0
 10
205.352308
 20
478.828358
 30
0.0
 10
210.765496
 20
481.070574
 30
0.0
  0
SPLINE
  5
2d6
100
AcDbEntity
  8
Pærer
 62
7
100
AcDbSpline
 70
8
 71
3
 72
8
 73
4
 74
0
 40
0
 40
0
 40
0
 40
0
 40
1
 40
1
 40
1
 40
1
 10
210.765496
 20
481.070574
 30
0.0
 10
216.178684
 20
483.312789
 30
0.0
 10
219.708176
 20
488.595048
 30
0.0
 10
219.708176
 20
494.454240
 30
0.0
  0
SPLINE
  5
2d7
100
AcDbEntity
  8
Pærer
 62
7
100
AcDbSpline
 70
8
 71
3
 72
8
 73
4
 74
0
 40
0
 40
0
 40
0
 40
0
 40
1
 40
1
 40
1
 40
1
 10
219.708176
 20
494.454240
 30
0.0
 10
219.708176
 20
498.296266
 30
0.0
 10
218.181937
 20
501.980932
 30
0.0
 10
215.465215
 20
504.697655
 30
0.0
  0
SPLINE
  5
2d8
100
AcDbEntity
  8
Pærer
 62
7
100
AcDbSpline
 70
8
 71
3
 72
8
 73
4
 74
0
 40
0
 40
0
 40
0
 40
0
 40
1
 40
1
 40
1
 40
1
 10
215.465215
 20
504.697655
 30
0.0
 10
212.748492
 20
507.414377
 30
0.0
 10
209.063826
 20
508.940616
 30
0.0
 10
205.221800
 20
508.940616
 30
0.0
  0
LWPOLYLINE
  5
2d9
100
AcDbEntity
  8
Pærer
 62
7
100
AcDbPolyline
 90
1
 70
1
 10
1169.587476
 20
693.091670
 30
0.0
  0
SPLINE
  5
2da
100
AcDbEntity
  8
Pærer
 62
7
100
AcDbSpline
 70
8
 71
3
 72
8
 73
4
 74
0
 40
0
 40
0
 40
0
 40
0
 40
1
 40
1
 40
1
 40
1
 10
772.830845
 20
712.414864
 30
0.0
 10
773.798931
 20
718.193369
 30
0.0
 10
771.190806
 20
723.986047
 30
0.0
 10
766.222634
 20
727.091780
 30
0.0
  0
SPLINE
  5
2db
100
AcDbEntity
  8
Pærer
 62
7
100
AcDbSpline
 70
8
 71
3
 72
8
 73
4
 74
0
 40
0
 40
0
 40
0
 40
0
 40
1
 40
1
 40
1
 40
1
 10
766.222634
 20
727.091780
 30
0.0
 10
761.254462
 20
730.197514
 30
0.0
 10
754.904639
 20
730.004682
 30
0.0
 10
750.134078
 20
726.603203
 30
0.0
  0
SPLINE
  5
2dc
100
AcDbEntity
  8
Pærer
 62
7
100
AcDbSpline
 70
8
 71
3
 72
8
 73
4
 74
0
 40
0
 40
0
 40
0
 40
0
 40
1
 40
1
 40
1
 40
1
 10
750.134078
 20
726.603203
 30
0.0
 10
745.363517
 20
723.201723
 30
0.0
 10
743.111698
 20
717.261458
 30
0.0
 10
744.428641
 20
711.552344
 30
0.0
  0
SPLINE
  5
2dd
100
AcDbEntity
  8
Pærer
 62
7
100
AcDbSpline
 70
8
 71
3
 72
8
 73
4
 74
0
 40
0
 40
0
 40
0
 40
0
 40
1
 40
1
 40
1
 40
1
 10
744.428641
 20
711.552344
 30
0.0
 10
745.745584
 20
705.843231
 30
0.0
 10
750.371940
 20
701.489581
 30
0.0
 10
756.150445
 20
700.521494
 30
0.0
  0
SPLINE
  5
2de
100
AcDbEntity
  8
Pærer
 62
7
100
AcDbSpline
 70
8
 71
3
 72
8
 73
4
 74
0
 40
0
 40
0
 40
0
 40
0
 40
1
 40
1
 40
1
 40
1
 10
756.150445
 20
700.521494
 30
0.0
 10
759.939562
 20
699.886694
 30
0.0
 10
763.825661
 20
700.783116
 30
0.0
 10
766.953842
 20
703.013555
 30
0.0
  0
SPLINE
  5
2df
100
AcDbEntity
  8
Pærer
 62
7
100
AcDbSpline
 70
8
 71
3
 72
8
 73
4
 74
0
 40
0
 40
0
 40
0
 40
0
 40
1
 40
1
 40
1
 40
1
 10
766.953842
 20
703.013555
 30
0.0
 10
770.082024
 20
705.243994
 30
0.0
 10
772.196045
 20
708.625746
 30
0.0
 10
772.830845
 20
712.414864
 30
0.0
  0
LWPOLYLINE
  5
2e0
100
AcDbEntity
  8
Pærer
 62
7
100
AcDbPolyline
 90
1
 70
1
 10
205.221800
 20
508.940616
 30
0.0
  0
SPLINE
  5
2e1
100
AcDbEntity
  8
Pærer
 62
7
100
AcDbSpline
 70
8
 71
3
 72
8
 73
4
 74
0
 40
0
 40
0
 40
0
 40
0
 40
1
 40
1
 40
1
 40
1
 10
743.554409
 20
621.316402
 30
0.0
 10
746.160350
 20
626.564020
 30
0.0
 10
745.348604
 20
632.864704
 30
0.0
 10
741.497687
 20
637.280456
 30
0.0
  0
SPLINE
  5
2e2
100
AcDbEntity
  8
Pærer
 62
7
100
AcDbSpline
 70
8
 71
3
 72
8
 73
4
 74
0
 40
0
 40
0
 40
0
 40
0
 40
1
 40
1
 40
1
 40
1
 10
741.497687
 20
637.280456
 30
0.0
 10
737.646771
 20
641.696207
 30
0.0
 10
731.515056
 20
643.357419
 30
0.0
 10
725.961752
 20
641.489471
 30
0.0
  0
SPLINE
  5
2e3
100
AcDbEntity
  8
Pærer
 62
7
100
AcDbSpline
 70
8
 71
3
 72
8
 73
4
 74
0
 40
0
 40
0
 40
0
 40
0
 40
1
 40
1
 40
1
 40
1
 10
725.961752
 20
641.489471
 30
0.0
 10
720.408448
 20
639.621523
 30
0.0
 10
716.527182
 20
634.592276
 30
0.0
 10
716.127784
 20
628.746859
 30
0.0
  0
SPLINE
  5
2e4
100
AcDbEntity
  8
Pærer
 62
7
100
AcDbSpline
 70
8
 71
3
 72
8
 73
4
 74
0
 40
0
 40
0
 40
0
 40
0
 40
1
 40
1
 40
1
 40
1
 10
716.127784
 20
628.746859
 30
0.0
 10
715.728385
 20
622.901442
 30
0.0
 10
718.889508
 20
617.391011
 30
0.0
 10
724.137125
 20
614.785070
 30
0.0
  0
SPLINE
  5
2e5
100
AcDbEntity
  8
Pærer
 62
7
100
AcDbSpline
 70
8
 71
3
 72
8
 73
4
 74
0
 40
0
 40
0
 40
0
 40
0
 40
1
 40
1
 40
1
 40
1
 10
724.137125
 20
614.785070
 30
0.0
 10
727.578126
 20
613.076287
 30
0.0
 10
731.557003
 20
612.804423
 30
0.0
 10
735.198450
 20
614.029285
 30
0.0
  0
SPLINE
  5
2e6
100
AcDbEntity
  8
Pærer
 62
7
100
AcDbSpline
 70
8
 71
3
 72
8
 73
4
 74
0
 40
0
 40
0
 40
0
 40
0
 40
1
 40
1
 40
1
 40
1
 10
735.198450
 20
614.029285
 30
0.0
 10
738.839898
 20
615.254148
 30
0.0
 10
741.845626
 20
617.875402
 30
0.0
 10
743.554409
 20
621.316402
 30
0.0
  0
LWPOLYLINE
  5
2e7
100
AcDbEntity
  8
Pærer
 62
7
100
AcDbPolyline
 90
1
 70
1
 10
772.830845
 20
712.414864
 30
0.0
  0
SPLINE
  5
2e8
100
AcDbEntity
  8
Pærer
 62
7
100
AcDbSpline
 70
8
 71
3
 72
8
 73
4
 74
0
 40
0
 40
0
 40
0
 40
0
 40
1
 40
1
 40
1
 40
1
 10
687.408988
 20
543.438622
 30
0.0
 10
691.523299
 20
547.610051
 30
0.0
 10
692.719680
 20
553.849135
 30
0.0
 10
690.440261
 20
559.246599
 30
0.0
  0
SPLINE
  5
2e9
100
AcDbEntity
  8
Pærer
 62
7
100
AcDbSpline
 70
8
 71
3
 72
8
 73
4
 74
0
 40
0
 40
0
 40
0
 40
0
 40
1
 40
1
 40
1
 40
1
 10
690.440261
 20
559.246599
 30
0.0
 10
688.160842
 20
564.644064
 30
0.0
 10
682.854516
 20
568.136970
 30
0.0
 10
676.995613
 20
568.096582
 30
0.0
  0
SPLINE
  5
2ea
100
AcDbEntity
  8
Pærer
 62
7
100
AcDbSpline
 70
8
 71
3
 72
8
 73
4
 74
0
 40
0
 40
0
 40
0
 40
0
 40
1
 40
1
 40
1
 40
1
 10
676.995613
 20
568.096582
 30
0.0
 10
671.136710
 20
568.056193
 30
0.0
 10
665.879042
 20
564.490464
 30
0.0
 10
663.674251
 20
559.062088
 30
0.0
  0
SPLINE
  5
2eb
100
AcDbEntity
  8
Pærer
 62
7
100
AcDbSpline
 70
8
 71
3
 72
8
 73
4
 74
0
 40
0
 40
0
 40
0
 40
0
 40
1
 40
1
 40
1
 40
1
 10
663.674251
 20
559.062088
 30
0.0
 10
661.469460
 20
553.633711
 30
0.0
 10
662.751742
 20
547.411714
 30
0.0
 10
666.923171
 20
543.297403
 30
0.0
  0
SPLINE
  5
2ec
100
AcDbEntity
  8
Pærer
 62
7
100
AcDbSpline
 70
8
 71
3
 72
8
 73
4
 74
0
 40
0
 40
0
 40
0
 40
0
 40
1
 40
1
 40
1
 40
1
 10
666.923171
 20
543.297403
 30
0.0
 10
669.658486
 20
540.599542
 30
0.0
 10
673.353491
 20
539.098777
 30
0.0
 10
677.195327
 20
539.125261
 30
0.0
  0
SPLINE
  5
2ed
100
AcDbEntity
  8
Pærer
 62
7
100
AcDbSpline
 70
8
 71
3
 72
8
 73
4
 74
0
 40
0
 40
0
 40
0
 40
0
 40
1
 40
1
 40
1
 40
1
 10
677.195327
 20
539.125261
 30
0.0
 10
681.037163
 20
539.151745
 30
0.0
 10
684.711127
 20
540.703307
 30
0.0
 10
687.408988
 20
543.438622
 30
0.0
  0
LWPOLYLINE
  5
2ee
100
AcDbEntity
  8
Pærer
 62
7
100
AcDbPolyline
 90
1
 70
1
 10
743.554409
 20
621.316402
 30
0.0
  0
SPLINE
  5
2ef
100
AcDbEntity
  8
Pærer
 62
7
100
AcDbSpline
 70
8
 71
3
 72
8
 73
4
 74
0
 40
0
 40
0
 40
0
 40
0
 40
1
 40
1
 40
1
 40
1
 10
609.894200
 20
486.709224
 30
0.0
 10
615.114412
 20
489.369630
 30
0.0
 10
618.218018
 20
494.912656
 30
0.0
 10
617.757812
 20
500.753596
 30
0.0
  0
SPLINE
  5
2f0
100
AcDbEntity
  8
Pærer
 62
7
100
AcDbSpline
 70
8
 71
3
 72
8
 73
4
 74
0
 40
0
 40
0
 40
0
 40
0
 40
1
 40
1
 40
1
 40
1
 10
617.757812
 20
500.753596
 30
0.0
 10
617.297606
 20
506.594536
 30
0.0
 10
613.364217
 20
511.583118
 30
0.0
 10
607.791779
 20
513.393174
 30
0.0
  0
SPLINE
  5
2f1
100
AcDbEntity
  8
Pærer
 62
7
100
AcDbSpline
 70
8
 71
3
 72
8
 73
4
 74
0
 40
0
 40
0
 40
0
 40
0
 40
1
 40
1
 40
1
 40
1
 10
607.791779
 20
513.393174
 30
0.0
 10
602.219340
 20
515.203230
 30
0.0
 10
596.105249
 20
513.478301
 30
0.0
 10
592.300495
 20
509.022717
 30
0.0
  0
SPLINE
  5
2f2
100
AcDbEntity
  8
Pærer
 62
7
100
AcDbSpline
 70
8
 71
3
 72
8
 73
4
 74
0
 40
0
 40
0
 40
0
 40
0
 40
1
 40
1
 40
1
 40
1
 10
592.300495
 20
509.022717
 30
0.0
 10
588.495742
 20
504.567134
 30
0.0
 10
587.749607
 20
498.258348
 30
0.0
 10
590.410013
 20
493.038136
 30
0.0
  0
SPLINE
  5
2f3
100
AcDbEntity
  8
Pærer
 62
7
100
AcDbSpline
 70
8
 71
3
 72
8
 73
4
 74
0
 40
0
 40
0
 40
0
 40
0
 40
1
 40
1
 40
1
 40
1
 10
590.410013
 20
493.038136
 30
0.0
 10
592.154511
 20
489.615107
 30
0.0
 10
595.187352
 20
487.025274
 30
0.0
 10
598.841346
 20
485.838373
 30
0.0
  0
SPLINE
  5
2f4
100
AcDbEntity
  8
Pærer
 62
7
100
AcDbSpline
 70
8
 71
3
 72
8
 73
4
 74
0
 40
0
 40
0
 40
0
 40
0
 40
1
 40
1
 40
1
 40
1
 10
598.841346
 20
485.838373
 30
0.0
 10
602.495340
 20
484.651472
 30
0.0
 10
606.471170
 20
484.964727
 30
0.0
 10
609.894200
 20
486.709224
 30
0.0
  0
LWPOLYLINE
  5
2f5
100
AcDbEntity
  8
Pærer
 62
7
100
AcDbPolyline
 90
1
 70
1
 10
687.408988
 20
543.438622
 30
0.0
  0
SPLINE
  5
2f6
100
AcDbEntity
  8
Pærer
 62
7
100
AcDbSpline
 70
8
 71
3
 72
8
 73
4
 74
0
 40
0
 40
0
 40
0
 40
0
 40
1
 40
1
 40
1
 40
1
 10
518.682803
 20
456.744054
 30
0.0
 10
524.472742
 20
457.641288
 30
0.0
 10
529.152085
 20
461.937949
 30
0.0
 10
530.538862
 20
467.630512
 30
0.0
  0
SPLINE
  5
2f7
100
AcDbEntity
  8
Pærer
 62
7
100
AcDbSpline
 70
8
 71
3
 72
8
 73
4
 74
0
 40
0
 40
0
 40
0
 40
0
 40
1
 40
1
 40
1
 40
1
 10
530.538862
 20
467.630512
 30
0.0
 10
531.925640
 20
473.323074
 30
0.0
 10
529.746749
 20
479.290484
 30
0.0
 10
525.018204
 20
482.750149
 30
0.0
  0
SPLINE
  5
2f8
100
AcDbEntity
  8
Pærer
 62
7
100
AcDbSpline
 70
8
 71
3
 72
8
 73
4
 74
0
 40
0
 40
0
 40
0
 40
0
 40
1
 40
1
 40
1
 40
1
 10
525.018204
 20
482.750149
 30
0.0
 10
520.289659
 20
486.209814
 30
0.0
 10
513.942666
 20
486.480410
 30
0.0
 10
508.936816
 20
483.435761
 30
0.0
  0
SPLINE
  5
2f9
100
AcDbEntity
  8
Pærer
 62
7
100
AcDbSpline
 70
8
 71
3
 72
8
 73
4
 74
0
 40
0
 40
0
 40
0
 40
0
 40
1
 40
1
 40
1
 40
1
 10
508.936816
 20
483.435761
 30
0.0
 10
503.930967
 20
480.391111
 30
0.0
 10
501.252079
 20
474.630807
 30
0.0
 10
502.149313
 20
468.840868
 30
0.0
  0
SPLINE
  5
2fa
100
AcDbEntity
  8
Pærer
 62
7
100
AcDbSpline
 70
8
 71
3
 72
8
 73
4
 74
0
 40
0
 40
0
 40
0
 40
0
 40
1
 40
1
 40
1
 40
1
 10
502.149313
 20
468.840868
 30
0.0
 10
502.737653
 20
465.044254
 30
0.0
 10
504.810095
 20
461.636856
 30
0.0
 10
507.910726
 20
459.368263
 30
0.0
  0
SPLINE
  5
2fb
100
AcDbEntity
  8
Pærer
 62
7
100
AcDbSpline
 70
8
 71
3
 72
8
 73
4
 74
0
 40
0
 40
0
 40
0
 40
0
 40
1
 40
1
 40
1
 40
1
 10
507.910726
 20
459.368263
 30
0.0
 10
511.011357
 20
457.099670
 30
0.0
 10
514.886189
 20
456.155714
 30
0.0
 10
518.682803
 20
456.744054
 30
0.0
  0
LWPOLYLINE
  5
2fc
100
AcDbEntity
  8
Pærer
 62
7
100
AcDbPolyline
 90
1
 70
1
 10
609.894200
 20
486.709224
 30
0.0
  0
SPLINE
  5
2fd
100
AcDbEntity
  8
Pærer
 62
7
100
AcDbSpline
 70
8
 71
3
 72
8
 73
4
 74
0
 40
0
 40
0
 40
0
 40
0
 40
1
 40
1
 40
1
 40
1
 10
422.638489
 20
456.444938
 30
0.0
 10
428.416745
 20
455.475398
 30
0.0
 10
434.210075
 20
458.082063
 30
0.0
 10
437.317056
 20
463.049449
 30
0.0
  0
SPLINE
  5
2fe
100
AcDbEntity
  8
Pærer
 62
7
100
AcDbSpline
 70
8
 71
3
 72
8
 73
4
 74
0
 40
0
 40
0
 40
0
 40
0
 40
1
 40
1
 40
1
 40
1
 10
437.317056
 20
463.049449
 30
0.0
 10
440.424038
 20
468.016835
 30
0.0
 10
440.232805
 20
474.366700
 30
0.0
 10
436.832529
 20
479.138113
 30
0.0
  0
SPLINE
  5
2ff
100
AcDbEntity
  8
Pærer
 62
7
100
AcDbSpline
 70
8
 71
3
 72
8
 73
4
 74
0
 40
0
 40
0
 40
0
 40
0
 40
1
 40
1
 40
1
 40
1
 10
436.832529
 20
479.138113
 30
0.0
 10
433.432253
 20
483.909527
 30
0.0
 10
427.492560
 20
486.162839
 30
0.0
 10
421.783120
 20
484.847334
 30
0.0
  0
SPLINE
  5
300
100
AcDbEntity
  8
Pærer
 62
7
100
AcDbSpline
 70
8
 71
3
 72
8
 73
4
 74
0
 40
0
 40
0
 40
0
 40
0
 40
1
 40
1
 40
1
 40
1
 10
421.783120
 20
484.847334
 30
0.0
 10
416.073680
 20
483.531829
 30
0.0
 10
411.718869
 20
478.906574
 30
0.0
 10
410.749329
 20
473.128318
 30
0.0
  0
SPLINE
  5
301
100
AcDbEntity
  8
Pærer
 62
7
100
AcDbSpline
 70
8
 71
3
 72
8
 73
4
 74
0
 40
0
 40
0
 40
0
 40
0
 40
1
 40
1
 40
1
 40
1
 10
410.749329
 20
473.128318
 30
0.0
 10
410.113576
 20
469.339363
 30
0.0
 10
411.009018
 20
465.453043
 30
0.0
 10
413.238668
 20
462.324302
 30
0.0
  0
SPLINE
  5
302
100
AcDbEntity
  8
Pærer
 62
7
100
AcDbSpline
 70
8
 71
3
 72
8
 73
4
 74
0
 40
0
 40
0
 40
0
 40
0
 40
1
 40
1
 40
1
 40
1
 10
413.238668
 20
462.324302
 30
0.0
 10
415.468318
 20
459.195562
 30
0.0
 10
418.849534
 20
457.080691
 30
0.0
 10
422.638489
 20
456.444938
 30
0.0
  0
LWPOLYLINE
  5
303
100
AcDbEntity
  8
Pærer
 62
7
100
AcDbPolyline
 90
1
 70
1
 10
518.682803
 20
456.744054
 30
0.0
  0
SPLINE
  5
304
100
AcDbEntity
  8
Pærer
 62
7
100
AcDbSpline
 70
8
 71
3
 72
8
 73
4
 74
0
 40
0
 40
0
 40
0
 40
0
 40
1
 40
1
 40
1
 40
1
 10
331.439952
 20
485.697979
 30
0.0
 10
336.670263
 20
483.057490
 30
0.0
 10
342.976155
 20
483.827663
 30
0.0
 10
347.417203
 20
487.649368
 30
0.0
  0
SPLINE
  5
305
100
AcDbEntity
  8
Pærer
 62
7
100
AcDbSpline
 70
8
 71
3
 72
8
 73
4
 74
0
 40
0
 40
0
 40
0
 40
0
 40
1
 40
1
 40
1
 40
1
 10
347.417203
 20
487.649368
 30
0.0
 10
351.858250
 20
491.471074
 30
0.0
 10
353.559863
 20
497.591692
 30
0.0
 10
351.728583
 20
503.157187
 30
0.0
  0
SPLINE
  5
306
100
AcDbEntity
  8
Pærer
 62
7
100
AcDbSpline
 70
8
 71
3
 72
8
 73
4
 74
0
 40
0
 40
0
 40
0
 40
0
 40
1
 40
1
 40
1
 40
1
 10
351.728583
 20
503.157187
 30
0.0
 10
349.897303
 20
508.722683
 30
0.0
 10
344.893768
 20
512.637028
 30
0.0
 10
339.051120
 20
513.074969
 30
0.0
  0
SPLINE
  5
307
100
AcDbEntity
  8
Pærer
 62
7
100
AcDbSpline
 70
8
 71
3
 72
8
 73
4
 74
0
 40
0
 40
0
 40
0
 40
0
 40
1
 40
1
 40
1
 40
1
 10
339.051120
 20
513.074969
 30
0.0
 10
333.208472
 20
513.512910
 30
0.0
 10
327.677319
 20
510.388201
 30
0.0
 10
325.036830
 20
505.157891
 30
0.0
  0
SPLINE
  5
308
100
AcDbEntity
  8
Pærer
 62
7
100
AcDbSpline
 70
8
 71
3
 72
8
 73
4
 74
0
 40
0
 40
0
 40
0
 40
0
 40
1
 40
1
 40
1
 40
1
 10
325.036830
 20
505.157891
 30
0.0
 10
323.305392
 20
501.728239
 30
0.0
 10
323.007293
 20
497.751246
 30
0.0
 10
324.208111
 20
494.101805
 30
0.0
  0
SPLINE
  5
309
100
AcDbEntity
  8
Pærer
 62
7
100
AcDbSpline
 70
8
 71
3
 72
8
 73
4
 74
0
 40
0
 40
0
 40
0
 40
0
 40
1
 40
1
 40
1
 40
1
 10
324.208111
 20
494.101805
 30
0.0
 10
325.408930
 20
490.452363
 30
0.0
 10
328.010301
 20
487.429417
 30
0.0
 10
331.439952
 20
485.697979
 30
0.0
  0
LWPOLYLINE
  5
30a
100
AcDbEntity
  8
Pærer
 62
7
100
AcDbPolyline
 90
1
 70
1
 10
422.638489
 20
456.444938
 30
0.0
  0
SPLINE
  5
30b
100
AcDbEntity
  8
Pærer
 62
7
100
AcDbSpline
 70
8
 71
3
 72
8
 73
4
 74
0
 40
0
 40
0
 40
0
 40
0
 40
1
 40
1
 40
1
 40
1
 10
253.624914
 20
541.893676
 30
0.0
 10
257.774777
 20
537.757600
 30
0.0
 10
264.007530
 20
536.528606
 30
0.0
 10
269.416850
 20
538.779773
 30
0.0
  0
SPLINE
  5
30c
100
AcDbEntity
  8
Pærer
 62
7
100
AcDbSpline
 70
8
 71
3
 72
8
 73
4
 74
0
 40
0
 40
0
 40
0
 40
0
 40
1
 40
1
 40
1
 40
1
 10
269.416850
 20
538.779773
 30
0.0
 10
274.826169
 20
541.030939
 30
0.0
 10
278.346783
 20
546.318936
 30
0.0
 10
278.337034
 20
552.177980
 30
0.0
  0
SPLINE
  5
30d
100
AcDbEntity
  8
Pærer
 62
7
100
AcDbSpline
 70
8
 71
3
 72
8
 73
4
 74
0
 40
0
 40
0
 40
0
 40
0
 40
1
 40
1
 40
1
 40
1
 10
278.337034
 20
552.177980
 30
0.0
 10
278.327284
 20
558.037023
 30
0.0
 10
274.789092
 20
563.313275
 30
0.0
 10
269.372311
 20
565.546427
 30
0.0
  0
SPLINE
  5
30e
100
AcDbEntity
  8
Pærer
 62
7
100
AcDbSpline
 70
8
 71
3
 72
8
 73
4
 74
0
 40
0
 40
0
 40
0
 40
0
 40
1
 40
1
 40
1
 40
1
 10
269.372311
 20
565.546427
 30
0.0
 10
263.955529
 20
567.779578
 30
0.0
 10
257.726901
 20
566.529849
 30
0.0
 10
253.590825
 20
562.379986
 30
0.0
  0
SPLINE
  5
30f
100
AcDbEntity
  8
Pærer
 62
7
100
AcDbSpline
 70
8
 71
3
 72
8
 73
4
 74
0
 40
0
 40
0
 40
0
 40
0
 40
1
 40
1
 40
1
 40
1
 10
253.590825
 20
562.379986
 30
0.0
 10
250.878692
 20
559.658812
 30
0.0
 10
249.358623
 20
555.971699
 30
0.0
 10
249.365016
 20
552.129771
 30
0.0
  0
SPLINE
  5
310
100
AcDbEntity
  8
Pærer
 62
7
100
AcDbSpline
 70
8
 71
3
 72
8
 73
4
 74
0
 40
0
 40
0
 40
0
 40
0
 40
1
 40
1
 40
1
 40
1
 10
249.365016
 20
552.129771
 30
0.0
 10
249.371409
 20
548.287842
 30
0.0
 10
250.903740
 20
544.605809
 30
0.0
 10
253.624914
 20
541.893676
 30
0.0
  0
LWPOLYLINE
  5
311
100
AcDbEntity
  8
Pærer
 62
7
100
AcDbPolyline
 90
1
 70
1
 10
331.439952
 20
485.697979
 30
0.0
  0
SPLINE
  5
312
100
AcDbEntity
  8
Pærer
 62
7
100
AcDbSpline
 70
8
 71
3
 72
8
 73
4
 74
0
 40
0
 40
0
 40
0
 40
0
 40
1
 40
1
 40
1
 40
1
 10
196.978107
 20
619.287872
 30
0.0
 10
199.665780
 20
614.081635
 30
0.0
 10
205.224968
 20
611.007053
 30
0.0
 10
211.063432
 20
611.497798
 30
0.0
  0
SPLINE
  5
313
100
AcDbEntity
  8
Pærer
 62
7
100
AcDbSpline
 70
8
 71
3
 72
8
 73
4
 74
0
 40
0
 40
0
 40
0
 40
0
 40
1
 40
1
 40
1
 40
1
 10
211.063432
 20
611.497798
 30
0.0
 10
216.901896
 20
611.988544
 30
0.0
 10
221.869849
 20
615.947973
 30
0.0
 10
223.650742
 20
621.529810
 30
0.0
  0
SPLINE
  5
314
100
AcDbEntity
  8
Pærer
 62
7
100
AcDbSpline
 70
8
 71
3
 72
8
 73
4
 74
0
 40
0
 40
0
 40
0
 40
0
 40
1
 40
1
 40
1
 40
1
 10
223.650742
 20
621.529810
 30
0.0
 10
225.431636
 20
627.111647
 30
0.0
 10
223.674754
 20
633.216645
 30
0.0
 10
219.199328
 20
636.998052
 30
0.0
  0
SPLINE
  5
315
100
AcDbEntity
  8
Pærer
 62
7
100
AcDbSpline
 70
8
 71
3
 72
8
 73
4
 74
0
 40
0
 40
0
 40
0
 40
0
 40
1
 40
1
 40
1
 40
1
 10
219.199328
 20
636.998052
 30
0.0
 10
214.723901
 20
640.779460
 30
0.0
 10
208.411289
 20
641.492595
 30
0.0
 10
203.205052
 20
638.804922
 30
0.0
  0
SPLINE
  5
316
100
AcDbEntity
  8
Pærer
 62
7
100
AcDbSpline
 70
8
 71
3
 72
8
 73
4
 74
0
 40
0
 40
0
 40
0
 40
0
 40
1
 40
1
 40
1
 40
1
 10
203.205052
 20
638.804922
 30
0.0
 10
199.791186
 20
637.042544
 30
0.0
 10
197.217245
 20
633.996196
 30
0.0
 10
196.049466
 20
630.336040
 30
0.0
  0
SPLINE
  5
317
100
AcDbEntity
  8
Pærer
 62
7
100
AcDbSpline
 70
8
 71
3
 72
8
 73
4
 74
0
 40
0
 40
0
 40
0
 40
0
 40
1
 40
1
 40
1
 40
1
 10
196.049466
 20
630.336040
 30
0.0
 10
194.881687
 20
626.675883
 30
0.0
 10
195.215730
 20
622.701738
 30
0.0
 10
196.978107
 20
619.287872
 30
0.0
  0
LWPOLYLINE
  5
318
100
AcDbEntity
  8
Pærer
 62
7
100
AcDbPolyline
 90
1
 70
1
 10
253.624914
 20
541.893676
 30
0.0
  0
SPLINE
  5
319
100
AcDbEntity
  8
Pærer
 62
7
100
AcDbSpline
 70
8
 71
3
 72
8
 73
4
 74
0
 40
0
 40
0
 40
0
 40
0
 40
1
 40
1
 40
1
 40
1
 10
166.937821
 20
710.449651
 30
0.0
 10
167.873220
 20
704.665763
 30
0.0
 10
172.200643
 20
700.014865
 30
0.0
 10
177.902221
 20
698.665662
 30
0.0
  0
SPLINE
  5
31a
100
AcDbEntity
  8
Pærer
 62
7
100
AcDbSpline
 70
8
 71
3
 72
8
 73
4
 74
0
 40
0
 40
0
 40
0
 40
0
 40
1
 40
1
 40
1
 40
1
 10
177.902221
 20
698.665662
 30
0.0
 10
183.603798
 20
697.316460
 30
0.0
 10
189.556701
 20
699.534656
 30
0.0
 10
192.985101
 20
704.285909
 30
0.0
  0
SPLINE
  5
31b
100
AcDbEntity
  8
Pærer
 62
7
100
AcDbSpline
 70
8
 71
3
 72
8
 73
4
 74
0
 40
0
 40
0
 40
0
 40
0
 40
1
 40
1
 40
1
 40
1
 10
192.985101
 20
704.285909
 30
0.0
 10
196.413501
 20
709.037163
 30
0.0
 10
196.642232
 20
715.385795
 30
0.0
 10
193.564638
 20
720.371449
 30
0.0
  0
SPLINE
  5
31c
100
AcDbEntity
  8
Pærer
 62
7
100
AcDbSpline
 70
8
 71
3
 72
8
 73
4
 74
0
 40
0
 40
0
 40
0
 40
0
 40
1
 40
1
 40
1
 40
1
 10
193.564638
 20
720.371449
 30
0.0
 10
190.487044
 20
725.357103
 30
0.0
 10
184.709205
 20
727.997940
 30
0.0
 10
178.925317
 20
727.062541
 30
0.0
  0
SPLINE
  5
31d
100
AcDbEntity
  8
Pærer
 62
7
100
AcDbSpline
 70
8
 71
3
 72
8
 73
4
 74
0
 40
0
 40
0
 40
0
 40
0
 40
1
 40
1
 40
1
 40
1
 10
178.925317
 20
727.062541
 30
0.0
 10
175.132670
 20
726.449176
 30
0.0
 10
171.739018
 20
724.354309
 30
0.0
 10
169.490927
 20
721.238788
 30
0.0
  0
SPLINE
  5
31e
100
AcDbEntity
  8
Pærer
 62
7
100
AcDbSpline
 70
8
 71
3
 72
8
 73
4
 74
0
 40
0
 40
0
 40
0
 40
0
 40
1
 40
1
 40
1
 40
1
 10
169.490927
 20
721.238788
 30
0.0
 10
167.242835
 20
718.123267
 30
0.0
 10
166.324456
 20
714.242298
 30
0.0
 10
166.937821
 20
710.449651
 30
0.0
  0
LWPOLYLINE
  5
31f
100
AcDbEntity
  8
Pærer
 62
7
100
AcDbPolyline
 90
1
 70
1
 10
196.978107
 20
619.287872
 30
0.0
  0
SPLINE
  5
320
100
AcDbEntity
  8
Pærer
 62
7
100
AcDbSpline
 70
8
 71
3
 72
8
 73
4
 74
0
 40
0
 40
0
 40
0
 40
0
 40
1
 40
1
 40
1
 40
1
 10
166.625332
 20
806.225315
 30
0.0
 10
165.802316
 20
800.424375
 30
0.0
 10
168.554740
 20
794.698860
 30
0.0
 10
173.599155
 20
791.718568
 30
0.0
  0
SPLINE
  5
321
100
AcDbEntity
  8
Pærer
 62
7
100
AcDbSpline
 70
8
 71
3
 72
8
 73
4
 74
0
 40
0
 40
0
 40
0
 40
0
 40
1
 40
1
 40
1
 40
1
 10
173.599155
 20
791.718568
 30
0.0
 10
178.643570
 20
788.738277
 30
0.0
 10
184.986563
 20
789.090126
 30
0.0
 10
189.670408
 20
792.610049
 30
0.0
  0
SPLINE
  5
322
100
AcDbEntity
  8
Pærer
 62
7
100
AcDbSpline
 70
8
 71
3
 72
8
 73
4
 74
0
 40
0
 40
0
 40
0
 40
0
 40
1
 40
1
 40
1
 40
1
 10
189.670408
 20
792.610049
 30
0.0
 10
194.354252
 20
796.129972
 30
0.0
 10
196.456545
 20
802.124781
 30
0.0
 10
194.996989
 20
807.799105
 30
0.0
  0
SPLINE
  5
323
100
AcDbEntity
  8
Pærer
 62
7
100
AcDbSpline
 70
8
 71
3
 72
8
 73
4
 74
0
 40
0
 40
0
 40
0
 40
0
 40
1
 40
1
 40
1
 40
1
 10
194.996989
 20
807.799105
 30
0.0
 10
193.537434
 20
813.473429
 30
0.0
 10
188.803465
 20
817.709808
 30
0.0
 10
183.002525
 20
818.532825
 30
0.0
  0
SPLINE
  5
324
100
AcDbEntity
  8
Pærer
 62
7
100
AcDbSpline
 70
8
 71
3
 72
8
 73
4
 74
0
 40
0
 40
0
 40
0
 40
0
 40
1
 40
1
 40
1
 40
1
 10
183.002525
 20
818.532825
 30
0.0
 10
179.198697
 20
819.072498
 30
0.0
 10
175.336280
 20
818.079003
 30
0.0
 10
172.264960
 20
815.770898
 30
0.0
  0
SPLINE
  5
325
100
AcDbEntity
  8
Pærer
 62
7
100
AcDbSpline
 70
8
 71
3
 72
8
 73
4
 74
0
 40
0
 40
0
 40
0
 40
0
 40
1
 40
1
 40
1
 40
1
 10
172.264960
 20
815.770898
 30
0.0
 10
169.193641
 20
813.462792
 30
0.0
 10
167.165006
 20
810.029143
 30
0.0
 10
166.625332
 20
806.225315
 30
0.0
  0
LWPOLYLINE
  5
326
100
AcDbEntity
  8
Pærer
 62
7
100
AcDbPolyline
 90
1
 70
1
 10
166.937821
 20
710.449651
 30
0.0
  0
SPLINE
  5
327
100
AcDbEntity
  8
Pærer
 62
7
100
AcDbSpline
 70
8
 71
3
 72
8
 73
4
 74
0
 40
0
 40
0
 40
0
 40
0
 40
1
 40
1
 40
1
 40
1
 10
195.947768
 20
897.684276
 30
0.0
 10
193.341839
 20
892.436656
 30
0.0
 10
194.153597
 20
886.135977
 30
0.0
 10
198.004519
 20
881.720236
 30
0.0
  0
SPLINE
  5
328
100
AcDbEntity
  8
Pærer
 62
7
100
AcDbSpline
 70
8
 71
3
 72
8
 73
4
 74
0
 40
0
 40
0
 40
0
 40
0
 40
1
 40
1
 40
1
 40
1
 10
198.004519
 20
881.720236
 30
0.0
 10
201.855442
 20
877.304495
 30
0.0
 10
207.987156
 20
875.643295
 30
0.0
 10
213.540453
 20
877.511253
 30
0.0
  0
SPLINE
  5
329
100
AcDbEntity
  8
Pærer
 62
7
100
AcDbSpline
 70
8
 71
3
 72
8
 73
4
 74
0
 40
0
 40
0
 40
0
 40
0
 40
1
 40
1
 40
1
 40
1
 10
213.540453
 20
877.511253
 30
0.0
 10
219.093751
 20
879.379210
 30
0.0
 10
222.975004
 20
884.408462
 30
0.0
 10
223.374391
 20
890.253876
 30
0.0
  0
SPLINE
  5
32a
100
AcDbEntity
  8
Pærer
 62
7
100
AcDbSpline
 70
8
 71
3
 72
8
 73
4
 74
0
 40
0
 40
0
 40
0
 40
0
 40
1
 40
1
 40
1
 40
1
 10
223.374391
 20
890.253876
 30
0.0
 10
223.773779
 20
896.099290
 30
0.0
 10
220.612647
 20
901.609712
 30
0.0
 10
215.365028
 20
904.215641
 30
0.0
  0
SPLINE
  5
32b
100
AcDbEntity
  8
Pærer
 62
7
100
AcDbSpline
 70
8
 71
3
 72
8
 73
4
 74
0
 40
0
 40
0
 40
0
 40
0
 40
1
 40
1
 40
1
 40
1
 10
215.365028
 20
904.215641
 30
0.0
 10
211.924026
 20
905.924417
 30
0.0
 10
207.945150
 20
906.196273
 30
0.0
 10
204.303708
 20
904.971404
 30
0.0
  0
SPLINE
  5
32c
100
AcDbEntity
  8
Pærer
 62
7
100
AcDbSpline
 70
8
 71
3
 72
8
 73
4
 74
0
 40
0
 40
0
 40
0
 40
0
 40
1
 40
1
 40
1
 40
1
 10
204.303708
 20
904.971404
 30
0.0
 10
200.662265
 20
903.746536
 30
0.0
 10
197.656544
 20
901.125277
 30
0.0
 10
195.947768
 20
897.684276
 30
0.0
  0
LWPOLYLINE
  5
32d
100
AcDbEntity
  8
Pærer
 62
7
100
AcDbPolyline
 90
1
 70
1
 10
166.625332
 20
806.225315
 30
0.0
  0
SPLINE
  5
32e
100
AcDbEntity
  8
Pærer
 62
7
100
AcDbSpline
 70
8
 71
3
 72
8
 73
4
 74
0
 40
0
 40
0
 40
0
 40
0
 40
1
 40
1
 40
1
 40
1
 10
252.084882
 20
975.568609
 30
0.0
 10
247.970582
 20
971.397173
 30
0.0
 10
246.774215
 20
965.158088
 30
0.0
 10
249.053645
 20
959.760631
 30
0.0
  0
SPLINE
  5
32f
100
AcDbEntity
  8
Pærer
 62
7
100
AcDbSpline
 70
8
 71
3
 72
8
 73
4
 74
0
 40
0
 40
0
 40
0
 40
0
 40
1
 40
1
 40
1
 40
1
 10
249.053645
 20
959.760631
 30
0.0
 10
251.333075
 20
954.363174
 30
0.0
 10
256.639407
 20
950.870280
 30
0.0
 10
262.498308
 20
950.910682
 30
0.0
  0
SPLINE
  5
330
100
AcDbEntity
  8
Pærer
 62
7
100
AcDbSpline
 70
8
 71
3
 72
8
 73
4
 74
0
 40
0
 40
0
 40
0
 40
0
 40
1
 40
1
 40
1
 40
1
 10
262.498308
 20
950.910682
 30
0.0
 10
268.357208
 20
950.951083
 30
0.0
 10
273.614867
 20
954.516823
 30
0.0
 10
275.819645
 20
959.945202
 30
0.0
  0
SPLINE
  5
331
100
AcDbEntity
  8
Pærer
 62
7
100
AcDbSpline
 70
8
 71
3
 72
8
 73
4
 74
0
 40
0
 40
0
 40
0
 40
0
 40
1
 40
1
 40
1
 40
1
 10
275.819645
 20
959.945202
 30
0.0
 10
278.024423
 20
965.373581
 30
0.0
 10
276.742128
 20
971.595573
 30
0.0
 10
272.570691
 20
975.709873
 30
0.0
  0
SPLINE
  5
332
100
AcDbEntity
  8
Pærer
 62
7
100
AcDbSpline
 70
8
 71
3
 72
8
 73
4
 74
0
 40
0
 40
0
 40
0
 40
0
 40
1
 40
1
 40
1
 40
1
 10
272.570691
 20
975.709873
 30
0.0
 10
269.835371
 20
978.407728
 30
0.0
 10
266.140364
 20
979.908483
 30
0.0
 10
262.298530
 20
979.881991
 30
0.0
  0
SPLINE
  5
333
100
AcDbEntity
  8
Pærer
 62
7
100
AcDbSpline
 70
8
 71
3
 72
8
 73
4
 74
0
 40
0
 40
0
 40
0
 40
0
 40
1
 40
1
 40
1
 40
1
 10
262.298530
 20
979.881991
 30
0.0
 10
258.456695
 20
979.855499
 30
0.0
 10
254.782736
 20
978.303929
 30
0.0
 10
252.084882
 20
975.568609
 30
0.0
  0
LWPOLYLINE
  5
334
100
AcDbEntity
  8
Pærer
 62
7
100
AcDbPolyline
 90
1
 70
1
 10
195.947768
 20
897.684276
 30
0.0
  0
SPLINE
  5
335
100
AcDbEntity
  8
Pærer
 62
7
100
AcDbSpline
 70
8
 71
3
 72
8
 73
4
 74
0
 40
0
 40
0
 40
0
 40
0
 40
1
 40
1
 40
1
 40
1
 10
329.593906
 20
1032.305185
 30
0.0
 10
324.373699
 20
1029.644773
 30
0.0
 10
321.270101
 20
1024.101744
 30
0.0
 10
321.730315
 20
1018.260806
 30
0.0
  0
SPLINE
  5
336
100
AcDbEntity
  8
Pærer
 62
7
100
AcDbSpline
 70
8
 71
3
 72
8
 73
4
 74
0
 40
0
 40
0
 40
0
 40
0
 40
1
 40
1
 40
1
 40
1
 10
321.730315
 20
1018.260806
 30
0.0
 10
322.190529
 20
1012.419868
 30
0.0
 10
326.123924
 20
1007.431292
 30
0.0
 10
331.696364
 20
1005.621245
 30
0.0
  0
SPLINE
  5
337
100
AcDbEntity
  8
Pærer
 62
7
100
AcDbSpline
 70
8
 71
3
 72
8
 73
4
 74
0
 40
0
 40
0
 40
0
 40
0
 40
1
 40
1
 40
1
 40
1
 10
331.696364
 20
1005.621245
 30
0.0
 10
337.268803
 20
1003.811197
 30
0.0
 10
343.382891
 20
1005.536134
 30
0.0
 10
347.187638
 20
1009.991722
 30
0.0
  0
SPLINE
  5
338
100
AcDbEntity
  8
Pærer
 62
7
100
AcDbSpline
 70
8
 71
3
 72
8
 73
4
 74
0
 40
0
 40
0
 40
0
 40
0
 40
1
 40
1
 40
1
 40
1
 10
347.187638
 20
1009.991722
 30
0.0
 10
350.992384
 20
1014.447310
 30
0.0
 10
351.738510
 20
1020.756095
 30
0.0
 10
349.078097
 20
1025.976302
 30
0.0
  0
SPLINE
  5
339
100
AcDbEntity
  8
Pærer
 62
7
100
AcDbSpline
 70
8
 71
3
 72
8
 73
4
 74
0
 40
0
 40
0
 40
0
 40
0
 40
1
 40
1
 40
1
 40
1
 10
349.078097
 20
1025.976302
 30
0.0
 10
347.333595
 20
1029.399329
 30
0.0
 10
344.300751
 20
1031.989156
 30
0.0
 10
340.646756
 20
1033.176052
 30
0.0
  0
SPLINE
  5
33a
100
AcDbEntity
  8
Pærer
 62
7
100
AcDbSpline
 70
8
 71
3
 72
8
 73
4
 74
0
 40
0
 40
0
 40
0
 40
0
 40
1
 40
1
 40
1
 40
1
 10
340.646756
 20
1033.176052
 30
0.0
 10
336.992761
 20
1034.362948
 30
0.0
 10
333.016932
 20
1034.049687
 30
0.0
 10
329.593906
 20
1032.305185
 30
0.0
  0
LWPOLYLINE
  5
33b
100
AcDbEntity
  8
Pærer
 62
7
100
AcDbPolyline
 90
1
 70
1
 10
252.084882
 20
975.568609
 30
0.0
  0
SPLINE
  5
33c
100
AcDbEntity
  8
Pærer
 62
7
100
AcDbSpline
 70
8
 71
3
 72
8
 73
4
 74
0
 40
0
 40
0
 40
0
 40
0
 40
1
 40
1
 40
1
 40
1
 10
420.801738
 20
1062.280015
 30
0.0
 10
415.011805
 20
1061.382774
 30
0.0
 10
410.332470
 20
1057.086110
 30
0.0
 10
408.945701
 20
1051.393549
 30
0.0
  0
SPLINE
  5
33d
100
AcDbEntity
  8
Pærer
 62
7
100
AcDbSpline
 70
8
 71
3
 72
8
 73
4
 74
0
 40
0
 40
0
 40
0
 40
0
 40
1
 40
1
 40
1
 40
1
 10
408.945701
 20
1051.393549
 30
0.0
 10
407.558931
 20
1045.700989
 30
0.0
 10
409.737828
 20
1039.733585
 30
0.0
 10
414.466374
 20
1036.273929
 30
0.0
  0
SPLINE
  5
33e
100
AcDbEntity
  8
Pærer
 62
7
100
AcDbSpline
 70
8
 71
3
 72
8
 73
4
 74
0
 40
0
 40
0
 40
0
 40
0
 40
1
 40
1
 40
1
 40
1
 10
414.466374
 20
1036.273929
 30
0.0
 10
419.194920
 20
1032.814272
 30
0.0
 10
425.541910
 20
1032.543683
 30
0.0
 10
430.547752
 20
1035.588337
 30
0.0
  0
SPLINE
  5
33f
100
AcDbEntity
  8
Pærer
 62
7
100
AcDbSpline
 70
8
 71
3
 72
8
 73
4
 74
0
 40
0
 40
0
 40
0
 40
0
 40
1
 40
1
 40
1
 40
1
 10
430.547752
 20
1035.588337
 30
0.0
 10
435.553594
 20
1038.632991
 30
0.0
 10
438.232474
 20
1044.393296
 30
0.0
 10
437.335233
 20
1050.183229
 30
0.0
  0
SPLINE
  5
340
100
AcDbEntity
  8
Pærer
 62
7
100
AcDbSpline
 70
8
 71
3
 72
8
 73
4
 74
0
 40
0
 40
0
 40
0
 40
0
 40
1
 40
1
 40
1
 40
1
 10
437.335233
 20
1050.183229
 30
0.0
 10
436.746889
 20
1053.979840
 30
0.0
 10
434.674444
 20
1057.387233
 30
0.0
 10
431.573812
 20
1059.655821
 30
0.0
  0
SPLINE
  5
341
100
AcDbEntity
  8
Pærer
 62
7
100
AcDbSpline
 70
8
 71
3
 72
8
 73
4
 74
0
 40
0
 40
0
 40
0
 40
0
 40
1
 40
1
 40
1
 40
1
 10
431.573812
 20
1059.655821
 30
0.0
 10
428.473180
 20
1061.924408
 30
0.0
 10
424.598350
 20
1062.868359
 30
0.0
 10
420.801738
 20
1062.280015
 30
0.0
  0
LWPOLYLINE
  5
342
100
AcDbEntity
  8
Pærer
 62
7
100
AcDbPolyline
 90
1
 70
1
 10
329.593906
 20
1032.305185
 30
0.0
  0
SPLINE
  5
343
100
AcDbEntity
  8
Pærer
 62
7
100
AcDbSpline
 70
8
 71
3
 72
8
 73
4
 74
0
 40
0
 40
0
 40
0
 40
0
 40
1
 40
1
 40
1
 40
1
 10
516.487281
 20
1062.645215
 30
0.0
 10
510.686544
 20
1063.469693
 30
0.0
 10
504.960331
 20
1060.718707
 30
0.0
 10
501.978767
 20
1055.675038
 30
0.0
  0
SPLINE
  5
344
100
AcDbEntity
  8
Pærer
 62
7
100
AcDbSpline
 70
8
 71
3
 72
8
 73
4
 74
0
 40
0
 40
0
 40
0
 40
0
 40
1
 40
1
 40
1
 40
1
 10
501.978767
 20
1055.675038
 30
0.0
 10
498.997203
 20
1050.631370
 30
0.0
 10
499.347456
 20
1044.288283
 30
0.0
 10
502.866203
 20
1039.603548
 30
0.0
  0
SPLINE
  5
345
100
AcDbEntity
  8
Pærer
 62
7
100
AcDbSpline
 70
8
 71
3
 72
8
 73
4
 74
0
 40
0
 40
0
 40
0
 40
0
 40
1
 40
1
 40
1
 40
1
 10
502.866203
 20
1039.603548
 30
0.0
 10
506.384950
 20
1034.918814
 30
0.0
 10
512.379234
 20
1032.815011
 30
0.0
 10
518.053931
 20
1034.273139
 30
0.0
  0
SPLINE
  5
346
100
AcDbEntity
  8
Pærer
 62
7
100
AcDbSpline
 70
8
 71
3
 72
8
 73
4
 74
0
 40
0
 40
0
 40
0
 40
0
 40
1
 40
1
 40
1
 40
1
 10
518.053931
 20
1034.273139
 30
0.0
 10
523.728627
 20
1035.731267
 30
0.0
 10
527.966201
 20
1040.464173
 30
0.0
 10
528.790678
 20
1046.264910
 30
0.0
  0
SPLINE
  5
347
100
AcDbEntity
  8
Pærer
 62
7
100
AcDbSpline
 70
8
 71
3
 72
8
 73
4
 74
0
 40
0
 40
0
 40
0
 40
0
 40
1
 40
1
 40
1
 40
1
 10
528.790678
 20
1046.264910
 30
0.0
 10
529.331310
 20
1050.068606
 30
0.0
 10
528.338787
 20
1053.931277
 30
0.0
 10
526.031452
 20
1057.003180
 30
0.0
  0
SPLINE
  5
348
100
AcDbEntity
  8
Pærer
 62
7
100
AcDbSpline
 70
8
 71
3
 72
8
 73
4
 74
0
 40
0
 40
0
 40
0
 40
0
 40
1
 40
1
 40
1
 40
1
 10
526.031452
 20
1057.003180
 30
0.0
 10
523.724117
 20
1060.075083
 30
0.0
 10
520.290976
 20
1062.104584
 30
0.0
 10
516.487281
 20
1062.645215
 30
0.0
  0
LWPOLYLINE
  5
349
100
AcDbEntity
  8
Pærer
 62
7
100
AcDbPolyline
 90
1
 70
1
 10
420.801738
 20
1062.280015
 30
0.0
  0
SPLINE
  5
34a
100
AcDbEntity
  8
Pærer
 62
7
100
AcDbSpline
 70
8
 71
3
 72
8
 73
4
 74
0
 40
0
 40
0
 40
0
 40
0
 40
1
 40
1
 40
1
 40
1
 10
607.941782
 20
1033.318389
 30
0.0
 10
602.694171
 20
1035.924334
 30
0.0
 10
596.393490
 20
1035.112597
 30
0.0
 10
591.977737
 20
1031.261688
 30
0.0
  0
SPLINE
  5
34b
100
AcDbEntity
  8
Pærer
 62
7
100
AcDbSpline
 70
8
 71
3
 72
8
 73
4
 74
0
 40
0
 40
0
 40
0
 40
0
 40
1
 40
1
 40
1
 40
1
 10
591.977737
 20
1031.261688
 30
0.0
 10
587.561983
 20
1027.410780
 30
0.0
 10
585.900765
 20
1021.279071
 30
0.0
 10
587.768704
 20
1015.725768
 30
0.0
  0
SPLINE
  5
34c
100
AcDbEntity
  8
Pærer
 62
7
100
AcDbSpline
 70
8
 71
3
 72
8
 73
4
 74
0
 40
0
 40
0
 40
0
 40
0
 40
1
 40
1
 40
1
 40
1
 10
587.768704
 20
1015.725768
 30
0.0
 10
589.636644
 20
1010.172465
 30
0.0
 10
594.665883
 20
1006.291196
 30
0.0
 10
600.511296
 20
1005.891790
 30
0.0
  0
SPLINE
  5
34d
100
AcDbEntity
  8
Pærer
 62
7
100
AcDbSpline
 70
8
 71
3
 72
8
 73
4
 74
0
 40
0
 40
0
 40
0
 40
0
 40
1
 40
1
 40
1
 40
1
 10
600.511296
 20
1005.891790
 30
0.0
 10
606.356709
 20
1005.492385
 30
0.0
 10
611.867140
 20
1008.653499
 30
0.0
 10
614.473086
 20
1013.901110
 30
0.0
  0
SPLINE
  5
34e
100
AcDbEntity
  8
Pærer
 62
7
100
AcDbSpline
 70
8
 71
3
 72
8
 73
4
 74
0
 40
0
 40
0
 40
0
 40
0
 40
1
 40
1
 40
1
 40
1
 10
614.473086
 20
1013.901110
 30
0.0
 10
616.181872
 20
1017.342106
 30
0.0
 10
616.453741
 20
1021.320980
 30
0.0
 10
615.228884
 20
1024.962426
 30
0.0
  0
SPLINE
  5
34f
100
AcDbEntity
  8
Pærer
 62
7
100
AcDbSpline
 70
8
 71
3
 72
8
 73
4
 74
0
 40
0
 40
0
 40
0
 40
0
 40
1
 40
1
 40
1
 40
1
 10
615.228884
 20
1024.962426
 30
0.0
 10
614.004027
 20
1028.603873
 30
0.0
 10
611.382778
 20
1031.609602
 30
0.0
 10
607.941782
 20
1033.318389
 30
0.0
  0
LWPOLYLINE
  5
350
100
AcDbEntity
  8
Pærer
 62
7
100
AcDbPolyline
 90
1
 70
1
 10
516.487281
 20
1062.645215
 30
0.0
  0
SPLINE
  5
351
100
AcDbEntity
  8
Pærer
 62
7
100
AcDbSpline
 70
8
 71
3
 72
8
 73
4
 74
0
 40
0
 40
0
 40
0
 40
0
 40
1
 40
1
 40
1
 40
1
 10
685.823139
 20
977.176462
 30
0.0
 10
681.651717
 20
981.290778
 30
0.0
 10
675.412636
 20
982.487167
 30
0.0
 10
670.015170
 20
980.207756
 30
0.0
  0
SPLINE
  5
352
100
AcDbEntity
  8
Pærer
 62
7
100
AcDbSpline
 70
8
 71
3
 72
8
 73
4
 74
0
 40
0
 40
0
 40
0
 40
0
 40
1
 40
1
 40
1
 40
1
 10
670.015170
 20
980.207756
 30
0.0
 10
664.617703
 20
977.928345
 30
0.0
 10
661.124790
 20
972.622025
 30
0.0
 10
661.165171
 20
966.763123
 30
0.0
  0
SPLINE
  5
353
100
AcDbEntity
  8
Pærer
 62
7
100
AcDbSpline
 70
8
 71
3
 72
8
 73
4
 74
0
 40
0
 40
0
 40
0
 40
0
 40
1
 40
1
 40
1
 40
1
 10
661.165171
 20
966.763123
 30
0.0
 10
661.205551
 20
960.904222
 30
0.0
 10
664.771272
 20
955.646550
 30
0.0
 10
670.199644
 20
953.441752
 30
0.0
  0
SPLINE
  5
354
100
AcDbEntity
  8
Pærer
 62
7
100
AcDbSpline
 70
8
 71
3
 72
8
 73
4
 74
0
 40
0
 40
0
 40
0
 40
0
 40
1
 40
1
 40
1
 40
1
 10
670.199644
 20
953.441752
 30
0.0
 10
675.628016
 20
951.236954
 30
0.0
 10
681.850014
 20
952.519227
 30
0.0
 10
685.964329
 20
956.690649
 30
0.0
  0
SPLINE
  5
355
100
AcDbEntity
  8
Pærer
 62
7
100
AcDbSpline
 70
8
 71
3
 72
8
 73
4
 74
0
 40
0
 40
0
 40
0
 40
0
 40
1
 40
1
 40
1
 40
1
 10
685.964329
 20
956.690649
 30
0.0
 10
688.662194
 20
959.425960
 30
0.0
 10
690.162963
 20
963.120962
 30
0.0
 10
690.136485
 20
966.962797
 30
0.0
  0
SPLINE
  5
356
100
AcDbEntity
  8
Pærer
 62
7
100
AcDbSpline
 70
8
 71
3
 72
8
 73
4
 74
0
 40
0
 40
0
 40
0
 40
0
 40
1
 40
1
 40
1
 40
1
 10
690.136485
 20
966.962797
 30
0.0
 10
690.110006
 20
970.804632
 30
0.0
 10
688.558449
 20
974.478597
 30
0.0
 10
685.823139
 20
977.176462
 30
0.0
  0
LWPOLYLINE
  5
357
100
AcDbEntity
  8
Pærer
 62
7
100
AcDbPolyline
 90
1
 70
1
 10
607.941782
 20
1033.318389
 30
0.0
  0
SPLINE
  5
358
100
AcDbEntity
  8
Pærer
 62
7
100
AcDbSpline
 70
8
 71
3
 72
8
 73
4
 74
0
 40
0
 40
0
 40
0
 40
0
 40
1
 40
1
 40
1
 40
1
 10
742.555878
 20
899.664989
 30
0.0
 10
739.895485
 20
904.885205
 30
0.0
 10
734.352468
 20
907.988822
 30
0.0
 10
728.511529
 20
907.528629
 30
0.0
  0
SPLINE
  5
359
100
AcDbEntity
  8
Pærer
 62
7
100
AcDbSpline
 70
8
 71
3
 72
8
 73
4
 74
0
 40
0
 40
0
 40
0
 40
0
 40
1
 40
1
 40
1
 40
1
 10
728.511529
 20
907.528629
 30
0.0
 10
722.670590
 20
907.068436
 30
0.0
 10
717.682001
 20
903.135060
 30
0.0
 10
715.871933
 20
897.562628
 30
0.0
  0
SPLINE
  5
35a
100
AcDbEntity
  8
Pærer
 62
7
100
AcDbSpline
 70
8
 71
3
 72
8
 73
4
 74
0
 40
0
 40
0
 40
0
 40
0
 40
1
 40
1
 40
1
 40
1
 10
715.871933
 20
897.562628
 30
0.0
 10
714.061866
 20
891.990196
 30
0.0
 10
715.786781
 20
885.876102
 30
0.0
 10
720.242354
 20
882.071340
 30
0.0
  0
SPLINE
  5
35b
100
AcDbEntity
  8
Pærer
 62
7
100
AcDbSpline
 70
8
 71
3
 72
8
 73
4
 74
0
 40
0
 40
0
 40
0
 40
0
 40
1
 40
1
 40
1
 40
1
 10
720.242354
 20
882.071340
 30
0.0
 10
724.697928
 20
878.266578
 30
0.0
 10
731.006710
 20
877.520430
 30
0.0
 10
736.226926
 20
880.180824
 30
0.0
  0
SPLINE
  5
35c
100
AcDbEntity
  8
Pærer
 62
7
100
AcDbSpline
 70
8
 71
3
 72
8
 73
4
 74
0
 40
0
 40
0
 40
0
 40
0
 40
1
 40
1
 40
1
 40
1
 10
736.226926
 20
880.180824
 30
0.0
 10
739.649958
 20
881.925313
 30
0.0
 10
742.239796
 20
884.958148
 30
0.0
 10
743.426705
 20
888.612138
 30
0.0
  0
SPLINE
  5
35d
100
AcDbEntity
  8
Pærer
 62
7
100
AcDbSpline
 70
8
 71
3
 72
8
 73
4
 74
0
 40
0
 40
0
 40
0
 40
0
 40
1
 40
1
 40
1
 40
1
 10
743.426705
 20
888.612138
 30
0.0
 10
744.613613
 20
892.266127
 30
0.0
 10
744.300368
 20
896.241957
 30
0.0
 10
742.555878
 20
899.664989
 30
0.0
  0
LWPOLYLINE
  5
35e
100
AcDbEntity
  8
Pærer
 62
7
100
AcDbPolyline
 90
1
 70
1
 10
685.823139
 20
977.176462
 30
0.0
  0
SPLINE
  5
35f
100
AcDbEntity
  8
Pærer
 62
7
100
AcDbSpline
 70
8
 71
3
 72
8
 73
4
 74
0
 40
0
 40
0
 40
0
 40
0
 40
1
 40
1
 40
1
 40
1
 10
772.525129
 20
808.455192
 30
0.0
 10
771.627907
 20
814.245129
 30
0.0
 10
767.331257
 20
818.924478
 30
0.0
 10
761.638701
 20
820.311265
 30
0.0
  0
SPLINE
  5
360
100
AcDbEntity
  8
Pærer
 62
7
100
AcDbSpline
 70
8
 71
3
 72
8
 73
4
 74
0
 40
0
 40
0
 40
0
 40
0
 40
1
 40
1
 40
1
 40
1
 10
761.638701
 20
820.311265
 30
0.0
 10
755.946145
 20
821.698053
 30
0.0
 10
749.978734
 20
819.519175
 30
0.0
 10
746.519062
 20
814.790639
 30
0.0
  0
SPLINE
  5
361
100
AcDbEntity
  8
Pærer
 62
7
100
AcDbSpline
 70
8
 71
3
 72
8
 73
4
 74
0
 40
0
 40
0
 40
0
 40
0
 40
1
 40
1
 40
1
 40
1
 10
746.519062
 20
814.790639
 30
0.0
 10
743.059391
 20
810.062104
 30
0.0
 10
742.788782
 20
803.715114
 30
0.0
 10
745.833420
 20
798.709262
 30
0.0
  0
SPLINE
  5
362
100
AcDbEntity
  8
Pærer
 62
7
100
AcDbSpline
 70
8
 71
3
 72
8
 73
4
 74
0
 40
0
 40
0
 40
0
 40
0
 40
1
 40
1
 40
1
 40
1
 10
745.833420
 20
798.709262
 30
0.0
 10
748.878058
 20
793.703411
 30
0.0
 10
754.638354
 20
791.024513
 30
0.0
 10
760.428291
 20
791.921735
 30
0.0
  0
SPLINE
  5
363
100
AcDbEntity
  8
Pærer
 62
7
100
AcDbSpline
 70
8
 71
3
 72
8
 73
4
 74
0
 40
0
 40
0
 40
0
 40
0
 40
1
 40
1
 40
1
 40
1
 10
760.428291
 20
791.921735
 30
0.0
 10
764.224904
 20
792.510067
 30
0.0
 10
767.632304
 20
794.582502
 30
0.0
 10
769.900901
 20
797.683126
 30
0.0
  0
SPLINE
  5
364
100
AcDbEntity
  8
Pærer
 62
7
100
AcDbSpline
 70
8
 71
3
 72
8
 73
4
 74
0
 40
0
 40
0
 40
0
 40
0
 40
1
 40
1
 40
1
 40
1
 10
769.900901
 20
797.683126
 30
0.0
 10
772.169499
 20
800.783751
 30
0.0
 10
773.113462
 20
804.658579
 30
0.0
 10
772.525129
 20
808.455192
 30
0.0
  0
LWPOLYLINE
  5
365
100
AcDbEntity
  8
Pærer
 62
7
100
AcDbPolyline
 90
1
 70
1
 10
742.555878
 20
899.664989
 30
0.0
  0
SPLINE
  5
366
100
AcDbEntity
  8
Pærer
 62
7
100
AcDbSpline
 70
8
 71
3
 72
8
 73
4
 74
0
 40
0
 40
0
 40
0
 40
0
 40
1
 40
1
 40
1
 40
1
 10
772.886130
 20
712.769202
 30
0.0
 10
773.710628
 20
718.569942
 30
0.0
 10
770.959659
 20
724.296170
 30
0.0
 10
765.915996
 20
727.277754
 30
0.0
  0
SPLINE
  5
367
100
AcDbEntity
  8
Pærer
 62
7
100
AcDbSpline
 70
8
 71
3
 72
8
 73
4
 74
0
 40
0
 40
0
 40
0
 40
0
 40
1
 40
1
 40
1
 40
1
 10
765.915996
 20
727.277754
 30
0.0
 10
760.872333
 20
730.259338
 30
0.0
 10
754.529238
 20
729.909106
 30
0.0
 10
749.844487
 20
726.390372
 30
0.0
  0
SPLINE
  5
368
100
AcDbEntity
  8
Pærer
 62
7
100
AcDbSpline
 70
8
 71
3
 72
8
 73
4
 74
0
 40
0
 40
0
 40
0
 40
0
 40
1
 40
1
 40
1
 40
1
 10
749.844487
 20
726.390372
 30
0.0
 10
745.159737
 20
722.871638
 30
0.0
 10
743.055911
 20
716.877355
 30
0.0
 10
744.514021
 20
711.202648
 30
0.0
  0
SPLINE
  5
369
100
AcDbEntity
  8
Pærer
 62
7
100
AcDbSpline
 70
8
 71
3
 72
8
 73
4
 74
0
 40
0
 40
0
 40
0
 40
0
 40
1
 40
1
 40
1
 40
1
 10
744.514021
 20
711.202648
 30
0.0
 10
745.972131
 20
705.527941
 30
0.0
 10
750.705027
 20
701.290347
 30
0.0
 10
756.505767
 20
700.465849
 30
0.0
  0
SPLINE
  5
36a
100
AcDbEntity
  8
Pærer
 62
7
100
AcDbSpline
 70
8
 71
3
 72
8
 73
4
 74
0
 40
0
 40
0
 40
0
 40
0
 40
1
 40
1
 40
1
 40
1
 10
756.505767
 20
700.465849
 30
0.0
 10
760.309465
 20
699.925204
 30
0.0
 10
764.172143
 20
700.917715
 30
0.0
 10
767.244057
 20
703.225041
 30
0.0
  0
SPLINE
  5
36b
100
AcDbEntity
  8
Pærer
 62
7
100
AcDbSpline
 70
8
 71
3
 72
8
 73
4
 74
0
 40
0
 40
0
 40
0
 40
0
 40
1
 40
1
 40
1
 40
1
 10
767.244057
 20
703.225041
 30
0.0
 10
770.315970
 20
705.532368
 30
0.0
 10
772.345485
 20
708.965505
 30
0.0
 10
772.886130
 20
712.769202
 30
0.0
  0
LWPOLYLINE
  5
36c
100
AcDbEntity
  8
Pærer
 62
7
100
AcDbPolyline
 90
1
 70
1
 10
772.525129
 20
808.455192
 30
0.0
  0
SPLINE
  5
36d
100
AcDbEntity
  8
Guidelines
 62
7
100
AcDbSpline
 70
8
 71
3
 72
8
 73
4
 74
0
 40
0
 40
0
 40
0
 40
0
 40
1
 40
1
 40
1
 40
1
 10
759.846000
 20
762.225000
 30
0.0
 10
759.846000
 20
684.721846
 30
0.0
 10
729.057992
 20
610.393019
 30
0.0
 10
674.254986
 20
555.590014
 30
0.0
  0
SPLINE
  5
36e
100
AcDbEntity
  8
Guidelines
 62
7
100
AcDbSpline
 70
8
 71
3
 72
8
 73
4
 74
0
 40
0
 40
0
 40
0
 40
0
 40
1
 40
1
 40
1
 40
1
 10
674.254986
 20
555.590014
 30
0.0
 10
619.451981
 20
500.787008
 30
0.0
 10
545.123154
 20
469.999000
 30
0.0
 10
467.620000
 20
469.999000
 30
0.0
  0
SPLINE
  5
36f
100
AcDbEntity
  8
Guidelines
 62
7
100
AcDbSpline
 70
8
 71
3
 72
8
 73
4
 74
0
 40
0
 40
0
 40
0
 40
0
 40
1
 40
1
 40
1
 40
1
 10
467.620000
 20
469.999000
 30
0.0
 10
306.228037
 20
469.999000
 30
0.0
 10
175.394000
 20
600.833037
 30
0.0
 10
175.394000
 20
762.225000
 30
0.0
  0
SPLINE
  5
370
100
AcDbEntity
  8
Guidelines
 62
7
100
AcDbSpline
 70
8
 71
3
 72
8
 73
4
 74
0
 40
0
 40
0
 40
0
 40
0
 40
1
 40
1
 40
1
 40
1
 10
175.394000
 20
762.225000
 30
0.0
 10
175.393735
 20
839.728327
 30
0.0
 10
206.181626
 20
914.057411
 30
0.0
 10
260.984660
 20
968.860633
 30
0.0
  0
SPLINE
  5
371
100
AcDbEntity
  8
Guidelines
 62
7
100
AcDbSpline
 70
8
 71
3
 72
8
 73
4
 74
0
 40
0
 40
0
 40
0
 40
0
 40
1
 40
1
 40
1
 40
1
 10
260.984660
 20
968.860633
 30
0.0
 10
315.787695
 20
1023.663855
 30
0.0
 10
390.116673
 20
1054.452000
 30
0.0
 10
467.620000
 20
1054.452000
 30
0.0
  0
SPLINE
  5
372
100
AcDbEntity
  8
Guidelines
 62
7
100
AcDbSpline
 70
8
 71
3
 72
8
 73
4
 74
0
 40
0
 40
0
 40
0
 40
0
 40
1
 40
1
 40
1
 40
1
 10
467.620000
 20
1054.452000
 30
0.0
 10
545.123327
 20
1054.452000
 30
0.0
 10
619.452305
 20
1023.663855
 30
0.0
 10
674.255340
 20
968.860633
 30
0.0
  0
SPLINE
  5
373
100
AcDbEntity
  8
Guidelines
 62
7
100
AcDbSpline
 70
8
 71
3
 72
8
 73
4
 74
0
 40
0
 40
0
 40
0
 40
0
 40
1
 40
1
 40
1
 40
1
 10
674.255340
 20
968.860633
 30
0.0
 10
729.058374
 20
914.057411
 30
0.0
 10
759.846265
 20
839.728327
 30
0.0
 10
759.846000
 20
762.225000
 30
0.0
  0
LWPOLYLINE
  5
374
100
AcDbEntity
  8
Pærer
 62
7
100
AcDbPolyline
 90
1
 70
1
 10
772.886130
 20
712.769202
 30
0.0
  0
LWPOLYLINE
  5
375
100
AcDbEntity
  8
Guidelines
 62
7
100
AcDbPolyline
 90
1
 70
1
 10
759.846000
 20
762.225000
 30
0.0
  0
ENDSEC
  0
SECTION
  2
OBJECTS
  0
DICTIONARY
  5
C
330
0
100
AcDbDictionary
  3
ACAD_GROUP
350
D
  3
ACAD_MLINESTYLE
350
17
  0
DICTIONARY
  5
D
330
C
100
AcDbDictionary
  0
DICTIONARY
  5
1A
330
C
100
AcDbDictionary
  0
DICTIONARY
  5
17
330
C
100
AcDbDictionary
  3
STANDARD
350
18
  0
DICTIONARY
  5
19
330
C
100
AcDbDictionary
  0
ENDSEC
  0
EOF
